M48
; DRILL file {KiCad 7.0.7} date Sat Sep 16 19:15:00 2023
; FORMAT={-:-/ absolute / inch / decimal}
; #@! TF.CreationDate,2023-09-16T19:15:00-07:00
; #@! TF.GenerationSoftware,Kicad,Pcbnew,7.0.7
; #@! TF.FileFunction,Plated,1,2,PTH
FMAT,2
INCH
; #@! TA.AperFunction,Plated,PTH,ViaDrill
T1C0.0157
; #@! TA.AperFunction,Plated,PTH,ComponentDrill
T2C0.0276
; #@! TA.AperFunction,Plated,PTH,ComponentDrill
T3C0.0315
; #@! TA.AperFunction,Plated,PTH,ComponentDrill
T4C0.0354
; #@! TA.AperFunction,Plated,PTH,ComponentDrill
T5C0.0394
; #@! TA.AperFunction,Plated,PTH,ComponentDrill
T6C0.0402
; #@! TA.AperFunction,Plated,PTH,ComponentDrill
T7C0.0433
%
G90
G05
T1
X6.2169Y-3.3693
X6.3776Y-3.4236
X6.5713Y-3.7298
X6.5724Y-3.635
T2
X5.4587Y-3.9315
X5.6587Y-3.9315
X6.3157Y-3.137
X6.3157Y-3.337
X6.426Y-3.1382
X6.426Y-3.3382
T3
X5.8843Y-3.9744
X5.9469Y-4.189
X5.9827Y-3.9744
X6.0921Y-3.9693
X6.139Y-4.189
X6.1906Y-3.9693
X6.5913Y-3.1031
X6.5913Y-3.4031
X6.6913Y-3.1031
X6.6913Y-3.4031
T4
X5.5037Y-4.1669
X5.6037Y-4.1669
T5
X6.595Y-3.8593
X6.595Y-3.9593
X6.595Y-4.0593
X6.695Y-3.8593
X6.695Y-3.9593
X6.695Y-4.0593
T7
X5.9236Y-3.2217
X6.0236Y-3.2217
X6.1236Y-3.2217
T6
G00X5.602Y-3.5398
M15
G01X5.4839Y-3.5398
M16
G05
G00X5.602Y-3.7437
M15
G01X5.4839Y-3.7437
M16
G05
T0
M30
