%TF.GenerationSoftware,KiCad,Pcbnew,7.0.7*%
%TF.CreationDate,2023-09-16T19:14:59-07:00*%
%TF.ProjectId,IntroProjectFall2023,496e7472-6f50-4726-9f6a-65637446616c,rev?*%
%TF.SameCoordinates,Original*%
%TF.FileFunction,Soldermask,Top*%
%TF.FilePolarity,Negative*%
%FSLAX46Y46*%
G04 Gerber Fmt 4.6, Leading zero omitted, Abs format (unit mm)*
G04 Created by KiCad (PCBNEW 7.0.7) date 2023-09-16 19:14:59*
%MOMM*%
%LPD*%
G01*
G04 APERTURE LIST*
G04 Aperture macros list*
%AMRoundRect*
0 Rectangle with rounded corners*
0 $1 Rounding radius*
0 $2 $3 $4 $5 $6 $7 $8 $9 X,Y pos of 4 corners*
0 Add a 4 corners polygon primitive as box body*
4,1,4,$2,$3,$4,$5,$6,$7,$8,$9,$2,$3,0*
0 Add four circle primitives for the rounded corners*
1,1,$1+$1,$2,$3*
1,1,$1+$1,$4,$5*
1,1,$1+$1,$6,$7*
1,1,$1+$1,$8,$9*
0 Add four rect primitives between the rounded corners*
20,1,$1+$1,$2,$3,$4,$5,0*
20,1,$1+$1,$4,$5,$6,$7,0*
20,1,$1+$1,$6,$7,$8,$9,0*
20,1,$1+$1,$8,$9,$2,$3,0*%
G04 Aperture macros list end*
%ADD10R,1.905000X2.000000*%
%ADD11O,1.905000X2.000000*%
%ADD12RoundRect,0.250000X0.600000X0.600000X-0.600000X0.600000X-0.600000X-0.600000X0.600000X-0.600000X0*%
%ADD13C,1.700000*%
%ADD14C,1.500000*%
%ADD15R,1.600000X1.600000*%
%ADD16O,1.600000X1.600000*%
%ADD17R,1.600000X0.550000*%
%ADD18R,0.550000X1.600000*%
%ADD19C,1.400000*%
%ADD20O,1.400000X1.400000*%
%ADD21C,1.600000*%
%ADD22R,5.020000X2.020000*%
%ADD23O,5.020000X2.020000*%
%ADD24R,1.800000X1.800000*%
%ADD25C,1.800000*%
G04 APERTURE END LIST*
D10*
%TO.C,U2*%
X150460000Y-81830000D03*
D11*
X153000000Y-81830000D03*
X155540000Y-81830000D03*
%TD*%
D12*
%TO.C,J1*%
X170052500Y-103105000D03*
D13*
X167512500Y-103105000D03*
X170052500Y-100565000D03*
X167512500Y-100565000D03*
X170052500Y-98025000D03*
X167512500Y-98025000D03*
%TD*%
D14*
%TO.C,Y1*%
X155930000Y-106400000D03*
X151050000Y-106400000D03*
%TD*%
D15*
%TO.C,SW1*%
X167420000Y-86440000D03*
D16*
X169960000Y-86440000D03*
X169960000Y-78820000D03*
X167420000Y-78820000D03*
%TD*%
D17*
%TO.C,U1*%
X149500000Y-88530000D03*
X149500000Y-89330000D03*
X149500000Y-90130000D03*
X149500000Y-90930000D03*
X149500000Y-91730000D03*
X149500000Y-92530000D03*
X149500000Y-93330000D03*
X149500000Y-94130000D03*
D18*
X150950000Y-95580000D03*
X151750000Y-95580000D03*
X152550000Y-95580000D03*
X153350000Y-95580000D03*
X154150000Y-95580000D03*
X154950000Y-95580000D03*
X155750000Y-95580000D03*
X156550000Y-95580000D03*
D17*
X158000000Y-94130000D03*
X158000000Y-93330000D03*
X158000000Y-92530000D03*
X158000000Y-91730000D03*
X158000000Y-90930000D03*
X158000000Y-90130000D03*
X158000000Y-89330000D03*
X158000000Y-88530000D03*
D18*
X156550000Y-87080000D03*
X155750000Y-87080000D03*
X154950000Y-87080000D03*
X154150000Y-87080000D03*
X153350000Y-87080000D03*
X152550000Y-87080000D03*
X151750000Y-87080000D03*
X150950000Y-87080000D03*
%TD*%
D19*
%TO.C,R3*%
X138650000Y-99860000D03*
D20*
X143730000Y-99860000D03*
%TD*%
D21*
%TO.C,C2*%
X157240000Y-100820000D03*
X154740000Y-100820000D03*
%TD*%
D22*
%TO.C,J2*%
X140790000Y-95090000D03*
D23*
X140790000Y-89910000D03*
%TD*%
D21*
%TO.C,C1*%
X151960000Y-100950000D03*
X149460000Y-100950000D03*
%TD*%
D24*
%TO.C,D1*%
X142335000Y-105840000D03*
D25*
X139795000Y-105840000D03*
%TD*%
D19*
%TO.C,R2*%
X163220000Y-79710000D03*
D20*
X163220000Y-84790000D03*
%TD*%
D19*
%TO.C,R1*%
X160420000Y-84760000D03*
D20*
X160420000Y-79680000D03*
%TD*%
M02*
