%TF.GenerationSoftware,KiCad,Pcbnew,7.0.7*%
%TF.CreationDate,2023-09-16T19:14:59-07:00*%
%TF.ProjectId,IntroProjectFall2023,496e7472-6f50-4726-9f6a-65637446616c,rev?*%
%TF.SameCoordinates,Original*%
%TF.FileFunction,Legend,Top*%
%TF.FilePolarity,Positive*%
%FSLAX46Y46*%
G04 Gerber Fmt 4.6, Leading zero omitted, Abs format (unit mm)*
G04 Created by KiCad (PCBNEW 7.0.7) date 2023-09-16 19:14:59*
%MOMM*%
%LPD*%
G01*
G04 APERTURE LIST*
%ADD10C,0.150000*%
%ADD11C,0.120000*%
G04 APERTURE END LIST*
D10*
X147928095Y-83704819D02*
X147928095Y-84514342D01*
X147928095Y-84514342D02*
X147975714Y-84609580D01*
X147975714Y-84609580D02*
X148023333Y-84657200D01*
X148023333Y-84657200D02*
X148118571Y-84704819D01*
X148118571Y-84704819D02*
X148309047Y-84704819D01*
X148309047Y-84704819D02*
X148404285Y-84657200D01*
X148404285Y-84657200D02*
X148451904Y-84609580D01*
X148451904Y-84609580D02*
X148499523Y-84514342D01*
X148499523Y-84514342D02*
X148499523Y-83704819D01*
X148928095Y-83800057D02*
X148975714Y-83752438D01*
X148975714Y-83752438D02*
X149070952Y-83704819D01*
X149070952Y-83704819D02*
X149309047Y-83704819D01*
X149309047Y-83704819D02*
X149404285Y-83752438D01*
X149404285Y-83752438D02*
X149451904Y-83800057D01*
X149451904Y-83800057D02*
X149499523Y-83895295D01*
X149499523Y-83895295D02*
X149499523Y-83990533D01*
X149499523Y-83990533D02*
X149451904Y-84133390D01*
X149451904Y-84133390D02*
X148880476Y-84704819D01*
X148880476Y-84704819D02*
X149499523Y-84704819D01*
X161874819Y-103373333D02*
X162589104Y-103373333D01*
X162589104Y-103373333D02*
X162731961Y-103420952D01*
X162731961Y-103420952D02*
X162827200Y-103516190D01*
X162827200Y-103516190D02*
X162874819Y-103659047D01*
X162874819Y-103659047D02*
X162874819Y-103754285D01*
X162874819Y-102373333D02*
X162874819Y-102944761D01*
X162874819Y-102659047D02*
X161874819Y-102659047D01*
X161874819Y-102659047D02*
X162017676Y-102754285D01*
X162017676Y-102754285D02*
X162112914Y-102849523D01*
X162112914Y-102849523D02*
X162160533Y-102944761D01*
X160053809Y-106498628D02*
X160053809Y-106974819D01*
X159720476Y-105974819D02*
X160053809Y-106498628D01*
X160053809Y-106498628D02*
X160387142Y-105974819D01*
X161244285Y-106974819D02*
X160672857Y-106974819D01*
X160958571Y-106974819D02*
X160958571Y-105974819D01*
X160958571Y-105974819D02*
X160863333Y-106117676D01*
X160863333Y-106117676D02*
X160768095Y-106212914D01*
X160768095Y-106212914D02*
X160672857Y-106260533D01*
X167366667Y-91837200D02*
X167509524Y-91884819D01*
X167509524Y-91884819D02*
X167747619Y-91884819D01*
X167747619Y-91884819D02*
X167842857Y-91837200D01*
X167842857Y-91837200D02*
X167890476Y-91789580D01*
X167890476Y-91789580D02*
X167938095Y-91694342D01*
X167938095Y-91694342D02*
X167938095Y-91599104D01*
X167938095Y-91599104D02*
X167890476Y-91503866D01*
X167890476Y-91503866D02*
X167842857Y-91456247D01*
X167842857Y-91456247D02*
X167747619Y-91408628D01*
X167747619Y-91408628D02*
X167557143Y-91361009D01*
X167557143Y-91361009D02*
X167461905Y-91313390D01*
X167461905Y-91313390D02*
X167414286Y-91265771D01*
X167414286Y-91265771D02*
X167366667Y-91170533D01*
X167366667Y-91170533D02*
X167366667Y-91075295D01*
X167366667Y-91075295D02*
X167414286Y-90980057D01*
X167414286Y-90980057D02*
X167461905Y-90932438D01*
X167461905Y-90932438D02*
X167557143Y-90884819D01*
X167557143Y-90884819D02*
X167795238Y-90884819D01*
X167795238Y-90884819D02*
X167938095Y-90932438D01*
X168271429Y-90884819D02*
X168509524Y-91884819D01*
X168509524Y-91884819D02*
X168700000Y-91170533D01*
X168700000Y-91170533D02*
X168890476Y-91884819D01*
X168890476Y-91884819D02*
X169128572Y-90884819D01*
X170033333Y-91884819D02*
X169461905Y-91884819D01*
X169747619Y-91884819D02*
X169747619Y-90884819D01*
X169747619Y-90884819D02*
X169652381Y-91027676D01*
X169652381Y-91027676D02*
X169557143Y-91122914D01*
X169557143Y-91122914D02*
X169461905Y-91170533D01*
X152988095Y-84734819D02*
X152988095Y-85544342D01*
X152988095Y-85544342D02*
X153035714Y-85639580D01*
X153035714Y-85639580D02*
X153083333Y-85687200D01*
X153083333Y-85687200D02*
X153178571Y-85734819D01*
X153178571Y-85734819D02*
X153369047Y-85734819D01*
X153369047Y-85734819D02*
X153464285Y-85687200D01*
X153464285Y-85687200D02*
X153511904Y-85639580D01*
X153511904Y-85639580D02*
X153559523Y-85544342D01*
X153559523Y-85544342D02*
X153559523Y-84734819D01*
X154559523Y-85734819D02*
X153988095Y-85734819D01*
X154273809Y-85734819D02*
X154273809Y-84734819D01*
X154273809Y-84734819D02*
X154178571Y-84877676D01*
X154178571Y-84877676D02*
X154083333Y-84972914D01*
X154083333Y-84972914D02*
X153988095Y-85020533D01*
X138483333Y-98264819D02*
X138150000Y-97788628D01*
X137911905Y-98264819D02*
X137911905Y-97264819D01*
X137911905Y-97264819D02*
X138292857Y-97264819D01*
X138292857Y-97264819D02*
X138388095Y-97312438D01*
X138388095Y-97312438D02*
X138435714Y-97360057D01*
X138435714Y-97360057D02*
X138483333Y-97455295D01*
X138483333Y-97455295D02*
X138483333Y-97598152D01*
X138483333Y-97598152D02*
X138435714Y-97693390D01*
X138435714Y-97693390D02*
X138388095Y-97741009D01*
X138388095Y-97741009D02*
X138292857Y-97788628D01*
X138292857Y-97788628D02*
X137911905Y-97788628D01*
X138816667Y-97264819D02*
X139435714Y-97264819D01*
X139435714Y-97264819D02*
X139102381Y-97645771D01*
X139102381Y-97645771D02*
X139245238Y-97645771D01*
X139245238Y-97645771D02*
X139340476Y-97693390D01*
X139340476Y-97693390D02*
X139388095Y-97741009D01*
X139388095Y-97741009D02*
X139435714Y-97836247D01*
X139435714Y-97836247D02*
X139435714Y-98074342D01*
X139435714Y-98074342D02*
X139388095Y-98169580D01*
X139388095Y-98169580D02*
X139340476Y-98217200D01*
X139340476Y-98217200D02*
X139245238Y-98264819D01*
X139245238Y-98264819D02*
X138959524Y-98264819D01*
X138959524Y-98264819D02*
X138864286Y-98217200D01*
X138864286Y-98217200D02*
X138816667Y-98169580D01*
X159303333Y-100999580D02*
X159255714Y-101047200D01*
X159255714Y-101047200D02*
X159112857Y-101094819D01*
X159112857Y-101094819D02*
X159017619Y-101094819D01*
X159017619Y-101094819D02*
X158874762Y-101047200D01*
X158874762Y-101047200D02*
X158779524Y-100951961D01*
X158779524Y-100951961D02*
X158731905Y-100856723D01*
X158731905Y-100856723D02*
X158684286Y-100666247D01*
X158684286Y-100666247D02*
X158684286Y-100523390D01*
X158684286Y-100523390D02*
X158731905Y-100332914D01*
X158731905Y-100332914D02*
X158779524Y-100237676D01*
X158779524Y-100237676D02*
X158874762Y-100142438D01*
X158874762Y-100142438D02*
X159017619Y-100094819D01*
X159017619Y-100094819D02*
X159112857Y-100094819D01*
X159112857Y-100094819D02*
X159255714Y-100142438D01*
X159255714Y-100142438D02*
X159303333Y-100190057D01*
X159684286Y-100190057D02*
X159731905Y-100142438D01*
X159731905Y-100142438D02*
X159827143Y-100094819D01*
X159827143Y-100094819D02*
X160065238Y-100094819D01*
X160065238Y-100094819D02*
X160160476Y-100142438D01*
X160160476Y-100142438D02*
X160208095Y-100190057D01*
X160208095Y-100190057D02*
X160255714Y-100285295D01*
X160255714Y-100285295D02*
X160255714Y-100380533D01*
X160255714Y-100380533D02*
X160208095Y-100523390D01*
X160208095Y-100523390D02*
X159636667Y-101094819D01*
X159636667Y-101094819D02*
X160255714Y-101094819D01*
X145484819Y-95333333D02*
X146199104Y-95333333D01*
X146199104Y-95333333D02*
X146341961Y-95380952D01*
X146341961Y-95380952D02*
X146437200Y-95476190D01*
X146437200Y-95476190D02*
X146484819Y-95619047D01*
X146484819Y-95619047D02*
X146484819Y-95714285D01*
X145580057Y-94904761D02*
X145532438Y-94857142D01*
X145532438Y-94857142D02*
X145484819Y-94761904D01*
X145484819Y-94761904D02*
X145484819Y-94523809D01*
X145484819Y-94523809D02*
X145532438Y-94428571D01*
X145532438Y-94428571D02*
X145580057Y-94380952D01*
X145580057Y-94380952D02*
X145675295Y-94333333D01*
X145675295Y-94333333D02*
X145770533Y-94333333D01*
X145770533Y-94333333D02*
X145913390Y-94380952D01*
X145913390Y-94380952D02*
X146484819Y-94952380D01*
X146484819Y-94952380D02*
X146484819Y-94333333D01*
X146943333Y-101739580D02*
X146895714Y-101787200D01*
X146895714Y-101787200D02*
X146752857Y-101834819D01*
X146752857Y-101834819D02*
X146657619Y-101834819D01*
X146657619Y-101834819D02*
X146514762Y-101787200D01*
X146514762Y-101787200D02*
X146419524Y-101691961D01*
X146419524Y-101691961D02*
X146371905Y-101596723D01*
X146371905Y-101596723D02*
X146324286Y-101406247D01*
X146324286Y-101406247D02*
X146324286Y-101263390D01*
X146324286Y-101263390D02*
X146371905Y-101072914D01*
X146371905Y-101072914D02*
X146419524Y-100977676D01*
X146419524Y-100977676D02*
X146514762Y-100882438D01*
X146514762Y-100882438D02*
X146657619Y-100834819D01*
X146657619Y-100834819D02*
X146752857Y-100834819D01*
X146752857Y-100834819D02*
X146895714Y-100882438D01*
X146895714Y-100882438D02*
X146943333Y-100930057D01*
X147895714Y-101834819D02*
X147324286Y-101834819D01*
X147610000Y-101834819D02*
X147610000Y-100834819D01*
X147610000Y-100834819D02*
X147514762Y-100977676D01*
X147514762Y-100977676D02*
X147419524Y-101072914D01*
X147419524Y-101072914D02*
X147324286Y-101120533D01*
X140326905Y-109254819D02*
X140326905Y-108254819D01*
X140326905Y-108254819D02*
X140565000Y-108254819D01*
X140565000Y-108254819D02*
X140707857Y-108302438D01*
X140707857Y-108302438D02*
X140803095Y-108397676D01*
X140803095Y-108397676D02*
X140850714Y-108492914D01*
X140850714Y-108492914D02*
X140898333Y-108683390D01*
X140898333Y-108683390D02*
X140898333Y-108826247D01*
X140898333Y-108826247D02*
X140850714Y-109016723D01*
X140850714Y-109016723D02*
X140803095Y-109111961D01*
X140803095Y-109111961D02*
X140707857Y-109207200D01*
X140707857Y-109207200D02*
X140565000Y-109254819D01*
X140565000Y-109254819D02*
X140326905Y-109254819D01*
X141850714Y-109254819D02*
X141279286Y-109254819D01*
X141565000Y-109254819D02*
X141565000Y-108254819D01*
X141565000Y-108254819D02*
X141469762Y-108397676D01*
X141469762Y-108397676D02*
X141374524Y-108492914D01*
X141374524Y-108492914D02*
X141279286Y-108540533D01*
X163644819Y-77816666D02*
X163168628Y-78149999D01*
X163644819Y-78388094D02*
X162644819Y-78388094D01*
X162644819Y-78388094D02*
X162644819Y-78007142D01*
X162644819Y-78007142D02*
X162692438Y-77911904D01*
X162692438Y-77911904D02*
X162740057Y-77864285D01*
X162740057Y-77864285D02*
X162835295Y-77816666D01*
X162835295Y-77816666D02*
X162978152Y-77816666D01*
X162978152Y-77816666D02*
X163073390Y-77864285D01*
X163073390Y-77864285D02*
X163121009Y-77911904D01*
X163121009Y-77911904D02*
X163168628Y-78007142D01*
X163168628Y-78007142D02*
X163168628Y-78388094D01*
X162740057Y-77435713D02*
X162692438Y-77388094D01*
X162692438Y-77388094D02*
X162644819Y-77292856D01*
X162644819Y-77292856D02*
X162644819Y-77054761D01*
X162644819Y-77054761D02*
X162692438Y-76959523D01*
X162692438Y-76959523D02*
X162740057Y-76911904D01*
X162740057Y-76911904D02*
X162835295Y-76864285D01*
X162835295Y-76864285D02*
X162930533Y-76864285D01*
X162930533Y-76864285D02*
X163073390Y-76911904D01*
X163073390Y-76911904D02*
X163644819Y-77483332D01*
X163644819Y-77483332D02*
X163644819Y-76864285D01*
X160994819Y-77736666D02*
X160518628Y-78069999D01*
X160994819Y-78308094D02*
X159994819Y-78308094D01*
X159994819Y-78308094D02*
X159994819Y-77927142D01*
X159994819Y-77927142D02*
X160042438Y-77831904D01*
X160042438Y-77831904D02*
X160090057Y-77784285D01*
X160090057Y-77784285D02*
X160185295Y-77736666D01*
X160185295Y-77736666D02*
X160328152Y-77736666D01*
X160328152Y-77736666D02*
X160423390Y-77784285D01*
X160423390Y-77784285D02*
X160471009Y-77831904D01*
X160471009Y-77831904D02*
X160518628Y-77927142D01*
X160518628Y-77927142D02*
X160518628Y-78308094D01*
X160994819Y-76784285D02*
X160994819Y-77355713D01*
X160994819Y-77069999D02*
X159994819Y-77069999D01*
X159994819Y-77069999D02*
X160137676Y-77165237D01*
X160137676Y-77165237D02*
X160232914Y-77260475D01*
X160232914Y-77260475D02*
X160280533Y-77355713D01*
D11*
%TO.C,U2*%
X147880000Y-78560000D02*
X147880000Y-83201000D01*
X147880000Y-78560000D02*
X158120000Y-78560000D01*
X147880000Y-80070000D02*
X158120000Y-80070000D01*
X147880000Y-83201000D02*
X158120000Y-83201000D01*
X151150000Y-78560000D02*
X151150000Y-80070000D01*
X154851000Y-78560000D02*
X154851000Y-80070000D01*
X158120000Y-78560000D02*
X158120000Y-83201000D01*
%TO.C,J1*%
X174732500Y-103605000D02*
X174732500Y-102605000D01*
X174732500Y-102605000D02*
X173732500Y-103105000D01*
X173732500Y-103105000D02*
X174732500Y-103605000D01*
X173342500Y-108315000D02*
X164222500Y-108315000D01*
X173342500Y-102615000D02*
X172032500Y-102615000D01*
X173342500Y-92815000D02*
X173342500Y-108315000D01*
X172032500Y-107015000D02*
X165532500Y-107015000D01*
X172032500Y-102615000D02*
X172032500Y-107015000D01*
X172032500Y-98515000D02*
X173342500Y-98515000D01*
X172032500Y-98515000D02*
X172032500Y-98515000D01*
X172032500Y-94115000D02*
X172032500Y-98515000D01*
X165532500Y-107015000D02*
X165532500Y-94115000D01*
X165532500Y-94115000D02*
X172032500Y-94115000D01*
X164222500Y-108315000D02*
X164222500Y-92815000D01*
X164222500Y-92815000D02*
X173342500Y-92815000D01*
%TO.C,Y1*%
X156615000Y-108925000D02*
X150365000Y-108925000D01*
X156615000Y-103875000D02*
X150365000Y-103875000D01*
X156615000Y-108925000D02*
G75*
G03*
X156615000Y-103875000I0J2525000D01*
G01*
X150365000Y-103875000D02*
G75*
G03*
X150365000Y-108925000I0J-2525000D01*
G01*
%TO.C,SW1*%
X166610000Y-89950000D02*
X168230000Y-89950000D01*
X166610000Y-89950000D02*
X166610000Y-88090000D01*
X168230000Y-89950000D02*
X168230000Y-88090000D01*
X169150000Y-89950000D02*
X170770000Y-89950000D01*
X169150000Y-89950000D02*
X169150000Y-88090000D01*
X170770000Y-89950000D02*
X170770000Y-88090000D01*
X165070000Y-88330000D02*
X166453000Y-88330000D01*
X165070000Y-88330000D02*
X165070000Y-86947000D01*
X165310000Y-88090000D02*
X172070000Y-88090000D01*
X165310000Y-88090000D02*
X165310000Y-77170000D01*
X166610000Y-88090000D02*
X168230000Y-88090000D01*
X169150000Y-88090000D02*
X170770000Y-88090000D01*
X172070000Y-88090000D02*
X172070000Y-77170000D01*
X165310000Y-77170000D02*
X172070000Y-77170000D01*
D10*
%TO.C,U1*%
X150125000Y-87705000D02*
X150125000Y-87930000D01*
X150125000Y-87705000D02*
X150450000Y-87705000D01*
X150125000Y-87930000D02*
X148700000Y-87930000D01*
X150125000Y-94955000D02*
X150125000Y-94630000D01*
X150125000Y-94955000D02*
X150450000Y-94955000D01*
X157375000Y-87705000D02*
X157050000Y-87705000D01*
X157375000Y-87705000D02*
X157375000Y-88030000D01*
X157375000Y-94955000D02*
X157050000Y-94955000D01*
X157375000Y-94955000D02*
X157375000Y-94630000D01*
D11*
%TO.C,R3*%
X139570000Y-99860000D02*
X142730000Y-99860000D01*
X139570000Y-99860000D02*
G75*
G03*
X139570000Y-99860000I-920000J0D01*
G01*
%TO.C,C2*%
X156619000Y-101740000D02*
X155361000Y-101740000D01*
X156619000Y-99900000D02*
X155361000Y-99900000D01*
%TO.C,J2*%
X135845000Y-76540000D02*
X135845000Y-90540000D01*
X145735000Y-90540000D02*
X145735000Y-76540000D01*
X144530000Y-90540000D02*
X145735000Y-90540000D01*
X137050000Y-90540000D02*
X137050000Y-96310000D01*
X135845000Y-90540000D02*
X137050000Y-90540000D01*
X144530000Y-96310000D02*
X144530000Y-90540000D01*
X137050000Y-96310000D02*
X144530000Y-96310000D01*
%TO.C,C1*%
X151339000Y-101870000D02*
X150081000Y-101870000D01*
X151339000Y-100030000D02*
X150081000Y-100030000D01*
%TO.C,D1*%
X142625000Y-107076000D02*
X142625000Y-106920000D01*
X142625000Y-104760000D02*
X142625000Y-104604000D01*
X139392666Y-106918608D02*
G75*
G03*
X142624999Y-107075515I1672334J1078608D01*
G01*
X140023871Y-106919836D02*
G75*
G03*
X142105960Y-106919999I1041129J1079836D01*
G01*
X142105960Y-104760001D02*
G75*
G03*
X140023871Y-104760164I-1040960J-1079999D01*
G01*
X142624999Y-104604485D02*
G75*
G03*
X139392666Y-104761392I-1559999J-1235515D01*
G01*
%TO.C,R2*%
X163220000Y-80630000D02*
X163220000Y-83790000D01*
X164140000Y-79710000D02*
G75*
G03*
X164140000Y-79710000I-920000J0D01*
G01*
%TO.C,R1*%
X160420000Y-83840000D02*
X160420000Y-80680000D01*
X161340000Y-84760000D02*
G75*
G03*
X161340000Y-84760000I-920000J0D01*
G01*
%TD*%
M02*
