%TF.GenerationSoftware,KiCad,Pcbnew,6.0.11+dfsg-1~bpo11+1*%
%TF.CreationDate,2023-08-17T01:34:46-07:00*%
%TF.ProjectId,electrical_intro_project,656c6563-7472-4696-9361-6c5f696e7472,rev?*%
%TF.SameCoordinates,Original*%
%TF.FileFunction,Copper,L1,Top*%
%TF.FilePolarity,Positive*%
%FSLAX46Y46*%
G04 Gerber Fmt 4.6, Leading zero omitted, Abs format (unit mm)*
G04 Created by KiCad (PCBNEW 6.0.11+dfsg-1~bpo11+1) date 2023-08-17 01:34:46*
%MOMM*%
%LPD*%
G01*
G04 APERTURE LIST*
G04 Aperture macros list*
%AMRoundRect*
0 Rectangle with rounded corners*
0 $1 Rounding radius*
0 $2 $3 $4 $5 $6 $7 $8 $9 X,Y pos of 4 corners*
0 Add a 4 corners polygon primitive as box body*
4,1,4,$2,$3,$4,$5,$6,$7,$8,$9,$2,$3,0*
0 Add four circle primitives for the rounded corners*
1,1,$1+$1,$2,$3*
1,1,$1+$1,$4,$5*
1,1,$1+$1,$6,$7*
1,1,$1+$1,$8,$9*
0 Add four rect primitives between the rounded corners*
20,1,$1+$1,$2,$3,$4,$5,0*
20,1,$1+$1,$4,$5,$6,$7,0*
20,1,$1+$1,$6,$7,$8,$9,0*
20,1,$1+$1,$8,$9,$2,$3,0*%
G04 Aperture macros list end*
%TA.AperFunction,ComponentPad*%
%ADD10C,1.500000*%
%TD*%
%TA.AperFunction,SMDPad,CuDef*%
%ADD11R,0.550000X1.600000*%
%TD*%
%TA.AperFunction,SMDPad,CuDef*%
%ADD12R,1.600000X0.550000*%
%TD*%
%TA.AperFunction,ComponentPad*%
%ADD13C,2.000000*%
%TD*%
%TA.AperFunction,SMDPad,CuDef*%
%ADD14RoundRect,0.237500X-0.250000X-0.237500X0.250000X-0.237500X0.250000X0.237500X-0.250000X0.237500X0*%
%TD*%
%TA.AperFunction,SMDPad,CuDef*%
%ADD15RoundRect,0.237500X0.237500X-0.250000X0.237500X0.250000X-0.237500X0.250000X-0.237500X-0.250000X0*%
%TD*%
%TA.AperFunction,ComponentPad*%
%ADD16R,1.700000X1.700000*%
%TD*%
%TA.AperFunction,ComponentPad*%
%ADD17O,1.700000X1.700000*%
%TD*%
%TA.AperFunction,SMDPad,CuDef*%
%ADD18RoundRect,0.250001X-0.462499X-0.624999X0.462499X-0.624999X0.462499X0.624999X-0.462499X0.624999X0*%
%TD*%
%TA.AperFunction,SMDPad,CuDef*%
%ADD19RoundRect,0.100000X-0.100000X0.217500X-0.100000X-0.217500X0.100000X-0.217500X0.100000X0.217500X0*%
%TD*%
%TA.AperFunction,SMDPad,CuDef*%
%ADD20RoundRect,0.100000X0.217500X0.100000X-0.217500X0.100000X-0.217500X-0.100000X0.217500X-0.100000X0*%
%TD*%
%TA.AperFunction,SMDPad,CuDef*%
%ADD21RoundRect,0.100000X0.100000X-0.217500X0.100000X0.217500X-0.100000X0.217500X-0.100000X-0.217500X0*%
%TD*%
%TA.AperFunction,ViaPad*%
%ADD22C,0.800000*%
%TD*%
%TA.AperFunction,Conductor*%
%ADD23C,0.250000*%
%TD*%
%TA.AperFunction,Conductor*%
%ADD24C,0.500000*%
%TD*%
G04 APERTURE END LIST*
D10*
%TO.P,Y1,2,2*%
%TO.N,XTAL2*%
X117250000Y-105430000D03*
%TO.P,Y1,1,1*%
%TO.N,XTAL1*%
X117250000Y-100550000D03*
%TD*%
D11*
%TO.P,U1,32,PD2*%
%TO.N,unconnected-(U1-Pad32)*%
X124550000Y-99420000D03*
%TO.P,U1,31,PD1*%
%TO.N,unconnected-(U1-Pad31)*%
X125350000Y-99420000D03*
%TO.P,U1,30,PD0*%
%TO.N,unconnected-(U1-Pad30)*%
X126150000Y-99420000D03*
%TO.P,U1,29,~{RESET}/PC6*%
%TO.N,RST*%
X126950000Y-99420000D03*
%TO.P,U1,28,PC5*%
%TO.N,unconnected-(U1-Pad28)*%
X127750000Y-99420000D03*
%TO.P,U1,27,PC4*%
%TO.N,unconnected-(U1-Pad27)*%
X128550000Y-99420000D03*
%TO.P,U1,26,PC3*%
%TO.N,unconnected-(U1-Pad26)*%
X129350000Y-99420000D03*
%TO.P,U1,25,PC2*%
%TO.N,unconnected-(U1-Pad25)*%
X130150000Y-99420000D03*
D12*
%TO.P,U1,24,PC1*%
%TO.N,led_pin*%
X131600000Y-100870000D03*
%TO.P,U1,23,PC0*%
%TO.N,button_pin*%
X131600000Y-101670000D03*
%TO.P,U1,22,ADC7*%
%TO.N,unconnected-(U1-Pad22)*%
X131600000Y-102470000D03*
%TO.P,U1,21,GND*%
%TO.N,GND*%
X131600000Y-103270000D03*
%TO.P,U1,20,AREF*%
%TO.N,+5V*%
X131600000Y-104070000D03*
%TO.P,U1,19,ADC6*%
%TO.N,unconnected-(U1-Pad19)*%
X131600000Y-104870000D03*
%TO.P,U1,18,AVCC*%
%TO.N,+5V*%
X131600000Y-105670000D03*
%TO.P,U1,17,PB5*%
%TO.N,SCK*%
X131600000Y-106470000D03*
D11*
%TO.P,U1,16,PB4*%
%TO.N,MISO*%
X130150000Y-107920000D03*
%TO.P,U1,15,PB3*%
%TO.N,MOSI*%
X129350000Y-107920000D03*
%TO.P,U1,14,PB2*%
%TO.N,unconnected-(U1-Pad14)*%
X128550000Y-107920000D03*
%TO.P,U1,13,PB1*%
%TO.N,unconnected-(U1-Pad13)*%
X127750000Y-107920000D03*
%TO.P,U1,12,PB0*%
%TO.N,unconnected-(U1-Pad12)*%
X126950000Y-107920000D03*
%TO.P,U1,11,PD7*%
%TO.N,unconnected-(U1-Pad11)*%
X126150000Y-107920000D03*
%TO.P,U1,10,PD6*%
%TO.N,unconnected-(U1-Pad10)*%
X125350000Y-107920000D03*
%TO.P,U1,9,PD5*%
%TO.N,unconnected-(U1-Pad9)*%
X124550000Y-107920000D03*
D12*
%TO.P,U1,8,XTAL2/PB7*%
%TO.N,XTAL2*%
X123100000Y-106470000D03*
%TO.P,U1,7,XTAL1/PB6*%
%TO.N,XTAL1*%
X123100000Y-105670000D03*
%TO.P,U1,6,VCC*%
%TO.N,+5V*%
X123100000Y-104870000D03*
%TO.P,U1,5,GND*%
%TO.N,GND*%
X123100000Y-104070000D03*
%TO.P,U1,4,VCC*%
%TO.N,+5V*%
X123100000Y-103270000D03*
%TO.P,U1,3,GND*%
%TO.N,GND*%
X123100000Y-102470000D03*
%TO.P,U1,2,PD4*%
%TO.N,unconnected-(U1-Pad2)*%
X123100000Y-101670000D03*
%TO.P,U1,1,PD3*%
%TO.N,unconnected-(U1-Pad1)*%
X123100000Y-100870000D03*
%TD*%
D13*
%TO.P,SW1,1,1*%
%TO.N,+5V*%
X127000000Y-116750000D03*
X133500000Y-116750000D03*
%TO.P,SW1,2,2*%
%TO.N,button_pin*%
X133500000Y-112250000D03*
X127000000Y-112250000D03*
%TD*%
D14*
%TO.P,R3,1*%
%TO.N,RST*%
X117887500Y-110800000D03*
%TO.P,R3,2*%
%TO.N,+5V*%
X119712500Y-110800000D03*
%TD*%
D15*
%TO.P,R2,1*%
%TO.N,GND*%
X134500000Y-108325000D03*
%TO.P,R2,2*%
%TO.N,button_pin*%
X134500000Y-106500000D03*
%TD*%
D14*
%TO.P,R1,1*%
%TO.N,GND*%
X122837500Y-96750000D03*
%TO.P,R1,2*%
%TO.N,Net-(R1-Pad2)*%
X124662500Y-96750000D03*
%TD*%
D16*
%TO.P,J1,1,MISO*%
%TO.N,MISO*%
X122790000Y-113960000D03*
D17*
%TO.P,J1,2,VCC*%
%TO.N,+5V*%
X122790000Y-116500000D03*
%TO.P,J1,3,SCK*%
%TO.N,SCK*%
X120250000Y-113960000D03*
%TO.P,J1,4,MOSI*%
%TO.N,MOSI*%
X120250000Y-116500000D03*
%TO.P,J1,5,~{RST}*%
%TO.N,RST*%
X117710000Y-113960000D03*
%TO.P,J1,6,GND*%
%TO.N,GND*%
X117710000Y-116500000D03*
%TD*%
D18*
%TO.P,D1,1,K*%
%TO.N,Net-(R1-Pad2)*%
X128762500Y-96750000D03*
%TO.P,D1,2,A*%
%TO.N,led_pin*%
X131737500Y-96750000D03*
%TD*%
D19*
%TO.P,C3,1*%
%TO.N,XTAL2*%
X115100000Y-110492500D03*
%TO.P,C3,2*%
%TO.N,GND*%
X115100000Y-111307500D03*
%TD*%
D20*
%TO.P,C2,1*%
%TO.N,GND*%
X118207500Y-95900000D03*
%TO.P,C2,2*%
%TO.N,XTAL1*%
X117392500Y-95900000D03*
%TD*%
D21*
%TO.P,C1,1*%
%TO.N,+5V*%
X133200000Y-104107500D03*
%TO.P,C1,2*%
%TO.N,GND*%
X133200000Y-103292500D03*
%TD*%
D22*
%TO.N,RST*%
X126000000Y-102000000D03*
X118000000Y-109000000D03*
%TO.N,+5V*%
X133250000Y-106250000D03*
X121000000Y-109500000D03*
X129000000Y-104000000D03*
X125500000Y-103250000D03*
%TO.N,SCK*%
X131300000Y-108100000D03*
%TD*%
D23*
%TO.N,RST*%
X117887500Y-110800000D02*
X117887500Y-109112500D01*
X117887500Y-109112500D02*
X118000000Y-109000000D01*
X126000000Y-102000000D02*
X126950000Y-101050000D01*
X126950000Y-101050000D02*
X126950000Y-99420000D01*
D24*
%TO.N,+5V*%
X132670000Y-105670000D02*
X133250000Y-106250000D01*
X131600000Y-105670000D02*
X132670000Y-105670000D01*
X119712500Y-110787500D02*
X121000000Y-109500000D01*
X119712500Y-110800000D02*
X119712500Y-110787500D01*
X133200000Y-104107500D02*
X131637500Y-104107500D01*
X131637500Y-104107500D02*
X131600000Y-104070000D01*
X131600000Y-105670000D02*
X130670000Y-105670000D01*
X130670000Y-105670000D02*
X129000000Y-104000000D01*
X129070000Y-104070000D02*
X129000000Y-104000000D01*
X131600000Y-104070000D02*
X129070000Y-104070000D01*
X123100000Y-104870000D02*
X124130000Y-104870000D01*
X124130000Y-104870000D02*
X125500000Y-103500000D01*
X125500000Y-103500000D02*
X125500000Y-103250000D01*
X125480000Y-103270000D02*
X125500000Y-103250000D01*
X123100000Y-103270000D02*
X125480000Y-103270000D01*
D23*
%TO.N,GND*%
X133200000Y-103292500D02*
X131622500Y-103292500D01*
X131622500Y-103292500D02*
X131600000Y-103270000D01*
%TO.N,XTAL1*%
X117392500Y-95900000D02*
X117250000Y-96042500D01*
X117250000Y-96042500D02*
X117250000Y-100550000D01*
%TO.N,XTAL2*%
X115100000Y-110492500D02*
X115100000Y-109660000D01*
X115100000Y-109660000D02*
X118290000Y-106470000D01*
%TO.N,XTAL1*%
X119670000Y-105670000D02*
X117200000Y-103200000D01*
X123100000Y-105670000D02*
X119670000Y-105670000D01*
X117200000Y-103200000D02*
X117250000Y-103150000D01*
X117250000Y-103150000D02*
X117250000Y-100550000D01*
%TO.N,XTAL2*%
X123100000Y-106470000D02*
X118290000Y-106470000D01*
X118290000Y-106470000D02*
X117250000Y-105430000D01*
D24*
%TO.N,Net-(R1-Pad2)*%
X128762500Y-96750000D02*
X124662500Y-96750000D01*
%TO.N,led_pin*%
X131600000Y-100870000D02*
X131600000Y-96887500D01*
X131600000Y-96887500D02*
X131737500Y-96750000D01*
D23*
%TO.N,button_pin*%
X133070000Y-101670000D02*
X134500000Y-103100000D01*
X131600000Y-101670000D02*
X133070000Y-101670000D01*
X134500000Y-103100000D02*
X134500000Y-106500000D01*
X133500000Y-112250000D02*
X133500000Y-107500000D01*
X133500000Y-107500000D02*
X134500000Y-106500000D01*
%TO.N,RST*%
X117710000Y-113960000D02*
X117710000Y-110977500D01*
X117710000Y-110977500D02*
X117887500Y-110800000D01*
%TO.N,SCK*%
X131600000Y-107800000D02*
X131300000Y-108100000D01*
X131600000Y-106470000D02*
X131600000Y-107800000D01*
%TO.N,MISO*%
X130150000Y-108750000D02*
X128800000Y-110100000D01*
X128800000Y-110100000D02*
X126650000Y-110100000D01*
X130150000Y-107920000D02*
X130150000Y-108750000D01*
X126650000Y-110100000D02*
X122790000Y-113960000D01*
%TO.N,MOSI*%
X129350000Y-108850000D02*
X128700000Y-109500000D01*
X129350000Y-107920000D02*
X129350000Y-108850000D01*
X121500000Y-115250000D02*
X120250000Y-116500000D01*
X128700000Y-109500000D02*
X124900000Y-109500000D01*
X124900000Y-109500000D02*
X121500000Y-112900000D01*
X121500000Y-112900000D02*
X121500000Y-115250000D01*
%TD*%
%TA.AperFunction,Conductor*%
%TO.N,GND*%
G36*
X134987306Y-93252883D02*
G01*
X135000000Y-93255408D01*
X135011980Y-93253025D01*
X135024191Y-93253025D01*
X135024191Y-93253654D01*
X135034803Y-93252989D01*
X135240141Y-93267675D01*
X135257640Y-93270191D01*
X135484224Y-93319482D01*
X135501197Y-93324465D01*
X135718463Y-93405501D01*
X135734556Y-93412851D01*
X135938069Y-93523978D01*
X135952952Y-93533543D01*
X136138579Y-93672501D01*
X136151950Y-93684087D01*
X136315913Y-93848050D01*
X136327499Y-93861421D01*
X136466457Y-94047048D01*
X136476022Y-94061931D01*
X136587149Y-94265444D01*
X136594499Y-94281537D01*
X136675535Y-94498803D01*
X136680518Y-94515776D01*
X136729809Y-94742360D01*
X136732326Y-94759865D01*
X136747011Y-94965195D01*
X136746346Y-94975809D01*
X136746975Y-94975809D01*
X136746975Y-94988020D01*
X136744592Y-95000000D01*
X136746975Y-95011980D01*
X136747117Y-95012694D01*
X136749500Y-95036885D01*
X136749500Y-117963115D01*
X136747117Y-117987306D01*
X136744592Y-118000000D01*
X136746975Y-118011980D01*
X136746975Y-118024191D01*
X136746346Y-118024191D01*
X136747011Y-118034805D01*
X136732326Y-118240135D01*
X136729809Y-118257640D01*
X136726737Y-118271764D01*
X136680519Y-118484222D01*
X136675535Y-118501197D01*
X136594499Y-118718463D01*
X136587149Y-118734556D01*
X136476022Y-118938069D01*
X136466457Y-118952952D01*
X136327499Y-119138579D01*
X136315913Y-119151950D01*
X136151950Y-119315913D01*
X136138579Y-119327499D01*
X135952952Y-119466457D01*
X135938069Y-119476022D01*
X135734556Y-119587149D01*
X135718463Y-119594499D01*
X135501197Y-119675535D01*
X135484224Y-119680518D01*
X135257640Y-119729809D01*
X135240141Y-119732325D01*
X135034803Y-119747011D01*
X135024191Y-119746346D01*
X135024191Y-119746975D01*
X135011980Y-119746975D01*
X135000000Y-119744592D01*
X134988020Y-119746975D01*
X134987306Y-119747117D01*
X134963115Y-119749500D01*
X115036885Y-119749500D01*
X115012694Y-119747117D01*
X115011980Y-119746975D01*
X115000000Y-119744592D01*
X114988020Y-119746975D01*
X114975809Y-119746975D01*
X114975809Y-119746346D01*
X114965197Y-119747011D01*
X114759859Y-119732325D01*
X114742360Y-119729809D01*
X114515776Y-119680518D01*
X114498803Y-119675535D01*
X114281537Y-119594499D01*
X114265444Y-119587149D01*
X114061931Y-119476022D01*
X114047048Y-119466457D01*
X113861421Y-119327499D01*
X113848050Y-119315913D01*
X113684087Y-119151950D01*
X113672501Y-119138579D01*
X113533543Y-118952952D01*
X113523978Y-118938069D01*
X113412851Y-118734556D01*
X113405501Y-118718463D01*
X113324465Y-118501197D01*
X113319481Y-118484222D01*
X113273263Y-118271764D01*
X113270191Y-118257640D01*
X113267674Y-118240135D01*
X113252989Y-118034805D01*
X113253654Y-118024191D01*
X113253025Y-118024191D01*
X113253025Y-118011980D01*
X113255408Y-118000000D01*
X113252883Y-117987306D01*
X113250500Y-117963115D01*
X113250500Y-116767748D01*
X116378208Y-116767748D01*
X116408580Y-116902517D01*
X116411618Y-116912209D01*
X116491800Y-117109675D01*
X116496374Y-117118730D01*
X116607731Y-117300448D01*
X116613725Y-117308639D01*
X116753270Y-117469734D01*
X116760515Y-117476829D01*
X116924497Y-117612969D01*
X116932813Y-117618791D01*
X117116820Y-117726317D01*
X117125976Y-117730703D01*
X117325077Y-117806732D01*
X117334816Y-117809562D01*
X117438532Y-117830663D01*
X117452357Y-117829487D01*
X117456000Y-117819301D01*
X117456000Y-116771830D01*
X117451596Y-116756831D01*
X117450226Y-116755644D01*
X117442668Y-116754000D01*
X116392940Y-116754000D01*
X116379623Y-116757910D01*
X116378208Y-116767748D01*
X113250500Y-116767748D01*
X113250500Y-111560791D01*
X114392001Y-111560791D01*
X114392531Y-111568868D01*
X114406589Y-111675659D01*
X114410761Y-111691231D01*
X114465802Y-111824112D01*
X114473862Y-111838072D01*
X114561423Y-111952183D01*
X114572817Y-111963577D01*
X114686928Y-112051138D01*
X114700888Y-112059198D01*
X114833766Y-112114238D01*
X114849343Y-112118412D01*
X114882325Y-112122754D01*
X114896281Y-112120578D01*
X114900000Y-112107627D01*
X114900000Y-112107250D01*
X115300000Y-112107250D01*
X115303980Y-112120805D01*
X115317305Y-112122802D01*
X115350659Y-112118411D01*
X115366231Y-112114239D01*
X115499112Y-112059198D01*
X115513072Y-112051138D01*
X115627183Y-111963577D01*
X115638577Y-111952183D01*
X115726138Y-111838072D01*
X115734198Y-111824112D01*
X115789238Y-111691233D01*
X115793411Y-111675658D01*
X115807471Y-111568867D01*
X115808000Y-111560794D01*
X115808000Y-111525330D01*
X115803596Y-111510331D01*
X115802226Y-111509144D01*
X115794668Y-111507500D01*
X115317830Y-111507500D01*
X115302831Y-111511904D01*
X115301644Y-111513274D01*
X115300000Y-111520832D01*
X115300000Y-112107250D01*
X114900000Y-112107250D01*
X114900000Y-111525330D01*
X114895596Y-111510331D01*
X114894226Y-111509144D01*
X114886668Y-111507500D01*
X114409831Y-111507500D01*
X114394832Y-111511904D01*
X114393645Y-111513274D01*
X114392001Y-111520832D01*
X114392001Y-111560791D01*
X113250500Y-111560791D01*
X113250500Y-111089670D01*
X114392000Y-111089670D01*
X114396404Y-111104669D01*
X114397774Y-111105856D01*
X114405332Y-111107500D01*
X115790169Y-111107500D01*
X115805168Y-111103096D01*
X115806355Y-111101726D01*
X115807999Y-111094168D01*
X115807999Y-111054209D01*
X115807469Y-111046132D01*
X115793411Y-110939341D01*
X115789239Y-110923769D01*
X115734198Y-110790888D01*
X115726138Y-110776928D01*
X115638577Y-110662817D01*
X115627183Y-110651423D01*
X115599013Y-110629807D01*
X115557810Y-110573379D01*
X115550500Y-110531432D01*
X115550500Y-110241782D01*
X115540358Y-110172888D01*
X115488932Y-110068145D01*
X115492768Y-110066262D01*
X115475500Y-110012462D01*
X115475500Y-109866899D01*
X115495185Y-109799860D01*
X115511819Y-109779218D01*
X118409218Y-106881819D01*
X118470541Y-106848334D01*
X118496899Y-106845500D01*
X121999598Y-106845500D01*
X122066637Y-106865185D01*
X122102701Y-106900611D01*
X122112613Y-106915446D01*
X122112615Y-106915448D01*
X122119399Y-106925601D01*
X122129552Y-106932385D01*
X122161558Y-106953770D01*
X122202260Y-106980966D01*
X122231383Y-106986759D01*
X122269347Y-106994311D01*
X122269350Y-106994311D01*
X122275326Y-106995500D01*
X123900500Y-106995500D01*
X123967539Y-107015185D01*
X124013294Y-107067989D01*
X124024500Y-107119500D01*
X124024500Y-108744674D01*
X124039034Y-108817740D01*
X124051929Y-108837039D01*
X124083358Y-108884076D01*
X124094399Y-108900601D01*
X124177260Y-108955966D01*
X124199878Y-108960465D01*
X124244347Y-108969311D01*
X124244350Y-108969311D01*
X124250326Y-108970500D01*
X124600261Y-108970500D01*
X124667300Y-108990185D01*
X124713055Y-109042989D01*
X124722999Y-109112147D01*
X124693974Y-109175703D01*
X124680050Y-109189419D01*
X124679066Y-109190247D01*
X124676869Y-109192094D01*
X124674979Y-109193984D01*
X124673053Y-109195751D01*
X124673000Y-109195779D01*
X124672883Y-109195652D01*
X124672326Y-109196143D01*
X124666671Y-109199194D01*
X124659711Y-109206723D01*
X124659710Y-109206724D01*
X124630447Y-109238381D01*
X124627072Y-109241891D01*
X121272161Y-112596802D01*
X121253432Y-112611929D01*
X121252398Y-112612870D01*
X121243790Y-112618428D01*
X121237448Y-112626473D01*
X121223193Y-112644555D01*
X121219280Y-112648958D01*
X121219350Y-112649017D01*
X121216043Y-112652920D01*
X121212425Y-112656538D01*
X121209451Y-112660700D01*
X121201321Y-112672077D01*
X121197830Y-112676728D01*
X121166397Y-112716600D01*
X121163395Y-112725149D01*
X121158128Y-112732519D01*
X121155191Y-112742340D01*
X121143594Y-112781118D01*
X121141788Y-112786676D01*
X121128969Y-112823181D01*
X121124977Y-112834548D01*
X121124500Y-112840055D01*
X121124500Y-112842739D01*
X121124387Y-112845341D01*
X121124365Y-112845415D01*
X121124196Y-112845408D01*
X121124150Y-112846133D01*
X121122310Y-112852287D01*
X121122712Y-112862526D01*
X121122712Y-112862529D01*
X121124404Y-112905581D01*
X121124500Y-112910449D01*
X121124500Y-112987143D01*
X121104815Y-113054182D01*
X121052011Y-113099937D01*
X120982853Y-113109881D01*
X120925631Y-113085779D01*
X120922812Y-113083174D01*
X120751757Y-112975246D01*
X120563898Y-112900298D01*
X120558317Y-112899188D01*
X120558314Y-112899187D01*
X120490373Y-112885673D01*
X120365526Y-112860839D01*
X120359839Y-112860765D01*
X120359834Y-112860764D01*
X120168975Y-112858266D01*
X120168970Y-112858266D01*
X120163286Y-112858192D01*
X120157682Y-112859155D01*
X120157681Y-112859155D01*
X119969546Y-112891482D01*
X119969543Y-112891483D01*
X119963949Y-112892444D01*
X119942660Y-112900298D01*
X119779521Y-112960483D01*
X119779519Y-112960484D01*
X119774193Y-112962449D01*
X119769310Y-112965354D01*
X119769308Y-112965355D01*
X119756223Y-112973140D01*
X119600371Y-113065862D01*
X119448305Y-113199220D01*
X119323089Y-113358057D01*
X119228914Y-113537053D01*
X119227229Y-113542479D01*
X119227228Y-113542482D01*
X119220570Y-113563926D01*
X119168937Y-113730213D01*
X119145164Y-113931069D01*
X119145535Y-113936731D01*
X119145535Y-113936735D01*
X119150851Y-114017842D01*
X119158392Y-114132894D01*
X119208178Y-114328928D01*
X119292856Y-114512607D01*
X119409588Y-114677780D01*
X119554466Y-114818913D01*
X119722637Y-114931282D01*
X119908470Y-115011122D01*
X120004502Y-115032852D01*
X120100193Y-115054505D01*
X120100195Y-115054505D01*
X120105740Y-115055760D01*
X120223135Y-115060372D01*
X120302161Y-115063477D01*
X120302163Y-115063477D01*
X120307842Y-115063700D01*
X120313462Y-115062885D01*
X120313465Y-115062885D01*
X120502387Y-115035493D01*
X120502389Y-115035493D01*
X120508007Y-115034678D01*
X120513384Y-115032853D01*
X120513387Y-115032852D01*
X120637853Y-114990601D01*
X120699531Y-114969664D01*
X120876001Y-114870837D01*
X120880367Y-114867206D01*
X120880373Y-114867202D01*
X120921210Y-114833238D01*
X120985340Y-114805504D01*
X121054283Y-114816845D01*
X121106150Y-114863659D01*
X121124500Y-114928574D01*
X121124500Y-115043101D01*
X121104815Y-115110140D01*
X121088181Y-115130782D01*
X120775177Y-115443786D01*
X120713854Y-115477271D01*
X120641547Y-115471277D01*
X120563898Y-115440298D01*
X120558317Y-115439188D01*
X120558314Y-115439187D01*
X120472989Y-115422215D01*
X120365526Y-115400839D01*
X120359839Y-115400765D01*
X120359834Y-115400764D01*
X120168975Y-115398266D01*
X120168970Y-115398266D01*
X120163286Y-115398192D01*
X120157682Y-115399155D01*
X120157681Y-115399155D01*
X119969546Y-115431482D01*
X119969543Y-115431483D01*
X119963949Y-115432444D01*
X119936941Y-115442408D01*
X119779521Y-115500483D01*
X119779517Y-115500485D01*
X119774193Y-115502449D01*
X119769310Y-115505354D01*
X119769308Y-115505355D01*
X119605262Y-115602952D01*
X119600371Y-115605862D01*
X119448305Y-115739220D01*
X119323089Y-115898057D01*
X119228914Y-116077053D01*
X119227508Y-116076313D01*
X119188346Y-116124907D01*
X119122051Y-116146969D01*
X119054353Y-116129688D01*
X119006744Y-116078549D01*
X119000245Y-116063007D01*
X118997929Y-116056203D01*
X118912940Y-115860741D01*
X118908149Y-115851805D01*
X118792378Y-115672852D01*
X118786194Y-115664822D01*
X118642751Y-115507180D01*
X118635333Y-115500263D01*
X118468076Y-115368172D01*
X118459629Y-115362560D01*
X118273037Y-115259555D01*
X118263782Y-115255396D01*
X118137862Y-115210805D01*
X118081238Y-115169872D01*
X118055734Y-115104823D01*
X118069447Y-115036312D01*
X118118023Y-114986091D01*
X118139391Y-114976501D01*
X118159531Y-114969664D01*
X118336001Y-114870837D01*
X118386811Y-114828579D01*
X118487138Y-114745137D01*
X118491505Y-114741505D01*
X118620837Y-114586001D01*
X118719664Y-114409531D01*
X118784678Y-114218007D01*
X118813700Y-114017842D01*
X118815215Y-113960000D01*
X118796708Y-113758591D01*
X118741807Y-113563926D01*
X118652351Y-113382527D01*
X118531335Y-113220467D01*
X118382812Y-113083174D01*
X118350762Y-113062952D01*
X118216569Y-112978282D01*
X118216568Y-112978281D01*
X118211757Y-112975246D01*
X118163551Y-112956014D01*
X118108579Y-112912889D01*
X118085500Y-112840841D01*
X118085500Y-111647425D01*
X118105185Y-111580386D01*
X118157989Y-111534631D01*
X118196110Y-111524150D01*
X118235644Y-111519856D01*
X118243368Y-111519017D01*
X118308450Y-111494619D01*
X118365991Y-111473049D01*
X118365994Y-111473047D01*
X118374259Y-111469949D01*
X118486116Y-111386116D01*
X118569949Y-111274259D01*
X118573047Y-111265994D01*
X118573049Y-111265991D01*
X118597557Y-111200614D01*
X118619017Y-111143368D01*
X118625500Y-111083691D01*
X118625499Y-110516310D01*
X118625499Y-110516309D01*
X118974500Y-110516309D01*
X118974501Y-111083690D01*
X118980983Y-111143368D01*
X119005381Y-111208450D01*
X119026951Y-111265991D01*
X119026953Y-111265994D01*
X119030051Y-111274259D01*
X119113884Y-111386116D01*
X119225741Y-111469949D01*
X119234006Y-111473047D01*
X119234009Y-111473049D01*
X119299386Y-111497557D01*
X119356632Y-111519017D01*
X119416309Y-111525500D01*
X119712455Y-111525500D01*
X120008690Y-111525499D01*
X120068368Y-111519017D01*
X120133450Y-111494619D01*
X120190991Y-111473049D01*
X120190994Y-111473047D01*
X120199259Y-111469949D01*
X120311116Y-111386116D01*
X120394949Y-111274259D01*
X120398047Y-111265994D01*
X120398049Y-111265991D01*
X120422557Y-111200614D01*
X120444017Y-111143368D01*
X120450500Y-111083691D01*
X120450499Y-110808675D01*
X120470183Y-110741637D01*
X120486818Y-110720995D01*
X121027227Y-110180587D01*
X121087224Y-110147398D01*
X121162967Y-110130051D01*
X121214682Y-110118207D01*
X121214684Y-110118206D01*
X121221968Y-110116538D01*
X121362625Y-110045795D01*
X121368306Y-110040943D01*
X121368309Y-110040941D01*
X121476666Y-109948395D01*
X121476667Y-109948394D01*
X121482348Y-109943542D01*
X121574224Y-109815683D01*
X121632950Y-109669598D01*
X121640561Y-109616120D01*
X121654562Y-109517744D01*
X121654562Y-109517740D01*
X121655134Y-109513723D01*
X121655278Y-109500000D01*
X121654020Y-109489606D01*
X121637262Y-109351119D01*
X121637261Y-109351115D01*
X121636363Y-109343694D01*
X121622561Y-109307168D01*
X121583354Y-109203408D01*
X121583352Y-109203405D01*
X121580710Y-109196412D01*
X121572337Y-109184229D01*
X121495768Y-109072821D01*
X121495765Y-109072818D01*
X121491531Y-109066657D01*
X121409379Y-108993462D01*
X121379559Y-108966893D01*
X121379558Y-108966892D01*
X121373976Y-108961919D01*
X121234831Y-108888245D01*
X121082128Y-108849889D01*
X121000329Y-108849461D01*
X120932158Y-108849104D01*
X120932157Y-108849104D01*
X120924684Y-108849065D01*
X120917421Y-108850809D01*
X120917418Y-108850809D01*
X120848136Y-108867443D01*
X120771588Y-108885820D01*
X120631679Y-108958032D01*
X120626048Y-108962945D01*
X120626047Y-108962945D01*
X120583570Y-109000000D01*
X120513034Y-109061533D01*
X120422501Y-109190348D01*
X120365309Y-109337039D01*
X120362707Y-109356802D01*
X120357182Y-109398767D01*
X120328915Y-109462663D01*
X120321924Y-109470262D01*
X119754005Y-110038181D01*
X119692682Y-110071666D01*
X119666324Y-110074500D01*
X119434820Y-110074501D01*
X119416310Y-110074501D01*
X119356632Y-110080983D01*
X119291550Y-110105381D01*
X119234009Y-110126951D01*
X119234006Y-110126953D01*
X119225741Y-110130051D01*
X119113884Y-110213884D01*
X119108586Y-110220953D01*
X119096311Y-110237331D01*
X119030051Y-110325741D01*
X119026953Y-110334006D01*
X119026951Y-110334009D01*
X119017917Y-110358109D01*
X118980983Y-110456632D01*
X118974500Y-110516309D01*
X118625499Y-110516309D01*
X118620119Y-110466781D01*
X118619856Y-110464356D01*
X118619017Y-110456632D01*
X118582083Y-110358109D01*
X118573049Y-110334009D01*
X118573047Y-110334006D01*
X118569949Y-110325741D01*
X118503689Y-110237331D01*
X118491414Y-110220953D01*
X118486116Y-110213884D01*
X118374259Y-110130051D01*
X118365990Y-110126951D01*
X118365988Y-110126950D01*
X118343475Y-110118511D01*
X118287611Y-110076548D01*
X118263302Y-110011043D01*
X118263000Y-110002401D01*
X118263000Y-109672335D01*
X118282685Y-109605296D01*
X118331284Y-109561558D01*
X118362625Y-109545795D01*
X118368306Y-109540943D01*
X118368309Y-109540941D01*
X118476666Y-109448395D01*
X118476667Y-109448394D01*
X118482348Y-109443542D01*
X118490587Y-109432077D01*
X118544677Y-109356802D01*
X118574224Y-109315683D01*
X118632950Y-109169598D01*
X118634793Y-109156649D01*
X118654562Y-109017744D01*
X118654562Y-109017740D01*
X118655134Y-109013723D01*
X118655278Y-109000000D01*
X118650494Y-108960465D01*
X118637262Y-108851119D01*
X118637261Y-108851115D01*
X118636363Y-108843694D01*
X118596644Y-108738579D01*
X118583354Y-108703408D01*
X118583352Y-108703405D01*
X118580710Y-108696412D01*
X118545922Y-108645795D01*
X118495768Y-108572821D01*
X118495765Y-108572818D01*
X118491531Y-108566657D01*
X118373976Y-108461919D01*
X118234831Y-108388245D01*
X118082128Y-108349889D01*
X118000329Y-108349461D01*
X117932158Y-108349104D01*
X117932157Y-108349104D01*
X117924684Y-108349065D01*
X117917421Y-108350809D01*
X117917418Y-108350809D01*
X117848136Y-108367443D01*
X117771588Y-108385820D01*
X117631679Y-108458032D01*
X117513034Y-108561533D01*
X117422501Y-108690348D01*
X117365309Y-108837039D01*
X117344758Y-108993138D01*
X117345578Y-109000566D01*
X117345578Y-109000568D01*
X117351766Y-109056620D01*
X117362035Y-109149633D01*
X117364601Y-109156645D01*
X117364602Y-109156649D01*
X117379484Y-109197314D01*
X117416143Y-109297490D01*
X117420314Y-109303697D01*
X117490921Y-109408771D01*
X117512000Y-109477932D01*
X117512000Y-110002401D01*
X117492315Y-110069440D01*
X117439511Y-110115195D01*
X117431525Y-110118511D01*
X117409012Y-110126950D01*
X117409010Y-110126951D01*
X117400741Y-110130051D01*
X117288884Y-110213884D01*
X117283586Y-110220953D01*
X117271311Y-110237331D01*
X117205051Y-110325741D01*
X117201953Y-110334006D01*
X117201951Y-110334009D01*
X117192917Y-110358109D01*
X117155983Y-110456632D01*
X117149500Y-110516309D01*
X117149501Y-111083690D01*
X117155983Y-111143368D01*
X117180381Y-111208450D01*
X117201951Y-111265991D01*
X117201953Y-111265994D01*
X117205051Y-111274259D01*
X117288884Y-111386116D01*
X117295950Y-111391412D01*
X117298183Y-111393645D01*
X117331667Y-111454969D01*
X117334500Y-111481324D01*
X117334500Y-112839021D01*
X117314815Y-112906060D01*
X117262011Y-112951815D01*
X117253432Y-112955351D01*
X117234193Y-112962449D01*
X117229310Y-112965354D01*
X117229306Y-112965356D01*
X117082928Y-113052442D01*
X117060371Y-113065862D01*
X116908305Y-113199220D01*
X116783089Y-113358057D01*
X116688914Y-113537053D01*
X116687229Y-113542479D01*
X116687228Y-113542482D01*
X116680570Y-113563926D01*
X116628937Y-113730213D01*
X116605164Y-113931069D01*
X116605535Y-113936731D01*
X116605535Y-113936735D01*
X116610851Y-114017842D01*
X116618392Y-114132894D01*
X116668178Y-114328928D01*
X116752856Y-114512607D01*
X116869588Y-114677780D01*
X117014466Y-114818913D01*
X117182637Y-114931282D01*
X117293580Y-114978947D01*
X117347404Y-115023495D01*
X117368599Y-115090072D01*
X117350436Y-115157540D01*
X117298680Y-115204477D01*
X117283155Y-115210740D01*
X117186785Y-115242239D01*
X117177436Y-115246169D01*
X116988389Y-115344580D01*
X116979804Y-115349987D01*
X116809368Y-115477954D01*
X116801780Y-115484691D01*
X116654532Y-115638778D01*
X116648153Y-115646655D01*
X116528050Y-115822719D01*
X116523035Y-115831547D01*
X116433301Y-116024864D01*
X116429799Y-116034382D01*
X116374338Y-116234366D01*
X116375838Y-116242660D01*
X116388025Y-116246000D01*
X117840000Y-116246000D01*
X117907039Y-116265685D01*
X117952794Y-116318489D01*
X117964000Y-116370000D01*
X117964000Y-117818802D01*
X117968001Y-117832427D01*
X117981200Y-117834429D01*
X117988269Y-117833523D01*
X117998182Y-117831416D01*
X118202332Y-117770168D01*
X118211768Y-117766470D01*
X118403168Y-117672703D01*
X118411877Y-117667512D01*
X118585402Y-117543739D01*
X118593135Y-117537203D01*
X118744103Y-117386760D01*
X118750687Y-117379024D01*
X118875050Y-117205955D01*
X118880278Y-117197254D01*
X118974707Y-117006193D01*
X118978444Y-116996754D01*
X118998343Y-116931259D01*
X119036666Y-116872837D01*
X119100490Y-116844408D01*
X119169553Y-116854999D01*
X119221926Y-116901246D01*
X119229597Y-116915392D01*
X119290473Y-117047440D01*
X119290478Y-117047448D01*
X119292856Y-117052607D01*
X119409588Y-117217780D01*
X119554466Y-117358913D01*
X119722637Y-117471282D01*
X119908470Y-117551122D01*
X119950825Y-117560706D01*
X120100193Y-117594505D01*
X120100195Y-117594505D01*
X120105740Y-117595760D01*
X120223135Y-117600372D01*
X120302161Y-117603477D01*
X120302163Y-117603477D01*
X120307842Y-117603700D01*
X120313462Y-117602885D01*
X120313465Y-117602885D01*
X120502387Y-117575493D01*
X120502389Y-117575493D01*
X120508007Y-117574678D01*
X120513384Y-117572853D01*
X120513387Y-117572852D01*
X120618404Y-117537203D01*
X120699531Y-117509664D01*
X120876001Y-117410837D01*
X120938433Y-117358913D01*
X121027138Y-117285137D01*
X121031505Y-117281505D01*
X121160837Y-117126001D01*
X121259664Y-116949531D01*
X121319986Y-116771830D01*
X121322852Y-116763387D01*
X121322853Y-116763384D01*
X121324678Y-116758007D01*
X121353700Y-116557842D01*
X121355215Y-116500000D01*
X121352557Y-116471069D01*
X121685164Y-116471069D01*
X121685535Y-116476731D01*
X121685535Y-116476735D01*
X121690851Y-116557842D01*
X121698392Y-116672894D01*
X121748178Y-116868928D01*
X121832856Y-117052607D01*
X121949588Y-117217780D01*
X122094466Y-117358913D01*
X122262637Y-117471282D01*
X122448470Y-117551122D01*
X122490825Y-117560706D01*
X122640193Y-117594505D01*
X122640195Y-117594505D01*
X122645740Y-117595760D01*
X122763135Y-117600372D01*
X122842161Y-117603477D01*
X122842163Y-117603477D01*
X122847842Y-117603700D01*
X122853462Y-117602885D01*
X122853465Y-117602885D01*
X123042387Y-117575493D01*
X123042389Y-117575493D01*
X123048007Y-117574678D01*
X123053384Y-117572853D01*
X123053387Y-117572852D01*
X123158404Y-117537203D01*
X123239531Y-117509664D01*
X123416001Y-117410837D01*
X123478433Y-117358913D01*
X123567138Y-117285137D01*
X123571505Y-117281505D01*
X123700837Y-117126001D01*
X123799664Y-116949531D01*
X123859986Y-116771830D01*
X123862852Y-116763387D01*
X123862853Y-116763384D01*
X123864678Y-116758007D01*
X123865839Y-116750000D01*
X125744723Y-116750000D01*
X125763793Y-116967977D01*
X125765195Y-116973209D01*
X125806136Y-117126001D01*
X125820425Y-117179330D01*
X125912898Y-117377638D01*
X125916005Y-117382075D01*
X125916006Y-117382077D01*
X126035296Y-117552442D01*
X126035300Y-117552446D01*
X126038402Y-117556877D01*
X126193123Y-117711598D01*
X126372361Y-117837102D01*
X126570670Y-117929575D01*
X126575893Y-117930974D01*
X126575897Y-117930976D01*
X126741415Y-117975326D01*
X126782023Y-117986207D01*
X127000000Y-118005277D01*
X127217977Y-117986207D01*
X127258585Y-117975326D01*
X127424103Y-117930976D01*
X127424107Y-117930974D01*
X127429330Y-117929575D01*
X127627639Y-117837102D01*
X127806877Y-117711598D01*
X127961598Y-117556877D01*
X127964700Y-117552446D01*
X127964704Y-117552442D01*
X128083994Y-117382077D01*
X128083995Y-117382075D01*
X128087102Y-117377638D01*
X128179575Y-117179330D01*
X128193865Y-117126001D01*
X128234805Y-116973209D01*
X128236207Y-116967977D01*
X128255277Y-116750000D01*
X132244723Y-116750000D01*
X132263793Y-116967977D01*
X132265195Y-116973209D01*
X132306136Y-117126001D01*
X132320425Y-117179330D01*
X132412898Y-117377638D01*
X132416005Y-117382075D01*
X132416006Y-117382077D01*
X132535296Y-117552442D01*
X132535300Y-117552446D01*
X132538402Y-117556877D01*
X132693123Y-117711598D01*
X132872361Y-117837102D01*
X133070670Y-117929575D01*
X133075893Y-117930974D01*
X133075897Y-117930976D01*
X133241415Y-117975326D01*
X133282023Y-117986207D01*
X133500000Y-118005277D01*
X133717977Y-117986207D01*
X133758585Y-117975326D01*
X133924103Y-117930976D01*
X133924107Y-117930974D01*
X133929330Y-117929575D01*
X134127639Y-117837102D01*
X134306877Y-117711598D01*
X134461598Y-117556877D01*
X134464700Y-117552446D01*
X134464704Y-117552442D01*
X134583994Y-117382077D01*
X134583995Y-117382075D01*
X134587102Y-117377638D01*
X134679575Y-117179330D01*
X134693865Y-117126001D01*
X134734805Y-116973209D01*
X134736207Y-116967977D01*
X134755277Y-116750000D01*
X134736207Y-116532023D01*
X134679575Y-116320670D01*
X134587102Y-116122362D01*
X134583994Y-116117923D01*
X134464704Y-115947558D01*
X134464700Y-115947554D01*
X134461598Y-115943123D01*
X134306877Y-115788402D01*
X134127639Y-115662898D01*
X133929330Y-115570425D01*
X133924107Y-115569026D01*
X133924103Y-115569024D01*
X133754305Y-115523527D01*
X133717977Y-115513793D01*
X133500000Y-115494723D01*
X133282023Y-115513793D01*
X133245695Y-115523527D01*
X133075897Y-115569024D01*
X133075893Y-115569026D01*
X133070670Y-115570425D01*
X132872362Y-115662898D01*
X132867925Y-115666005D01*
X132867923Y-115666006D01*
X132697558Y-115785296D01*
X132697557Y-115785297D01*
X132693123Y-115788402D01*
X132538402Y-115943123D01*
X132535300Y-115947554D01*
X132535296Y-115947558D01*
X132416006Y-116117923D01*
X132412898Y-116122362D01*
X132320425Y-116320670D01*
X132263793Y-116532023D01*
X132244723Y-116750000D01*
X128255277Y-116750000D01*
X128236207Y-116532023D01*
X128179575Y-116320670D01*
X128087102Y-116122362D01*
X128083994Y-116117923D01*
X127964704Y-115947558D01*
X127964700Y-115947554D01*
X127961598Y-115943123D01*
X127806877Y-115788402D01*
X127627639Y-115662898D01*
X127429330Y-115570425D01*
X127424107Y-115569026D01*
X127424103Y-115569024D01*
X127254305Y-115523527D01*
X127217977Y-115513793D01*
X127000000Y-115494723D01*
X126782023Y-115513793D01*
X126745695Y-115523527D01*
X126575897Y-115569024D01*
X126575893Y-115569026D01*
X126570670Y-115570425D01*
X126372362Y-115662898D01*
X126367925Y-115666005D01*
X126367923Y-115666006D01*
X126197558Y-115785296D01*
X126197557Y-115785297D01*
X126193123Y-115788402D01*
X126038402Y-115943123D01*
X126035300Y-115947554D01*
X126035296Y-115947558D01*
X125916006Y-116117923D01*
X125912898Y-116122362D01*
X125820425Y-116320670D01*
X125763793Y-116532023D01*
X125744723Y-116750000D01*
X123865839Y-116750000D01*
X123893700Y-116557842D01*
X123895215Y-116500000D01*
X123876708Y-116298591D01*
X123849258Y-116201259D01*
X123823352Y-116109403D01*
X123823351Y-116109400D01*
X123821807Y-116103926D01*
X123732351Y-115922527D01*
X123611335Y-115760467D01*
X123549697Y-115703489D01*
X123466988Y-115627034D01*
X123466986Y-115627033D01*
X123462812Y-115623174D01*
X123430762Y-115602952D01*
X123296566Y-115518280D01*
X123296564Y-115518279D01*
X123291757Y-115515246D01*
X123103898Y-115440298D01*
X123098317Y-115439188D01*
X123098314Y-115439187D01*
X123012989Y-115422215D01*
X122905526Y-115400839D01*
X122899839Y-115400765D01*
X122899834Y-115400764D01*
X122708975Y-115398266D01*
X122708970Y-115398266D01*
X122703286Y-115398192D01*
X122697682Y-115399155D01*
X122697681Y-115399155D01*
X122509546Y-115431482D01*
X122509543Y-115431483D01*
X122503949Y-115432444D01*
X122476941Y-115442408D01*
X122319521Y-115500483D01*
X122319517Y-115500485D01*
X122314193Y-115502449D01*
X122309310Y-115505354D01*
X122309308Y-115505355D01*
X122145262Y-115602952D01*
X122140371Y-115605862D01*
X121988305Y-115739220D01*
X121863089Y-115898057D01*
X121768914Y-116077053D01*
X121767229Y-116082479D01*
X121767228Y-116082482D01*
X121747205Y-116146969D01*
X121708937Y-116270213D01*
X121685164Y-116471069D01*
X121352557Y-116471069D01*
X121336708Y-116298591D01*
X121281807Y-116103926D01*
X121281111Y-116102515D01*
X121275574Y-116034206D01*
X121309304Y-115971733D01*
X121727839Y-115553198D01*
X121746568Y-115538071D01*
X121747602Y-115537130D01*
X121756210Y-115531572D01*
X121776807Y-115505445D01*
X121780720Y-115501042D01*
X121780650Y-115500983D01*
X121783957Y-115497080D01*
X121787575Y-115493462D01*
X121798681Y-115477920D01*
X121802170Y-115473272D01*
X121833603Y-115433400D01*
X121836605Y-115424851D01*
X121841872Y-115417481D01*
X121856410Y-115368869D01*
X121858215Y-115363315D01*
X121872438Y-115322814D01*
X121872439Y-115322812D01*
X121875023Y-115315452D01*
X121875500Y-115309945D01*
X121875500Y-115307262D01*
X121875613Y-115304663D01*
X121875636Y-115304585D01*
X121875804Y-115304592D01*
X121875849Y-115303871D01*
X121877691Y-115297713D01*
X121876192Y-115259555D01*
X121875596Y-115244405D01*
X121875500Y-115239536D01*
X121875500Y-115184500D01*
X121895185Y-115117461D01*
X121947989Y-115071706D01*
X121999500Y-115060500D01*
X123664674Y-115060500D01*
X123670650Y-115059311D01*
X123670653Y-115059311D01*
X123704500Y-115052578D01*
X123737740Y-115045966D01*
X123820601Y-114990601D01*
X123828389Y-114978946D01*
X123869180Y-114917896D01*
X123875966Y-114907740D01*
X123884030Y-114867202D01*
X123889311Y-114840653D01*
X123889311Y-114840650D01*
X123890500Y-114834674D01*
X123890500Y-113441899D01*
X123910185Y-113374860D01*
X123926819Y-113354218D01*
X125637757Y-111643280D01*
X125699080Y-111609795D01*
X125768772Y-111614779D01*
X125824705Y-111656651D01*
X125849122Y-111722115D01*
X125837820Y-111783365D01*
X125822715Y-111815759D01*
X125820425Y-111820670D01*
X125763793Y-112032023D01*
X125744723Y-112250000D01*
X125763793Y-112467977D01*
X125765195Y-112473209D01*
X125818482Y-112672077D01*
X125820425Y-112679330D01*
X125912898Y-112877638D01*
X125916005Y-112882075D01*
X125916006Y-112882077D01*
X126035296Y-113052442D01*
X126035300Y-113052446D01*
X126038402Y-113056877D01*
X126193123Y-113211598D01*
X126372361Y-113337102D01*
X126570670Y-113429575D01*
X126575893Y-113430974D01*
X126575897Y-113430976D01*
X126742901Y-113475724D01*
X126782023Y-113486207D01*
X127000000Y-113505277D01*
X127217977Y-113486207D01*
X127257099Y-113475724D01*
X127424103Y-113430976D01*
X127424107Y-113430974D01*
X127429330Y-113429575D01*
X127627639Y-113337102D01*
X127806877Y-113211598D01*
X127961598Y-113056877D01*
X127964700Y-113052446D01*
X127964704Y-113052442D01*
X128083994Y-112882077D01*
X128083995Y-112882075D01*
X128087102Y-112877638D01*
X128179575Y-112679330D01*
X128181519Y-112672077D01*
X128234805Y-112473209D01*
X128236207Y-112467977D01*
X128255277Y-112250000D01*
X128236207Y-112032023D01*
X128179575Y-111820670D01*
X128087102Y-111622362D01*
X128083994Y-111617923D01*
X127964704Y-111447558D01*
X127964700Y-111447554D01*
X127961598Y-111443123D01*
X127806877Y-111288402D01*
X127627639Y-111162898D01*
X127429330Y-111070425D01*
X127424107Y-111069026D01*
X127424103Y-111069024D01*
X127223209Y-111015195D01*
X127223210Y-111015195D01*
X127217977Y-111013793D01*
X127000000Y-110994723D01*
X126782023Y-111013793D01*
X126776790Y-111015195D01*
X126776791Y-111015195D01*
X126575897Y-111069024D01*
X126575893Y-111069026D01*
X126570670Y-111070425D01*
X126565759Y-111072715D01*
X126533365Y-111087820D01*
X126464288Y-111098312D01*
X126400504Y-111069792D01*
X126362265Y-111011315D01*
X126361711Y-110941448D01*
X126393280Y-110887757D01*
X126769218Y-110511819D01*
X126830541Y-110478334D01*
X126856899Y-110475500D01*
X128746716Y-110475500D01*
X128770651Y-110478047D01*
X128772052Y-110478113D01*
X128782066Y-110480269D01*
X128792239Y-110479065D01*
X128815102Y-110476359D01*
X128820984Y-110476012D01*
X128820977Y-110475922D01*
X128826082Y-110475500D01*
X128831193Y-110475500D01*
X128850053Y-110472361D01*
X128855832Y-110471539D01*
X128896032Y-110466781D01*
X128896034Y-110466780D01*
X128906210Y-110465576D01*
X128914377Y-110461654D01*
X128923313Y-110460167D01*
X128967958Y-110436077D01*
X128973163Y-110433425D01*
X129011867Y-110414840D01*
X129011866Y-110414840D01*
X129018900Y-110411463D01*
X129023131Y-110407906D01*
X129025017Y-110406020D01*
X129026947Y-110404249D01*
X129027000Y-110404221D01*
X129027117Y-110404348D01*
X129027674Y-110403857D01*
X129033329Y-110400806D01*
X129069553Y-110361619D01*
X129072928Y-110358109D01*
X130377839Y-109053198D01*
X130396568Y-109038071D01*
X130397602Y-109037130D01*
X130406210Y-109031572D01*
X130426807Y-109005445D01*
X130436505Y-108994532D01*
X130436636Y-108994401D01*
X130500123Y-108960465D01*
X130510760Y-108958349D01*
X130522740Y-108955966D01*
X130605601Y-108900601D01*
X130616643Y-108884076D01*
X130648071Y-108837039D01*
X130660966Y-108817740D01*
X130675500Y-108744674D01*
X130675500Y-108691766D01*
X130695185Y-108624727D01*
X130747989Y-108578972D01*
X130817147Y-108569028D01*
X130882951Y-108600050D01*
X130920410Y-108634135D01*
X130926980Y-108637702D01*
X130926981Y-108637703D01*
X131047994Y-108703408D01*
X131058776Y-108709262D01*
X131151681Y-108733635D01*
X131203841Y-108747319D01*
X131203843Y-108747319D01*
X131211069Y-108749215D01*
X131288127Y-108750425D01*
X131361025Y-108751571D01*
X131361028Y-108751571D01*
X131368495Y-108751688D01*
X131375776Y-108750020D01*
X131375780Y-108750020D01*
X131514681Y-108718207D01*
X131521968Y-108716538D01*
X131662625Y-108645795D01*
X131668306Y-108640943D01*
X131668309Y-108640941D01*
X131776666Y-108548395D01*
X131776667Y-108548394D01*
X131782348Y-108543542D01*
X131793393Y-108528172D01*
X131841000Y-108461919D01*
X131874224Y-108415683D01*
X131932950Y-108269598D01*
X131955134Y-108113723D01*
X131955278Y-108100000D01*
X131943104Y-107999404D01*
X131947405Y-107948980D01*
X131956406Y-107918882D01*
X131958212Y-107913324D01*
X131972437Y-107872817D01*
X131972438Y-107872814D01*
X131975023Y-107865452D01*
X131975500Y-107859945D01*
X131975500Y-107857261D01*
X131975613Y-107854659D01*
X131975635Y-107854585D01*
X131975804Y-107854592D01*
X131975850Y-107853867D01*
X131977690Y-107847713D01*
X131975596Y-107794419D01*
X131975500Y-107789551D01*
X131975500Y-107119500D01*
X131995185Y-107052461D01*
X132047989Y-107006706D01*
X132099500Y-106995500D01*
X132424674Y-106995500D01*
X132430650Y-106994311D01*
X132430653Y-106994311D01*
X132468617Y-106986759D01*
X132497740Y-106980966D01*
X132538442Y-106953770D01*
X132570448Y-106932385D01*
X132580601Y-106925601D01*
X132597299Y-106900611D01*
X132623660Y-106861158D01*
X132635966Y-106842740D01*
X132638966Y-106827658D01*
X132642173Y-106821528D01*
X132643021Y-106819480D01*
X132643204Y-106819556D01*
X132671352Y-106765748D01*
X132732068Y-106731174D01*
X132801837Y-106734915D01*
X132844034Y-106760135D01*
X132870410Y-106784135D01*
X132876980Y-106787702D01*
X132876981Y-106787703D01*
X132988649Y-106848334D01*
X133008776Y-106859262D01*
X133089712Y-106880495D01*
X133153841Y-106897319D01*
X133153843Y-106897319D01*
X133161069Y-106899215D01*
X133270628Y-106900936D01*
X133337350Y-106921671D01*
X133382270Y-106975187D01*
X133391126Y-107044494D01*
X133356361Y-107112602D01*
X133272161Y-107196802D01*
X133253432Y-107211929D01*
X133252398Y-107212870D01*
X133243790Y-107218428D01*
X133228361Y-107237999D01*
X133223193Y-107244555D01*
X133219280Y-107248958D01*
X133219350Y-107249017D01*
X133216043Y-107252920D01*
X133212425Y-107256538D01*
X133209451Y-107260700D01*
X133201321Y-107272077D01*
X133197830Y-107276728D01*
X133166397Y-107316600D01*
X133163395Y-107325149D01*
X133158128Y-107332519D01*
X133155191Y-107342340D01*
X133143594Y-107381118D01*
X133141788Y-107386676D01*
X133130650Y-107418394D01*
X133124977Y-107434548D01*
X133124500Y-107440055D01*
X133124500Y-107442739D01*
X133124387Y-107445341D01*
X133124365Y-107445415D01*
X133124196Y-107445408D01*
X133124150Y-107446133D01*
X133122310Y-107452287D01*
X133122712Y-107462526D01*
X133122712Y-107462529D01*
X133124404Y-107505581D01*
X133124500Y-107510449D01*
X133124500Y-110966327D01*
X133104815Y-111033366D01*
X133052905Y-111078709D01*
X132872362Y-111162898D01*
X132867925Y-111166005D01*
X132867923Y-111166006D01*
X132697558Y-111285296D01*
X132697557Y-111285297D01*
X132693123Y-111288402D01*
X132538402Y-111443123D01*
X132535300Y-111447554D01*
X132535296Y-111447558D01*
X132416006Y-111617923D01*
X132412898Y-111622362D01*
X132320425Y-111820670D01*
X132263793Y-112032023D01*
X132244723Y-112250000D01*
X132263793Y-112467977D01*
X132265195Y-112473209D01*
X132318482Y-112672077D01*
X132320425Y-112679330D01*
X132412898Y-112877638D01*
X132416005Y-112882075D01*
X132416006Y-112882077D01*
X132535296Y-113052442D01*
X132535300Y-113052446D01*
X132538402Y-113056877D01*
X132693123Y-113211598D01*
X132872361Y-113337102D01*
X133070670Y-113429575D01*
X133075893Y-113430974D01*
X133075897Y-113430976D01*
X133242901Y-113475724D01*
X133282023Y-113486207D01*
X133500000Y-113505277D01*
X133717977Y-113486207D01*
X133757099Y-113475724D01*
X133924103Y-113430976D01*
X133924107Y-113430974D01*
X133929330Y-113429575D01*
X134127639Y-113337102D01*
X134306877Y-113211598D01*
X134461598Y-113056877D01*
X134464700Y-113052446D01*
X134464704Y-113052442D01*
X134583994Y-112882077D01*
X134583995Y-112882075D01*
X134587102Y-112877638D01*
X134679575Y-112679330D01*
X134681519Y-112672077D01*
X134734805Y-112473209D01*
X134736207Y-112467977D01*
X134755277Y-112250000D01*
X134736207Y-112032023D01*
X134679575Y-111820670D01*
X134587102Y-111622362D01*
X134583994Y-111617923D01*
X134464704Y-111447558D01*
X134464700Y-111447554D01*
X134461598Y-111443123D01*
X134306877Y-111288402D01*
X134127639Y-111162898D01*
X133947095Y-111078709D01*
X133894656Y-111032537D01*
X133875500Y-110966327D01*
X133875500Y-109403875D01*
X133895185Y-109336836D01*
X133947989Y-109291081D01*
X134017147Y-109281137D01*
X134038538Y-109286180D01*
X134103865Y-109307848D01*
X134117033Y-109310671D01*
X134209822Y-109320178D01*
X134216128Y-109320500D01*
X134228170Y-109320500D01*
X134243169Y-109316096D01*
X134244356Y-109314726D01*
X134246000Y-109307168D01*
X134246000Y-109302670D01*
X134754000Y-109302670D01*
X134758404Y-109317669D01*
X134759774Y-109318856D01*
X134767332Y-109320500D01*
X134783835Y-109320500D01*
X134790210Y-109320170D01*
X134884241Y-109310413D01*
X134897429Y-109307565D01*
X135049059Y-109256977D01*
X135062017Y-109250907D01*
X135197593Y-109167011D01*
X135208806Y-109158124D01*
X135321445Y-109045288D01*
X135330314Y-109034059D01*
X135413975Y-108898334D01*
X135420018Y-108885376D01*
X135470348Y-108733635D01*
X135473171Y-108720467D01*
X135482678Y-108627678D01*
X135483000Y-108621372D01*
X135483000Y-108596830D01*
X135478596Y-108581831D01*
X135477226Y-108580644D01*
X135469668Y-108579000D01*
X134771830Y-108579000D01*
X134756831Y-108583404D01*
X134755644Y-108584774D01*
X134754000Y-108592332D01*
X134754000Y-109302670D01*
X134246000Y-109302670D01*
X134246000Y-108195000D01*
X134265685Y-108127961D01*
X134318489Y-108082206D01*
X134370000Y-108071000D01*
X135465170Y-108071000D01*
X135480169Y-108066596D01*
X135481356Y-108065226D01*
X135483000Y-108057668D01*
X135483000Y-108028665D01*
X135482670Y-108022290D01*
X135472913Y-107928259D01*
X135470065Y-107915071D01*
X135419477Y-107763441D01*
X135413407Y-107750483D01*
X135329511Y-107614907D01*
X135320624Y-107603694D01*
X135207788Y-107491055D01*
X135196559Y-107482186D01*
X135060834Y-107398525D01*
X135047875Y-107392482D01*
X135027703Y-107385791D01*
X134970269Y-107346001D01*
X134943465Y-107281478D01*
X134955800Y-107212705D01*
X134992371Y-107168874D01*
X135086116Y-107098616D01*
X135169949Y-106986759D01*
X135173047Y-106978494D01*
X135173049Y-106978491D01*
X135203478Y-106897319D01*
X135219017Y-106855868D01*
X135225500Y-106796191D01*
X135225499Y-106203810D01*
X135219017Y-106144132D01*
X135185789Y-106055495D01*
X135173049Y-106021509D01*
X135173047Y-106021506D01*
X135169949Y-106013241D01*
X135086116Y-105901384D01*
X134974259Y-105817551D01*
X134962349Y-105813086D01*
X134955971Y-105810695D01*
X134900108Y-105768729D01*
X134875801Y-105703224D01*
X134875500Y-105694586D01*
X134875500Y-103153280D01*
X134878046Y-103129355D01*
X134878112Y-103127951D01*
X134880269Y-103117933D01*
X134878246Y-103100836D01*
X134876359Y-103084897D01*
X134876012Y-103079016D01*
X134875922Y-103079023D01*
X134875500Y-103073917D01*
X134875500Y-103068807D01*
X134872362Y-103049953D01*
X134871540Y-103044182D01*
X134870535Y-103035685D01*
X134867870Y-103013169D01*
X134866781Y-103003967D01*
X134866780Y-103003964D01*
X134865576Y-102993790D01*
X134861654Y-102985623D01*
X134860167Y-102976687D01*
X134836077Y-102932042D01*
X134833425Y-102926837D01*
X134811463Y-102881100D01*
X134807906Y-102876869D01*
X134806020Y-102874983D01*
X134804249Y-102873053D01*
X134804221Y-102873000D01*
X134804348Y-102872883D01*
X134803857Y-102872326D01*
X134800806Y-102866671D01*
X134761619Y-102830447D01*
X134758109Y-102827072D01*
X133373198Y-101442161D01*
X133358071Y-101423432D01*
X133357130Y-101422398D01*
X133351572Y-101413790D01*
X133325445Y-101393193D01*
X133321042Y-101389280D01*
X133320983Y-101389350D01*
X133317080Y-101386043D01*
X133313462Y-101382425D01*
X133297920Y-101371319D01*
X133293272Y-101367830D01*
X133253400Y-101336397D01*
X133244851Y-101333395D01*
X133237481Y-101328128D01*
X133188877Y-101313592D01*
X133183324Y-101311788D01*
X133142817Y-101297563D01*
X133142814Y-101297562D01*
X133135452Y-101294977D01*
X133129945Y-101294500D01*
X133127261Y-101294500D01*
X133124659Y-101294387D01*
X133124585Y-101294365D01*
X133124592Y-101294196D01*
X133123867Y-101294150D01*
X133117713Y-101292310D01*
X133107474Y-101292712D01*
X133107471Y-101292712D01*
X133064419Y-101294404D01*
X133059551Y-101294500D01*
X132774419Y-101294500D01*
X132707380Y-101274815D01*
X132661625Y-101222011D01*
X132652892Y-101169674D01*
X132650500Y-101169674D01*
X132650500Y-100570326D01*
X132645772Y-100546554D01*
X132638349Y-100509241D01*
X132635966Y-100497260D01*
X132580601Y-100414399D01*
X132559951Y-100400601D01*
X132507896Y-100365820D01*
X132497740Y-100359034D01*
X132446910Y-100348923D01*
X132430653Y-100345689D01*
X132430650Y-100345689D01*
X132424674Y-100344500D01*
X132224500Y-100344500D01*
X132157461Y-100324815D01*
X132111706Y-100272011D01*
X132100500Y-100220500D01*
X132100500Y-97999500D01*
X132120185Y-97932461D01*
X132172989Y-97886706D01*
X132224500Y-97875500D01*
X132247376Y-97875500D01*
X132308579Y-97868851D01*
X132442823Y-97818526D01*
X132449888Y-97813231D01*
X132449890Y-97813230D01*
X132550481Y-97737841D01*
X132557546Y-97732546D01*
X132643526Y-97617823D01*
X132693851Y-97483579D01*
X132700500Y-97422376D01*
X132700500Y-96077624D01*
X132693851Y-96016421D01*
X132643526Y-95882177D01*
X132557546Y-95767454D01*
X132550481Y-95762159D01*
X132449890Y-95686770D01*
X132449888Y-95686769D01*
X132442823Y-95681474D01*
X132308579Y-95631149D01*
X132247376Y-95624500D01*
X131227624Y-95624500D01*
X131166421Y-95631149D01*
X131032177Y-95681474D01*
X131025112Y-95686769D01*
X131025110Y-95686770D01*
X130924519Y-95762159D01*
X130917454Y-95767454D01*
X130831474Y-95882177D01*
X130781149Y-96016421D01*
X130774500Y-96077624D01*
X130774500Y-97422376D01*
X130781149Y-97483579D01*
X130831474Y-97617823D01*
X130917454Y-97732546D01*
X131032177Y-97818526D01*
X131036533Y-97820159D01*
X131084397Y-97868128D01*
X131099500Y-97927436D01*
X131099500Y-100220500D01*
X131079815Y-100287539D01*
X131027011Y-100333294D01*
X130975500Y-100344500D01*
X130799500Y-100344500D01*
X130732461Y-100324815D01*
X130686706Y-100272011D01*
X130675500Y-100220500D01*
X130675500Y-98595326D01*
X130660966Y-98522260D01*
X130605601Y-98439399D01*
X130522740Y-98384034D01*
X130488687Y-98377260D01*
X130455653Y-98370689D01*
X130455650Y-98370689D01*
X130449674Y-98369500D01*
X129850326Y-98369500D01*
X129844350Y-98370689D01*
X129844347Y-98370689D01*
X129777260Y-98384034D01*
X129776556Y-98380495D01*
X129727990Y-98385719D01*
X129723122Y-98384290D01*
X129722740Y-98384034D01*
X129721229Y-98383733D01*
X129721224Y-98383732D01*
X129655653Y-98370689D01*
X129655650Y-98370689D01*
X129649674Y-98369500D01*
X129050326Y-98369500D01*
X129044350Y-98370689D01*
X129044347Y-98370689D01*
X128977260Y-98384034D01*
X128976556Y-98380495D01*
X128927990Y-98385719D01*
X128923122Y-98384290D01*
X128922740Y-98384034D01*
X128921229Y-98383733D01*
X128921224Y-98383732D01*
X128855653Y-98370689D01*
X128855650Y-98370689D01*
X128849674Y-98369500D01*
X128250326Y-98369500D01*
X128244350Y-98370689D01*
X128244347Y-98370689D01*
X128177260Y-98384034D01*
X128176556Y-98380495D01*
X128127990Y-98385719D01*
X128123122Y-98384290D01*
X128122740Y-98384034D01*
X128121229Y-98383733D01*
X128121224Y-98383732D01*
X128055653Y-98370689D01*
X128055650Y-98370689D01*
X128049674Y-98369500D01*
X127450326Y-98369500D01*
X127444350Y-98370689D01*
X127444347Y-98370689D01*
X127377260Y-98384034D01*
X127376556Y-98380495D01*
X127327990Y-98385719D01*
X127323122Y-98384290D01*
X127322740Y-98384034D01*
X127321229Y-98383733D01*
X127321224Y-98383732D01*
X127255653Y-98370689D01*
X127255650Y-98370689D01*
X127249674Y-98369500D01*
X126650326Y-98369500D01*
X126644350Y-98370689D01*
X126644347Y-98370689D01*
X126577260Y-98384034D01*
X126576556Y-98380495D01*
X126527990Y-98385719D01*
X126523122Y-98384290D01*
X126522740Y-98384034D01*
X126521229Y-98383733D01*
X126521224Y-98383732D01*
X126455653Y-98370689D01*
X126455650Y-98370689D01*
X126449674Y-98369500D01*
X125850326Y-98369500D01*
X125844350Y-98370689D01*
X125844347Y-98370689D01*
X125777260Y-98384034D01*
X125776556Y-98380495D01*
X125727990Y-98385719D01*
X125723122Y-98384290D01*
X125722740Y-98384034D01*
X125721229Y-98383733D01*
X125721224Y-98383732D01*
X125655653Y-98370689D01*
X125655650Y-98370689D01*
X125649674Y-98369500D01*
X125050326Y-98369500D01*
X125044350Y-98370689D01*
X125044347Y-98370689D01*
X124977260Y-98384034D01*
X124976556Y-98380495D01*
X124927990Y-98385719D01*
X124923122Y-98384290D01*
X124922740Y-98384034D01*
X124921229Y-98383733D01*
X124921224Y-98383732D01*
X124855653Y-98370689D01*
X124855650Y-98370689D01*
X124849674Y-98369500D01*
X124250326Y-98369500D01*
X124244350Y-98370689D01*
X124244347Y-98370689D01*
X124211313Y-98377260D01*
X124177260Y-98384034D01*
X124094399Y-98439399D01*
X124039034Y-98522260D01*
X124024500Y-98595326D01*
X124024500Y-100220500D01*
X124004815Y-100287539D01*
X123952011Y-100333294D01*
X123900500Y-100344500D01*
X122275326Y-100344500D01*
X122269350Y-100345689D01*
X122269347Y-100345689D01*
X122253090Y-100348923D01*
X122202260Y-100359034D01*
X122192104Y-100365820D01*
X122140050Y-100400601D01*
X122119399Y-100414399D01*
X122064034Y-100497260D01*
X122061651Y-100509241D01*
X122054229Y-100546554D01*
X122049500Y-100570326D01*
X122049500Y-101169674D01*
X122050689Y-101175650D01*
X122050689Y-101175653D01*
X122064034Y-101242740D01*
X122060495Y-101243444D01*
X122065719Y-101292010D01*
X122064290Y-101296878D01*
X122064034Y-101297260D01*
X122063733Y-101298771D01*
X122063732Y-101298776D01*
X122053565Y-101349889D01*
X122049500Y-101370326D01*
X122049500Y-101685827D01*
X122029815Y-101752866D01*
X121999865Y-101785053D01*
X121944164Y-101826798D01*
X121931799Y-101839164D01*
X121855126Y-101941468D01*
X121846727Y-101956810D01*
X121801476Y-102077515D01*
X121797909Y-102092518D01*
X121792363Y-102143573D01*
X121792000Y-102150271D01*
X121792000Y-102198170D01*
X121796404Y-102213169D01*
X121797774Y-102214356D01*
X121805332Y-102216000D01*
X124390169Y-102216000D01*
X124405168Y-102211596D01*
X124406355Y-102210226D01*
X124407999Y-102202668D01*
X124407999Y-102150274D01*
X124407636Y-102143569D01*
X124402092Y-102092523D01*
X124398522Y-102077512D01*
X124353273Y-101956810D01*
X124344874Y-101941468D01*
X124268201Y-101839164D01*
X124255836Y-101826798D01*
X124200135Y-101785053D01*
X124158294Y-101729097D01*
X124150500Y-101685827D01*
X124150500Y-101370326D01*
X124145237Y-101343864D01*
X124135966Y-101297260D01*
X124139505Y-101296556D01*
X124134281Y-101247990D01*
X124135710Y-101243122D01*
X124135966Y-101242740D01*
X124138652Y-101229241D01*
X124149311Y-101175653D01*
X124149311Y-101175650D01*
X124150500Y-101169674D01*
X124150500Y-100594500D01*
X124170185Y-100527461D01*
X124222989Y-100481706D01*
X124274500Y-100470500D01*
X124849674Y-100470500D01*
X124855650Y-100469311D01*
X124855653Y-100469311D01*
X124922740Y-100455966D01*
X124923444Y-100459505D01*
X124972010Y-100454281D01*
X124976878Y-100455710D01*
X124977260Y-100455966D01*
X124978771Y-100456267D01*
X124978776Y-100456268D01*
X125044347Y-100469311D01*
X125044350Y-100469311D01*
X125050326Y-100470500D01*
X125649674Y-100470500D01*
X125655650Y-100469311D01*
X125655653Y-100469311D01*
X125722740Y-100455966D01*
X125723444Y-100459505D01*
X125772010Y-100454281D01*
X125776878Y-100455710D01*
X125777260Y-100455966D01*
X125778771Y-100456267D01*
X125778776Y-100456268D01*
X125844347Y-100469311D01*
X125844350Y-100469311D01*
X125850326Y-100470500D01*
X126449674Y-100470500D01*
X126449674Y-100473154D01*
X126507039Y-100484059D01*
X126557729Y-100532145D01*
X126574500Y-100594419D01*
X126574500Y-100843101D01*
X126554815Y-100910140D01*
X126538181Y-100930782D01*
X126155469Y-101313494D01*
X126094146Y-101346979D01*
X126067143Y-101349811D01*
X125959988Y-101349250D01*
X125932158Y-101349104D01*
X125932157Y-101349104D01*
X125924684Y-101349065D01*
X125917421Y-101350809D01*
X125917418Y-101350809D01*
X125848136Y-101367442D01*
X125771588Y-101385820D01*
X125631679Y-101458032D01*
X125513034Y-101561533D01*
X125422501Y-101690348D01*
X125419785Y-101697313D01*
X125419785Y-101697314D01*
X125398126Y-101752866D01*
X125365309Y-101837039D01*
X125344758Y-101993138D01*
X125345578Y-102000566D01*
X125345578Y-102000568D01*
X125355730Y-102092523D01*
X125362035Y-102149633D01*
X125364601Y-102156645D01*
X125364602Y-102156649D01*
X125371838Y-102176421D01*
X125416143Y-102297490D01*
X125430220Y-102318438D01*
X125492320Y-102410853D01*
X125513372Y-102477475D01*
X125495064Y-102544904D01*
X125443207Y-102591730D01*
X125418346Y-102600587D01*
X125271588Y-102635820D01*
X125131679Y-102708032D01*
X125126050Y-102712943D01*
X125126042Y-102712948D01*
X125096245Y-102738942D01*
X125032787Y-102768178D01*
X125014731Y-102769500D01*
X124499088Y-102769500D01*
X124432049Y-102749815D01*
X124417885Y-102739213D01*
X124402226Y-102725644D01*
X124394668Y-102724000D01*
X123371830Y-102724000D01*
X123322946Y-102738354D01*
X123321207Y-102739472D01*
X123286255Y-102744500D01*
X122908237Y-102744500D01*
X122854874Y-102728831D01*
X122832668Y-102724000D01*
X121809831Y-102724000D01*
X121794832Y-102728404D01*
X121793645Y-102729774D01*
X121792001Y-102737332D01*
X121792001Y-102789726D01*
X121792364Y-102796431D01*
X121797908Y-102847477D01*
X121801478Y-102862488D01*
X121846727Y-102983190D01*
X121855126Y-102998532D01*
X121931799Y-103100836D01*
X121944164Y-103113202D01*
X121999865Y-103154947D01*
X122041706Y-103210903D01*
X122049500Y-103254173D01*
X122049500Y-103285827D01*
X122029815Y-103352866D01*
X121999865Y-103385053D01*
X121944164Y-103426798D01*
X121931799Y-103439164D01*
X121855126Y-103541468D01*
X121846727Y-103556810D01*
X121801476Y-103677515D01*
X121797909Y-103692518D01*
X121792363Y-103743573D01*
X121792000Y-103750271D01*
X121792000Y-103798170D01*
X121796404Y-103813169D01*
X121797774Y-103814356D01*
X121805332Y-103816000D01*
X122828170Y-103816000D01*
X122877054Y-103801646D01*
X122878793Y-103800528D01*
X122913745Y-103795500D01*
X123230000Y-103795500D01*
X123297039Y-103815185D01*
X123342794Y-103867989D01*
X123354000Y-103919500D01*
X123354000Y-104200000D01*
X123334315Y-104267039D01*
X123281511Y-104312794D01*
X123230000Y-104324000D01*
X121809831Y-104324000D01*
X121794832Y-104328404D01*
X121793645Y-104329774D01*
X121792001Y-104337332D01*
X121792001Y-104389726D01*
X121792364Y-104396431D01*
X121797908Y-104447477D01*
X121801478Y-104462488D01*
X121846727Y-104583190D01*
X121855126Y-104598532D01*
X121931799Y-104700836D01*
X121944164Y-104713202D01*
X121999865Y-104754947D01*
X122041706Y-104810903D01*
X122049500Y-104854173D01*
X122049500Y-105169674D01*
X122046846Y-105169674D01*
X122035941Y-105227039D01*
X121987855Y-105277729D01*
X121925581Y-105294500D01*
X119876899Y-105294500D01*
X119809860Y-105274815D01*
X119789218Y-105258181D01*
X117661819Y-103130782D01*
X117628334Y-103069459D01*
X117625500Y-103043101D01*
X117625500Y-101557556D01*
X117645185Y-101490517D01*
X117693591Y-101446876D01*
X117783272Y-101401574D01*
X117783277Y-101401571D01*
X117788689Y-101398837D01*
X117943303Y-101278040D01*
X117947259Y-101273456D01*
X117947263Y-101273453D01*
X118067547Y-101134101D01*
X118071509Y-101129511D01*
X118075314Y-101122814D01*
X118122628Y-101039526D01*
X118168425Y-100958909D01*
X118230358Y-100772732D01*
X118254949Y-100578071D01*
X118255341Y-100550000D01*
X118236194Y-100354728D01*
X118179484Y-100166894D01*
X118175675Y-100159729D01*
X118090217Y-99999008D01*
X118087370Y-99993653D01*
X117963361Y-99841602D01*
X117812180Y-99716535D01*
X117690521Y-99650754D01*
X117640914Y-99601554D01*
X117625500Y-99541679D01*
X117625500Y-97033835D01*
X121842000Y-97033835D01*
X121842330Y-97040210D01*
X121852087Y-97134241D01*
X121854935Y-97147429D01*
X121905523Y-97299059D01*
X121911593Y-97312017D01*
X121995489Y-97447593D01*
X122004376Y-97458806D01*
X122117212Y-97571445D01*
X122128441Y-97580314D01*
X122264166Y-97663975D01*
X122277124Y-97670018D01*
X122428865Y-97720348D01*
X122442033Y-97723171D01*
X122534822Y-97732678D01*
X122541128Y-97733000D01*
X122565670Y-97733000D01*
X122580669Y-97728596D01*
X122581856Y-97727226D01*
X122583500Y-97719668D01*
X122583500Y-97715170D01*
X123091500Y-97715170D01*
X123095904Y-97730169D01*
X123097274Y-97731356D01*
X123104832Y-97733000D01*
X123133835Y-97733000D01*
X123140210Y-97732670D01*
X123234241Y-97722913D01*
X123247429Y-97720065D01*
X123399059Y-97669477D01*
X123412017Y-97663407D01*
X123547593Y-97579511D01*
X123558806Y-97570624D01*
X123671445Y-97457788D01*
X123680314Y-97446559D01*
X123763975Y-97310834D01*
X123770018Y-97297875D01*
X123776709Y-97277703D01*
X123816499Y-97220269D01*
X123881022Y-97193465D01*
X123949795Y-97205800D01*
X123993626Y-97242371D01*
X124063884Y-97336116D01*
X124175741Y-97419949D01*
X124184006Y-97423047D01*
X124184009Y-97423049D01*
X124246724Y-97446559D01*
X124306632Y-97469017D01*
X124366309Y-97475500D01*
X124662455Y-97475500D01*
X124958690Y-97475499D01*
X125018368Y-97469017D01*
X125083450Y-97444619D01*
X125140991Y-97423049D01*
X125140994Y-97423047D01*
X125149259Y-97419949D01*
X125261116Y-97336116D01*
X125288083Y-97300134D01*
X125344040Y-97258294D01*
X125387309Y-97250500D01*
X127675500Y-97250500D01*
X127742539Y-97270185D01*
X127788294Y-97322989D01*
X127799500Y-97374500D01*
X127799500Y-97422376D01*
X127806149Y-97483579D01*
X127856474Y-97617823D01*
X127942454Y-97732546D01*
X127949519Y-97737841D01*
X128050110Y-97813230D01*
X128050112Y-97813231D01*
X128057177Y-97818526D01*
X128191421Y-97868851D01*
X128252624Y-97875500D01*
X129272376Y-97875500D01*
X129333579Y-97868851D01*
X129467823Y-97818526D01*
X129474888Y-97813231D01*
X129474890Y-97813230D01*
X129575481Y-97737841D01*
X129582546Y-97732546D01*
X129668526Y-97617823D01*
X129718851Y-97483579D01*
X129725500Y-97422376D01*
X129725500Y-96077624D01*
X129718851Y-96016421D01*
X129668526Y-95882177D01*
X129582546Y-95767454D01*
X129575481Y-95762159D01*
X129474890Y-95686770D01*
X129474888Y-95686769D01*
X129467823Y-95681474D01*
X129333579Y-95631149D01*
X129272376Y-95624500D01*
X128252624Y-95624500D01*
X128191421Y-95631149D01*
X128057177Y-95681474D01*
X128050112Y-95686769D01*
X128050110Y-95686770D01*
X127949519Y-95762159D01*
X127942454Y-95767454D01*
X127856474Y-95882177D01*
X127806149Y-96016421D01*
X127799500Y-96077624D01*
X127799500Y-96125500D01*
X127779815Y-96192539D01*
X127727011Y-96238294D01*
X127675500Y-96249500D01*
X125387309Y-96249500D01*
X125320270Y-96229815D01*
X125288083Y-96199866D01*
X125275663Y-96183294D01*
X125261116Y-96163884D01*
X125149259Y-96080051D01*
X125140994Y-96076953D01*
X125140991Y-96076951D01*
X125075517Y-96052407D01*
X125018368Y-96030983D01*
X124958691Y-96024500D01*
X124662545Y-96024500D01*
X124366310Y-96024501D01*
X124306632Y-96030983D01*
X124249483Y-96052407D01*
X124184009Y-96076951D01*
X124184006Y-96076953D01*
X124175741Y-96080051D01*
X124063884Y-96163884D01*
X124058586Y-96170953D01*
X123993554Y-96257724D01*
X123937597Y-96299564D01*
X123867903Y-96304509D01*
X123806599Y-96270990D01*
X123776702Y-96222600D01*
X123769474Y-96200935D01*
X123763407Y-96187983D01*
X123679511Y-96052407D01*
X123670624Y-96041194D01*
X123557788Y-95928555D01*
X123546559Y-95919686D01*
X123410834Y-95836025D01*
X123397876Y-95829982D01*
X123246135Y-95779652D01*
X123232967Y-95776829D01*
X123140178Y-95767322D01*
X123133872Y-95767000D01*
X123109330Y-95767000D01*
X123094331Y-95771404D01*
X123093144Y-95772774D01*
X123091500Y-95780332D01*
X123091500Y-97715170D01*
X122583500Y-97715170D01*
X122583500Y-97021830D01*
X122579096Y-97006831D01*
X122577726Y-97005644D01*
X122570168Y-97004000D01*
X121859830Y-97004000D01*
X121844831Y-97008404D01*
X121843644Y-97009774D01*
X121842000Y-97017332D01*
X121842000Y-97033835D01*
X117625500Y-97033835D01*
X117625500Y-96692692D01*
X117645185Y-96625653D01*
X117697989Y-96579898D01*
X117767147Y-96569954D01*
X117796952Y-96578131D01*
X117823767Y-96589238D01*
X117839342Y-96593411D01*
X117946133Y-96607471D01*
X117954206Y-96608000D01*
X117989670Y-96608000D01*
X118004669Y-96603596D01*
X118005856Y-96602226D01*
X118007500Y-96594668D01*
X118007500Y-96590169D01*
X118407500Y-96590169D01*
X118411904Y-96605168D01*
X118413274Y-96606355D01*
X118420832Y-96607999D01*
X118460791Y-96607999D01*
X118468868Y-96607469D01*
X118575659Y-96593411D01*
X118591231Y-96589239D01*
X118724112Y-96534198D01*
X118738072Y-96526138D01*
X118800585Y-96478170D01*
X121842000Y-96478170D01*
X121846404Y-96493169D01*
X121847774Y-96494356D01*
X121855332Y-96496000D01*
X122565670Y-96496000D01*
X122580669Y-96491596D01*
X122581856Y-96490226D01*
X122583500Y-96482668D01*
X122583500Y-95784830D01*
X122579096Y-95769831D01*
X122577726Y-95768644D01*
X122570168Y-95767000D01*
X122541165Y-95767000D01*
X122534790Y-95767330D01*
X122440759Y-95777087D01*
X122427571Y-95779935D01*
X122275941Y-95830523D01*
X122262983Y-95836593D01*
X122127407Y-95920489D01*
X122116194Y-95929376D01*
X122003555Y-96042212D01*
X121994686Y-96053441D01*
X121911025Y-96189166D01*
X121904982Y-96202124D01*
X121854652Y-96353865D01*
X121851829Y-96367033D01*
X121842322Y-96459822D01*
X121842000Y-96466128D01*
X121842000Y-96478170D01*
X118800585Y-96478170D01*
X118852183Y-96438577D01*
X118863577Y-96427183D01*
X118951138Y-96313072D01*
X118959198Y-96299112D01*
X119014238Y-96166234D01*
X119018412Y-96150657D01*
X119022754Y-96117675D01*
X119020578Y-96103719D01*
X119007627Y-96100000D01*
X118425330Y-96100000D01*
X118410331Y-96104404D01*
X118409144Y-96105774D01*
X118407500Y-96113332D01*
X118407500Y-96590169D01*
X118007500Y-96590169D01*
X118007500Y-95682170D01*
X118407500Y-95682170D01*
X118411904Y-95697169D01*
X118413274Y-95698356D01*
X118420832Y-95700000D01*
X119007250Y-95700000D01*
X119020805Y-95696020D01*
X119022802Y-95682695D01*
X119018411Y-95649341D01*
X119014239Y-95633769D01*
X118959198Y-95500888D01*
X118951138Y-95486928D01*
X118863577Y-95372817D01*
X118852183Y-95361423D01*
X118738072Y-95273862D01*
X118724112Y-95265802D01*
X118591233Y-95210762D01*
X118575658Y-95206589D01*
X118468867Y-95192529D01*
X118460794Y-95192000D01*
X118425330Y-95192000D01*
X118410331Y-95196404D01*
X118409144Y-95197774D01*
X118407500Y-95205332D01*
X118407500Y-95682170D01*
X118007500Y-95682170D01*
X118007500Y-95209831D01*
X118003096Y-95194832D01*
X118001726Y-95193645D01*
X117994168Y-95192001D01*
X117954209Y-95192001D01*
X117946132Y-95192531D01*
X117839341Y-95206589D01*
X117823769Y-95210761D01*
X117690888Y-95265802D01*
X117676928Y-95273862D01*
X117562817Y-95361423D01*
X117551423Y-95372817D01*
X117529807Y-95400987D01*
X117473379Y-95442190D01*
X117431432Y-95449500D01*
X117141782Y-95449500D01*
X117072888Y-95459642D01*
X116968145Y-95511068D01*
X116885707Y-95593650D01*
X116881208Y-95602855D01*
X116881206Y-95602857D01*
X116858485Y-95649341D01*
X116834464Y-95698482D01*
X116824500Y-95766782D01*
X116824500Y-96033218D01*
X116834642Y-96102112D01*
X116838888Y-96110760D01*
X116861808Y-96157443D01*
X116874500Y-96212092D01*
X116874500Y-99542188D01*
X116854815Y-99609227D01*
X116807949Y-99652077D01*
X116704884Y-99705958D01*
X116704880Y-99705961D01*
X116699512Y-99708767D01*
X116694789Y-99712564D01*
X116694788Y-99712565D01*
X116685040Y-99720403D01*
X116546600Y-99831711D01*
X116420480Y-99982016D01*
X116325956Y-100153954D01*
X116324124Y-100159729D01*
X116269066Y-100333294D01*
X116266628Y-100340978D01*
X116265952Y-100347006D01*
X116245711Y-100527461D01*
X116244757Y-100535963D01*
X116261175Y-100731483D01*
X116315258Y-100920091D01*
X116404944Y-101094601D01*
X116408709Y-101099351D01*
X116408712Y-101099356D01*
X116523049Y-101243614D01*
X116526818Y-101248369D01*
X116531437Y-101252300D01*
X116671287Y-101371321D01*
X116676238Y-101375535D01*
X116810997Y-101450849D01*
X116859911Y-101500735D01*
X116874500Y-101559089D01*
X116874500Y-102974183D01*
X116862348Y-103026614D01*
X116858128Y-103032519D01*
X116855192Y-103042338D01*
X116853084Y-103046640D01*
X116851327Y-103051079D01*
X116846041Y-103059858D01*
X116843883Y-103069880D01*
X116843883Y-103069881D01*
X116837016Y-103101778D01*
X116834596Y-103111206D01*
X116822310Y-103152287D01*
X116822712Y-103162529D01*
X116822112Y-103167279D01*
X116821887Y-103172051D01*
X116819731Y-103182066D01*
X116820935Y-103192238D01*
X116824772Y-103224658D01*
X116825534Y-103234357D01*
X116827218Y-103277199D01*
X116830914Y-103286753D01*
X116831883Y-103291434D01*
X116833219Y-103296034D01*
X116834424Y-103306210D01*
X116838859Y-103315446D01*
X116852985Y-103344864D01*
X116856851Y-103353798D01*
X116868565Y-103384076D01*
X116872322Y-103393788D01*
X116878916Y-103401632D01*
X116882896Y-103408362D01*
X116885161Y-103411870D01*
X116888537Y-103418900D01*
X116892094Y-103423131D01*
X116919007Y-103450044D01*
X116926245Y-103457936D01*
X116952761Y-103489480D01*
X116961542Y-103494767D01*
X116969335Y-103501423D01*
X116968932Y-103501895D01*
X116977767Y-103508804D01*
X117767568Y-104298605D01*
X117801053Y-104359928D01*
X117796069Y-104429620D01*
X117754197Y-104485553D01*
X117688733Y-104509970D01*
X117639980Y-104501936D01*
X117639585Y-104503213D01*
X117452152Y-104445193D01*
X117257019Y-104424683D01*
X117250986Y-104425232D01*
X117250982Y-104425232D01*
X117087278Y-104440131D01*
X117061618Y-104442466D01*
X116993590Y-104462488D01*
X116879208Y-104496152D01*
X116879203Y-104496154D01*
X116873393Y-104497864D01*
X116868023Y-104500671D01*
X116868019Y-104500673D01*
X116782256Y-104545510D01*
X116699512Y-104588767D01*
X116694789Y-104592564D01*
X116694788Y-104592565D01*
X116591123Y-104675914D01*
X116546600Y-104711711D01*
X116420480Y-104862016D01*
X116325956Y-105033954D01*
X116324124Y-105039729D01*
X116281658Y-105173599D01*
X116266628Y-105220978D01*
X116264639Y-105238708D01*
X116250024Y-105369009D01*
X116244757Y-105415963D01*
X116261175Y-105611483D01*
X116315258Y-105800091D01*
X116318030Y-105805486D01*
X116318031Y-105805487D01*
X116326952Y-105822846D01*
X116404944Y-105974601D01*
X116408709Y-105979351D01*
X116408712Y-105979356D01*
X116515054Y-106113527D01*
X116526818Y-106128369D01*
X116676238Y-106255535D01*
X116847513Y-106351257D01*
X117034118Y-106411889D01*
X117228946Y-106435121D01*
X117234990Y-106434656D01*
X117234991Y-106434656D01*
X117326761Y-106427594D01*
X117424576Y-106420068D01*
X117430413Y-106418438D01*
X117430420Y-106418437D01*
X117502516Y-106398307D01*
X117572379Y-106399238D01*
X117630649Y-106437792D01*
X117658824Y-106501729D01*
X117647960Y-106570749D01*
X117623543Y-106605420D01*
X114872161Y-109356802D01*
X114853432Y-109371929D01*
X114852398Y-109372870D01*
X114843790Y-109378428D01*
X114837448Y-109386473D01*
X114823193Y-109404555D01*
X114819280Y-109408958D01*
X114819350Y-109409017D01*
X114816043Y-109412920D01*
X114812425Y-109416538D01*
X114801321Y-109432077D01*
X114797830Y-109436728D01*
X114766397Y-109476600D01*
X114763395Y-109485149D01*
X114758128Y-109492519D01*
X114755191Y-109502340D01*
X114743594Y-109541118D01*
X114741788Y-109546676D01*
X114740919Y-109549152D01*
X114724977Y-109594548D01*
X114724500Y-109600055D01*
X114724500Y-109602739D01*
X114724387Y-109605341D01*
X114724365Y-109605415D01*
X114724196Y-109605408D01*
X114724150Y-109606133D01*
X114722310Y-109612287D01*
X114722712Y-109622526D01*
X114722712Y-109622529D01*
X114724404Y-109665581D01*
X114724500Y-109670449D01*
X114724500Y-110012518D01*
X114707099Y-110066886D01*
X114710707Y-110068650D01*
X114659464Y-110173482D01*
X114658075Y-110183006D01*
X114658074Y-110183008D01*
X114652539Y-110220953D01*
X114649500Y-110241782D01*
X114649500Y-110531432D01*
X114629815Y-110598471D01*
X114600987Y-110629807D01*
X114572817Y-110651423D01*
X114561423Y-110662817D01*
X114473862Y-110776928D01*
X114465802Y-110790888D01*
X114410762Y-110923767D01*
X114406589Y-110939342D01*
X114392529Y-111046133D01*
X114392000Y-111054206D01*
X114392000Y-111089670D01*
X113250500Y-111089670D01*
X113250500Y-95036885D01*
X113252883Y-95012694D01*
X113253025Y-95011980D01*
X113255408Y-95000000D01*
X113253025Y-94988020D01*
X113253025Y-94975809D01*
X113253654Y-94975809D01*
X113252989Y-94965195D01*
X113267674Y-94759865D01*
X113270191Y-94742360D01*
X113319482Y-94515776D01*
X113324465Y-94498803D01*
X113405501Y-94281537D01*
X113412851Y-94265444D01*
X113523978Y-94061931D01*
X113533543Y-94047048D01*
X113672501Y-93861421D01*
X113684087Y-93848050D01*
X113848050Y-93684087D01*
X113861421Y-93672501D01*
X114047048Y-93533543D01*
X114061931Y-93523978D01*
X114265444Y-93412851D01*
X114281537Y-93405501D01*
X114498803Y-93324465D01*
X114515776Y-93319482D01*
X114742360Y-93270191D01*
X114759859Y-93267675D01*
X114965197Y-93252989D01*
X114975809Y-93253654D01*
X114975809Y-93253025D01*
X114988020Y-93253025D01*
X115000000Y-93255408D01*
X115011980Y-93253025D01*
X115012694Y-93252883D01*
X115036885Y-93250500D01*
X134963115Y-93250500D01*
X134987306Y-93252883D01*
G37*
%TD.AperFunction*%
%TA.AperFunction,Conductor*%
G36*
X129776878Y-100455710D02*
G01*
X129777260Y-100455966D01*
X129778771Y-100456267D01*
X129778776Y-100456268D01*
X129844347Y-100469311D01*
X129844350Y-100469311D01*
X129850326Y-100470500D01*
X130425500Y-100470500D01*
X130492539Y-100490185D01*
X130538294Y-100542989D01*
X130549500Y-100594500D01*
X130549500Y-101169674D01*
X130550689Y-101175650D01*
X130550689Y-101175653D01*
X130564034Y-101242740D01*
X130560495Y-101243444D01*
X130565719Y-101292010D01*
X130564290Y-101296878D01*
X130564034Y-101297260D01*
X130563733Y-101298771D01*
X130563732Y-101298776D01*
X130553565Y-101349889D01*
X130549500Y-101370326D01*
X130549500Y-101969674D01*
X130550689Y-101975650D01*
X130550689Y-101975653D01*
X130564034Y-102042740D01*
X130560495Y-102043444D01*
X130565719Y-102092010D01*
X130564290Y-102096878D01*
X130564034Y-102097260D01*
X130563733Y-102098771D01*
X130563732Y-102098776D01*
X130551116Y-102162201D01*
X130549500Y-102170326D01*
X130549500Y-102485827D01*
X130529815Y-102552866D01*
X130499865Y-102585053D01*
X130444164Y-102626798D01*
X130431799Y-102639164D01*
X130355126Y-102741468D01*
X130346727Y-102756810D01*
X130301476Y-102877515D01*
X130297909Y-102892518D01*
X130292363Y-102943573D01*
X130292000Y-102950271D01*
X130292000Y-102998170D01*
X130296404Y-103013169D01*
X130297774Y-103014356D01*
X130305332Y-103016000D01*
X132837948Y-103016000D01*
X132904987Y-103035685D01*
X132949837Y-103087444D01*
X132953774Y-103090856D01*
X132961332Y-103092500D01*
X133276000Y-103092500D01*
X133343039Y-103112185D01*
X133388794Y-103164989D01*
X133400000Y-103216500D01*
X133400000Y-103368500D01*
X133380315Y-103435539D01*
X133327511Y-103481294D01*
X133276000Y-103492500D01*
X132965830Y-103492500D01*
X132930896Y-103502758D01*
X132905656Y-103518978D01*
X132870723Y-103524000D01*
X130309831Y-103524000D01*
X130292672Y-103529038D01*
X130237527Y-103564477D01*
X130202593Y-103569500D01*
X129541949Y-103569500D01*
X129474910Y-103549815D01*
X129459460Y-103538083D01*
X129379559Y-103466893D01*
X129379558Y-103466892D01*
X129373976Y-103461919D01*
X129234831Y-103388245D01*
X129082128Y-103349889D01*
X129000329Y-103349461D01*
X128932158Y-103349104D01*
X128932157Y-103349104D01*
X128924684Y-103349065D01*
X128917421Y-103350809D01*
X128917418Y-103350809D01*
X128848136Y-103367443D01*
X128771588Y-103385820D01*
X128631679Y-103458032D01*
X128513034Y-103561533D01*
X128422501Y-103690348D01*
X128419785Y-103697313D01*
X128419785Y-103697314D01*
X128406398Y-103731650D01*
X128365309Y-103837039D01*
X128344758Y-103993138D01*
X128345578Y-104000566D01*
X128345578Y-104000568D01*
X128350101Y-104041535D01*
X128362035Y-104149633D01*
X128364601Y-104156645D01*
X128364602Y-104156649D01*
X128394206Y-104237544D01*
X128416143Y-104297490D01*
X128503958Y-104428172D01*
X128525174Y-104447477D01*
X128614878Y-104529102D01*
X128614882Y-104529105D01*
X128620410Y-104534135D01*
X128626980Y-104537702D01*
X128626981Y-104537703D01*
X128715857Y-104585959D01*
X128758776Y-104609262D01*
X128911069Y-104649215D01*
X128910751Y-104650426D01*
X128967566Y-104675914D01*
X128974673Y-104682487D01*
X130266625Y-105974439D01*
X130274128Y-105983828D01*
X130274490Y-105983520D01*
X130280215Y-105990246D01*
X130284930Y-105997720D01*
X130300954Y-106011872D01*
X130324643Y-106032793D01*
X130330241Y-106038055D01*
X130341507Y-106049321D01*
X130349745Y-106055495D01*
X130357460Y-106061776D01*
X130392388Y-106092623D01*
X130400387Y-106096379D01*
X130402811Y-106097971D01*
X130417595Y-106106854D01*
X130420107Y-106108229D01*
X130427176Y-106113527D01*
X130435446Y-106116627D01*
X130435451Y-106116630D01*
X130469027Y-106129217D01*
X130524891Y-106171181D01*
X130549199Y-106236686D01*
X130549500Y-106245326D01*
X130549500Y-106745500D01*
X130529815Y-106812539D01*
X130477011Y-106858294D01*
X130425500Y-106869500D01*
X129850326Y-106869500D01*
X129844350Y-106870689D01*
X129844347Y-106870689D01*
X129777260Y-106884034D01*
X129776556Y-106880495D01*
X129727990Y-106885719D01*
X129723122Y-106884290D01*
X129722740Y-106884034D01*
X129721229Y-106883733D01*
X129721224Y-106883732D01*
X129655653Y-106870689D01*
X129655650Y-106870689D01*
X129649674Y-106869500D01*
X129050326Y-106869500D01*
X129044350Y-106870689D01*
X129044347Y-106870689D01*
X128977260Y-106884034D01*
X128976556Y-106880495D01*
X128927990Y-106885719D01*
X128923122Y-106884290D01*
X128922740Y-106884034D01*
X128921229Y-106883733D01*
X128921224Y-106883732D01*
X128855653Y-106870689D01*
X128855650Y-106870689D01*
X128849674Y-106869500D01*
X128250326Y-106869500D01*
X128244350Y-106870689D01*
X128244347Y-106870689D01*
X128177260Y-106884034D01*
X128176556Y-106880495D01*
X128127990Y-106885719D01*
X128123122Y-106884290D01*
X128122740Y-106884034D01*
X128121229Y-106883733D01*
X128121224Y-106883732D01*
X128055653Y-106870689D01*
X128055650Y-106870689D01*
X128049674Y-106869500D01*
X127450326Y-106869500D01*
X127444350Y-106870689D01*
X127444347Y-106870689D01*
X127377260Y-106884034D01*
X127376556Y-106880495D01*
X127327990Y-106885719D01*
X127323122Y-106884290D01*
X127322740Y-106884034D01*
X127321229Y-106883733D01*
X127321224Y-106883732D01*
X127255653Y-106870689D01*
X127255650Y-106870689D01*
X127249674Y-106869500D01*
X126650326Y-106869500D01*
X126644350Y-106870689D01*
X126644347Y-106870689D01*
X126577260Y-106884034D01*
X126576556Y-106880495D01*
X126527990Y-106885719D01*
X126523122Y-106884290D01*
X126522740Y-106884034D01*
X126521229Y-106883733D01*
X126521224Y-106883732D01*
X126455653Y-106870689D01*
X126455650Y-106870689D01*
X126449674Y-106869500D01*
X125850326Y-106869500D01*
X125844350Y-106870689D01*
X125844347Y-106870689D01*
X125777260Y-106884034D01*
X125776556Y-106880495D01*
X125727990Y-106885719D01*
X125723122Y-106884290D01*
X125722740Y-106884034D01*
X125721229Y-106883733D01*
X125721224Y-106883732D01*
X125655653Y-106870689D01*
X125655650Y-106870689D01*
X125649674Y-106869500D01*
X125050326Y-106869500D01*
X125044350Y-106870689D01*
X125044347Y-106870689D01*
X124977260Y-106884034D01*
X124976556Y-106880495D01*
X124927990Y-106885719D01*
X124923122Y-106884290D01*
X124922740Y-106884034D01*
X124921229Y-106883733D01*
X124921224Y-106883732D01*
X124855653Y-106870689D01*
X124855650Y-106870689D01*
X124849674Y-106869500D01*
X124274500Y-106869500D01*
X124207461Y-106849815D01*
X124161706Y-106797011D01*
X124150500Y-106745500D01*
X124150500Y-106170326D01*
X124148475Y-106160143D01*
X124135966Y-106097260D01*
X124139505Y-106096556D01*
X124134281Y-106047990D01*
X124135710Y-106043122D01*
X124135966Y-106042740D01*
X124137440Y-106035333D01*
X124149311Y-105975653D01*
X124149311Y-105975650D01*
X124150500Y-105969674D01*
X124150500Y-105481803D01*
X124170185Y-105414764D01*
X124222989Y-105369009D01*
X124232774Y-105365800D01*
X124232536Y-105365141D01*
X124232538Y-105365141D01*
X124239776Y-105362528D01*
X124260384Y-105357390D01*
X124263168Y-105356576D01*
X124271918Y-105355323D01*
X124314348Y-105336031D01*
X124323554Y-105332284D01*
X124359075Y-105319461D01*
X124359077Y-105319460D01*
X124367387Y-105316460D01*
X124374525Y-105311245D01*
X124377085Y-105309884D01*
X124391955Y-105301195D01*
X124394385Y-105299641D01*
X124402428Y-105295984D01*
X124437743Y-105265554D01*
X124445531Y-105259371D01*
X124456336Y-105251478D01*
X124467136Y-105240678D01*
X124473875Y-105234421D01*
X124504345Y-105208167D01*
X124504348Y-105208164D01*
X124511037Y-105202400D01*
X124515843Y-105194985D01*
X124521185Y-105188861D01*
X124530651Y-105177163D01*
X125804439Y-103903375D01*
X125813828Y-103895872D01*
X125813520Y-103895510D01*
X125820246Y-103889785D01*
X125827720Y-103885070D01*
X125862793Y-103845357D01*
X125868055Y-103839759D01*
X125879321Y-103828493D01*
X125885499Y-103820251D01*
X125891777Y-103812539D01*
X125916774Y-103784235D01*
X125916774Y-103784234D01*
X125922623Y-103777612D01*
X125926379Y-103769613D01*
X125927971Y-103767189D01*
X125936860Y-103752396D01*
X125938233Y-103749888D01*
X125943527Y-103742824D01*
X125946573Y-103734697D01*
X125974732Y-103700047D01*
X125976665Y-103698396D01*
X125976666Y-103698395D01*
X125982348Y-103693542D01*
X126074224Y-103565683D01*
X126132950Y-103419598D01*
X126134982Y-103405320D01*
X126154562Y-103267744D01*
X126154562Y-103267740D01*
X126155134Y-103263723D01*
X126155278Y-103250000D01*
X126153386Y-103234364D01*
X126137262Y-103101119D01*
X126137261Y-103101115D01*
X126136363Y-103093694D01*
X126125054Y-103063766D01*
X126083354Y-102953408D01*
X126083352Y-102953405D01*
X126080710Y-102946412D01*
X126076473Y-102940247D01*
X126007385Y-102839724D01*
X125985635Y-102773325D01*
X126003236Y-102705709D01*
X126054600Y-102658342D01*
X126081889Y-102648620D01*
X126163281Y-102629979D01*
X126214682Y-102618207D01*
X126214684Y-102618206D01*
X126221968Y-102616538D01*
X126362625Y-102545795D01*
X126368306Y-102540943D01*
X126368309Y-102540941D01*
X126476666Y-102448395D01*
X126476667Y-102448394D01*
X126482348Y-102443542D01*
X126493393Y-102428172D01*
X126513798Y-102399775D01*
X126574224Y-102315683D01*
X126632950Y-102169598D01*
X126635701Y-102150271D01*
X126654562Y-102017744D01*
X126654562Y-102017740D01*
X126655134Y-102013723D01*
X126655278Y-102000000D01*
X126650871Y-101963579D01*
X126649116Y-101949077D01*
X126660604Y-101880159D01*
X126684537Y-101846500D01*
X127177839Y-101353198D01*
X127196568Y-101338071D01*
X127197602Y-101337130D01*
X127206210Y-101331572D01*
X127226807Y-101305445D01*
X127230720Y-101301042D01*
X127230650Y-101300983D01*
X127233957Y-101297080D01*
X127237575Y-101293462D01*
X127248681Y-101277920D01*
X127252170Y-101273272D01*
X127283603Y-101233400D01*
X127286605Y-101224851D01*
X127291872Y-101217481D01*
X127306410Y-101168869D01*
X127308215Y-101163315D01*
X127322438Y-101122814D01*
X127322439Y-101122812D01*
X127325023Y-101115452D01*
X127325500Y-101109945D01*
X127325500Y-101107262D01*
X127325613Y-101104663D01*
X127325636Y-101104585D01*
X127325804Y-101104592D01*
X127325849Y-101103871D01*
X127327691Y-101097713D01*
X127325596Y-101044394D01*
X127325500Y-101039526D01*
X127325500Y-100594419D01*
X127345185Y-100527380D01*
X127397989Y-100481625D01*
X127450326Y-100472892D01*
X127450326Y-100470500D01*
X128049674Y-100470500D01*
X128055650Y-100469311D01*
X128055653Y-100469311D01*
X128122740Y-100455966D01*
X128123444Y-100459505D01*
X128172010Y-100454281D01*
X128176878Y-100455710D01*
X128177260Y-100455966D01*
X128178771Y-100456267D01*
X128178776Y-100456268D01*
X128244347Y-100469311D01*
X128244350Y-100469311D01*
X128250326Y-100470500D01*
X128849674Y-100470500D01*
X128855650Y-100469311D01*
X128855653Y-100469311D01*
X128922740Y-100455966D01*
X128923444Y-100459505D01*
X128972010Y-100454281D01*
X128976878Y-100455710D01*
X128977260Y-100455966D01*
X128978771Y-100456267D01*
X128978776Y-100456268D01*
X129044347Y-100469311D01*
X129044350Y-100469311D01*
X129050326Y-100470500D01*
X129649674Y-100470500D01*
X129655650Y-100469311D01*
X129655653Y-100469311D01*
X129722740Y-100455966D01*
X129723444Y-100459505D01*
X129772010Y-100454281D01*
X129776878Y-100455710D01*
G37*
%TD.AperFunction*%
%TD*%
M02*
