%TF.GenerationSoftware,KiCad,Pcbnew,6.0.11+dfsg-1~bpo11+1*%
%TF.CreationDate,2023-08-17T01:34:46-07:00*%
%TF.ProjectId,electrical_intro_project,656c6563-7472-4696-9361-6c5f696e7472,rev?*%
%TF.SameCoordinates,Original*%
%TF.FileFunction,Paste,Top*%
%TF.FilePolarity,Positive*%
%FSLAX46Y46*%
G04 Gerber Fmt 4.6, Leading zero omitted, Abs format (unit mm)*
G04 Created by KiCad (PCBNEW 6.0.11+dfsg-1~bpo11+1) date 2023-08-17 01:34:46*
%MOMM*%
%LPD*%
G01*
G04 APERTURE LIST*
G04 Aperture macros list*
%AMRoundRect*
0 Rectangle with rounded corners*
0 $1 Rounding radius*
0 $2 $3 $4 $5 $6 $7 $8 $9 X,Y pos of 4 corners*
0 Add a 4 corners polygon primitive as box body*
4,1,4,$2,$3,$4,$5,$6,$7,$8,$9,$2,$3,0*
0 Add four circle primitives for the rounded corners*
1,1,$1+$1,$2,$3*
1,1,$1+$1,$4,$5*
1,1,$1+$1,$6,$7*
1,1,$1+$1,$8,$9*
0 Add four rect primitives between the rounded corners*
20,1,$1+$1,$2,$3,$4,$5,0*
20,1,$1+$1,$4,$5,$6,$7,0*
20,1,$1+$1,$6,$7,$8,$9,0*
20,1,$1+$1,$8,$9,$2,$3,0*%
G04 Aperture macros list end*
%ADD10R,0.550000X1.600000*%
%ADD11R,1.600000X0.550000*%
%ADD12RoundRect,0.237500X-0.250000X-0.237500X0.250000X-0.237500X0.250000X0.237500X-0.250000X0.237500X0*%
%ADD13RoundRect,0.237500X0.237500X-0.250000X0.237500X0.250000X-0.237500X0.250000X-0.237500X-0.250000X0*%
%ADD14RoundRect,0.250001X-0.462499X-0.624999X0.462499X-0.624999X0.462499X0.624999X-0.462499X0.624999X0*%
%ADD15RoundRect,0.090000X-0.090000X0.139000X-0.090000X-0.139000X0.090000X-0.139000X0.090000X0.139000X0*%
%ADD16RoundRect,0.090000X0.139000X0.090000X-0.139000X0.090000X-0.139000X-0.090000X0.139000X-0.090000X0*%
%ADD17RoundRect,0.090000X0.090000X-0.139000X0.090000X0.139000X-0.090000X0.139000X-0.090000X-0.139000X0*%
G04 APERTURE END LIST*
D10*
%TO.C,U1*%
X124550000Y-99420000D03*
X125350000Y-99420000D03*
X126150000Y-99420000D03*
X126950000Y-99420000D03*
X127750000Y-99420000D03*
X128550000Y-99420000D03*
X129350000Y-99420000D03*
X130150000Y-99420000D03*
D11*
X131600000Y-100870000D03*
X131600000Y-101670000D03*
X131600000Y-102470000D03*
X131600000Y-103270000D03*
X131600000Y-104070000D03*
X131600000Y-104870000D03*
X131600000Y-105670000D03*
X131600000Y-106470000D03*
D10*
X130150000Y-107920000D03*
X129350000Y-107920000D03*
X128550000Y-107920000D03*
X127750000Y-107920000D03*
X126950000Y-107920000D03*
X126150000Y-107920000D03*
X125350000Y-107920000D03*
X124550000Y-107920000D03*
D11*
X123100000Y-106470000D03*
X123100000Y-105670000D03*
X123100000Y-104870000D03*
X123100000Y-104070000D03*
X123100000Y-103270000D03*
X123100000Y-102470000D03*
X123100000Y-101670000D03*
X123100000Y-100870000D03*
%TD*%
D12*
%TO.C,R3*%
X117887500Y-110800000D03*
X119712500Y-110800000D03*
%TD*%
D13*
%TO.C,R2*%
X134500000Y-108325000D03*
X134500000Y-106500000D03*
%TD*%
D12*
%TO.C,R1*%
X122837500Y-96750000D03*
X124662500Y-96750000D03*
%TD*%
D14*
%TO.C,D1*%
X128762500Y-96750000D03*
X131737500Y-96750000D03*
%TD*%
D15*
%TO.C,C3*%
X115100000Y-111332500D03*
X115100000Y-110467500D03*
%TD*%
D16*
%TO.C,C2*%
X117367500Y-95900000D03*
X118232500Y-95900000D03*
%TD*%
D17*
%TO.C,C1*%
X133200000Y-103267500D03*
X133200000Y-104132500D03*
%TD*%
M02*
