%TF.GenerationSoftware,KiCad,Pcbnew,6.0.11+dfsg-1*%
%TF.CreationDate,2023-09-04T21:51:09-07:00*%
%TF.ProjectId,electrical_intro_project,656c6563-7472-4696-9361-6c5f696e7472,rev?*%
%TF.SameCoordinates,Original*%
%TF.FileFunction,Copper,L1,Top*%
%TF.FilePolarity,Positive*%
%FSLAX46Y46*%
G04 Gerber Fmt 4.6, Leading zero omitted, Abs format (unit mm)*
G04 Created by KiCad (PCBNEW 6.0.11+dfsg-1) date 2023-09-04 21:51:09*
%MOMM*%
%LPD*%
G01*
G04 APERTURE LIST*
G04 Aperture macros list*
%AMRoundRect*
0 Rectangle with rounded corners*
0 $1 Rounding radius*
0 $2 $3 $4 $5 $6 $7 $8 $9 X,Y pos of 4 corners*
0 Add a 4 corners polygon primitive as box body*
4,1,4,$2,$3,$4,$5,$6,$7,$8,$9,$2,$3,0*
0 Add four circle primitives for the rounded corners*
1,1,$1+$1,$2,$3*
1,1,$1+$1,$4,$5*
1,1,$1+$1,$6,$7*
1,1,$1+$1,$8,$9*
0 Add four rect primitives between the rounded corners*
20,1,$1+$1,$2,$3,$4,$5,0*
20,1,$1+$1,$4,$5,$6,$7,0*
20,1,$1+$1,$6,$7,$8,$9,0*
20,1,$1+$1,$8,$9,$2,$3,0*%
G04 Aperture macros list end*
%TA.AperFunction,SMDPad,CuDef*%
%ADD10RoundRect,0.237500X0.250000X0.237500X-0.250000X0.237500X-0.250000X-0.237500X0.250000X-0.237500X0*%
%TD*%
%TA.AperFunction,SMDPad,CuDef*%
%ADD11R,1.000000X1.000000*%
%TD*%
%TA.AperFunction,SMDPad,CuDef*%
%ADD12RoundRect,0.250001X0.624999X-0.462499X0.624999X0.462499X-0.624999X0.462499X-0.624999X-0.462499X0*%
%TD*%
%TA.AperFunction,SMDPad,CuDef*%
%ADD13RoundRect,0.237500X0.237500X-0.250000X0.237500X0.250000X-0.237500X0.250000X-0.237500X-0.250000X0*%
%TD*%
%TA.AperFunction,SMDPad,CuDef*%
%ADD14RoundRect,0.237500X-0.237500X0.300000X-0.237500X-0.300000X0.237500X-0.300000X0.237500X0.300000X0*%
%TD*%
%TA.AperFunction,SMDPad,CuDef*%
%ADD15R,2.000000X1.500000*%
%TD*%
%TA.AperFunction,SMDPad,CuDef*%
%ADD16R,2.000000X3.800000*%
%TD*%
%TA.AperFunction,ComponentPad*%
%ADD17C,5.000000*%
%TD*%
%TA.AperFunction,ComponentPad*%
%ADD18R,1.700000X1.700000*%
%TD*%
%TA.AperFunction,ComponentPad*%
%ADD19O,1.700000X1.700000*%
%TD*%
%TA.AperFunction,ComponentPad*%
%ADD20C,1.500000*%
%TD*%
%TA.AperFunction,SMDPad,CuDef*%
%ADD21RoundRect,0.237500X0.237500X-0.300000X0.237500X0.300000X-0.237500X0.300000X-0.237500X-0.300000X0*%
%TD*%
%TA.AperFunction,SMDPad,CuDef*%
%ADD22R,1.600000X0.550000*%
%TD*%
%TA.AperFunction,SMDPad,CuDef*%
%ADD23R,0.550000X1.600000*%
%TD*%
%TA.AperFunction,ComponentPad*%
%ADD24C,2.000000*%
%TD*%
%TA.AperFunction,ViaPad*%
%ADD25C,0.800000*%
%TD*%
%TA.AperFunction,Conductor*%
%ADD26C,0.500000*%
%TD*%
%TA.AperFunction,Conductor*%
%ADD27C,1.000000*%
%TD*%
%TA.AperFunction,Conductor*%
%ADD28C,0.300000*%
%TD*%
G04 APERTURE END LIST*
D10*
%TO.P,R1,1*%
%TO.N,GND*%
X145805000Y-123190000D03*
%TO.P,R1,2*%
%TO.N,Net-(D1-Pad1)*%
X143980000Y-123190000D03*
%TD*%
D11*
%TO.P,TP1,1,1*%
%TO.N,button_pin*%
X160020000Y-107950000D03*
%TD*%
D12*
%TO.P,D1,1,K*%
%TO.N,Net-(D1-Pad1)*%
X142875000Y-120972500D03*
%TO.P,D1,2,A*%
%TO.N,led_pin*%
X142875000Y-117997500D03*
%TD*%
D13*
%TO.P,R3,1*%
%TO.N,RST*%
X145415000Y-120650000D03*
%TO.P,R3,2*%
%TO.N,+5V*%
X145415000Y-118825000D03*
%TD*%
D14*
%TO.P,C4,1*%
%TO.N,Net-(C4-Pad1)*%
X139400000Y-96585000D03*
%TO.P,C4,2*%
%TO.N,GND*%
X139400000Y-98310000D03*
%TD*%
D15*
%TO.P,U2,1,IN*%
%TO.N,Net-(C4-Pad1)*%
X141750000Y-97010000D03*
%TO.P,U2,2,GND*%
%TO.N,GND*%
X141750000Y-99310000D03*
%TO.P,U2,3,OUT*%
%TO.N,+5V*%
X141750000Y-101610000D03*
D16*
%TO.P,U2,4*%
%TO.N,N/C*%
X148050000Y-99310000D03*
%TD*%
D17*
%TO.P,TP6,1,1*%
%TO.N,GND*%
X155400000Y-88560000D03*
%TD*%
D18*
%TO.P,J1,1,MISO*%
%TO.N,MISO*%
X153525000Y-119725000D03*
D19*
%TO.P,J1,2,VCC*%
%TO.N,+5V*%
X153525000Y-122265000D03*
%TO.P,J1,3,SCK*%
%TO.N,SCK*%
X150985000Y-119725000D03*
%TO.P,J1,4,MOSI*%
%TO.N,MOSI*%
X150985000Y-122265000D03*
%TO.P,J1,5,~{RST}*%
%TO.N,RST*%
X148445000Y-119725000D03*
%TO.P,J1,6,GND*%
%TO.N,GND*%
X148445000Y-122265000D03*
%TD*%
D20*
%TO.P,Y1,1,1*%
%TO.N,XTAL1*%
X139250000Y-108300000D03*
%TO.P,Y1,2,2*%
%TO.N,XTAL2*%
X139250000Y-113180000D03*
%TD*%
D11*
%TO.P,TP2,1,1*%
%TO.N,led_pin*%
X140335000Y-118110000D03*
%TD*%
D21*
%TO.P,C1,1*%
%TO.N,+5V*%
X156210000Y-112375000D03*
%TO.P,C1,2*%
%TO.N,GND*%
X156210000Y-110650000D03*
%TD*%
D22*
%TO.P,U1,1,PD3*%
%TO.N,unconnected-(U1-Pad1)*%
X145750000Y-108700000D03*
%TO.P,U1,2,PD4*%
%TO.N,unconnected-(U1-Pad2)*%
X145750000Y-109500000D03*
%TO.P,U1,3,GND*%
%TO.N,GND*%
X145750000Y-110300000D03*
%TO.P,U1,4,VCC*%
%TO.N,+5V*%
X145750000Y-111100000D03*
%TO.P,U1,5,GND*%
%TO.N,GND*%
X145750000Y-111900000D03*
%TO.P,U1,6,VCC*%
%TO.N,+5V*%
X145750000Y-112700000D03*
%TO.P,U1,7,XTAL1/PB6*%
%TO.N,XTAL1*%
X145750000Y-113500000D03*
%TO.P,U1,8,XTAL2/PB7*%
%TO.N,XTAL2*%
X145750000Y-114300000D03*
D23*
%TO.P,U1,9,PD5*%
%TO.N,unconnected-(U1-Pad9)*%
X147200000Y-115750000D03*
%TO.P,U1,10,PD6*%
%TO.N,led_pin*%
X148000000Y-115750000D03*
%TO.P,U1,11,PD7*%
%TO.N,unconnected-(U1-Pad11)*%
X148800000Y-115750000D03*
%TO.P,U1,12,PB0*%
%TO.N,unconnected-(U1-Pad12)*%
X149600000Y-115750000D03*
%TO.P,U1,13,PB1*%
%TO.N,unconnected-(U1-Pad13)*%
X150400000Y-115750000D03*
%TO.P,U1,14,PB2*%
%TO.N,unconnected-(U1-Pad14)*%
X151200000Y-115750000D03*
%TO.P,U1,15,PB3*%
%TO.N,MOSI*%
X152000000Y-115750000D03*
%TO.P,U1,16,PB4*%
%TO.N,MISO*%
X152800000Y-115750000D03*
D22*
%TO.P,U1,17,PB5*%
%TO.N,SCK*%
X154250000Y-114300000D03*
%TO.P,U1,18,AVCC*%
%TO.N,+5V*%
X154250000Y-113500000D03*
%TO.P,U1,19,ADC6*%
%TO.N,unconnected-(U1-Pad19)*%
X154250000Y-112700000D03*
%TO.P,U1,20,AREF*%
%TO.N,+5V*%
X154250000Y-111900000D03*
%TO.P,U1,21,GND*%
%TO.N,GND*%
X154250000Y-111100000D03*
%TO.P,U1,22,ADC7*%
%TO.N,unconnected-(U1-Pad22)*%
X154250000Y-110300000D03*
%TO.P,U1,23,PC0*%
%TO.N,button_pin*%
X154250000Y-109500000D03*
%TO.P,U1,24,PC1*%
%TO.N,unconnected-(U1-Pad24)*%
X154250000Y-108700000D03*
D23*
%TO.P,U1,25,PC2*%
%TO.N,unconnected-(U1-Pad25)*%
X152800000Y-107250000D03*
%TO.P,U1,26,PC3*%
%TO.N,unconnected-(U1-Pad26)*%
X152000000Y-107250000D03*
%TO.P,U1,27,PC4*%
%TO.N,unconnected-(U1-Pad27)*%
X151200000Y-107250000D03*
%TO.P,U1,28,PC5*%
%TO.N,unconnected-(U1-Pad28)*%
X150400000Y-107250000D03*
%TO.P,U1,29,~{RESET}/PC6*%
%TO.N,RST*%
X149600000Y-107250000D03*
%TO.P,U1,30,PD0*%
%TO.N,USART_RX*%
X148800000Y-107250000D03*
%TO.P,U1,31,PD1*%
%TO.N,USART_TX*%
X148000000Y-107250000D03*
%TO.P,U1,32,PD2*%
%TO.N,unconnected-(U1-Pad32)*%
X147200000Y-107250000D03*
%TD*%
D18*
%TO.P,J2,1,Pin_1*%
%TO.N,GND*%
X151765000Y-98440000D03*
D19*
%TO.P,J2,2,Pin_2*%
%TO.N,USART_TX*%
X151765000Y-100980000D03*
%TO.P,J2,3,Pin_3*%
%TO.N,USART_RX*%
X151765000Y-103520000D03*
%TD*%
D14*
%TO.P,C2,1*%
%TO.N,GND*%
X143000000Y-108500000D03*
%TO.P,C2,2*%
%TO.N,XTAL1*%
X143000000Y-110225000D03*
%TD*%
D21*
%TO.P,C5,1*%
%TO.N,+5V*%
X139400000Y-102060000D03*
%TO.P,C5,2*%
%TO.N,GND*%
X139400000Y-100335000D03*
%TD*%
D24*
%TO.P,SW1,1,1*%
%TO.N,GND*%
X155460000Y-98100000D03*
X155460000Y-104600000D03*
%TO.P,SW1,2,2*%
%TO.N,button_pin*%
X159960000Y-104600000D03*
X159960000Y-98100000D03*
%TD*%
D21*
%TO.P,C3,1*%
%TO.N,XTAL2*%
X143000000Y-114112500D03*
%TO.P,C3,2*%
%TO.N,GND*%
X143000000Y-112387500D03*
%TD*%
D17*
%TO.P,TP5,1,1*%
%TO.N,Net-(C4-Pad1)*%
X143150000Y-88560000D03*
%TD*%
D25*
%TO.N,+5V*%
X145415000Y-118745000D03*
X151384000Y-112014000D03*
X149871000Y-112003000D03*
X141732000Y-103378000D03*
X157734000Y-112395000D03*
%TO.N,GND*%
X143000000Y-105666000D03*
X137922000Y-103632000D03*
X157861000Y-109601000D03*
X141478000Y-112268000D03*
%TO.N,XTAL1*%
X141175000Y-110225000D03*
X144018000Y-113030000D03*
%TO.N,SCK*%
X154500000Y-115750000D03*
%TO.N,RST*%
X149500000Y-110000000D03*
%TD*%
D26*
%TO.N,+5V*%
X152870000Y-113500000D02*
X151384000Y-112014000D01*
D27*
X141750000Y-103360000D02*
X141732000Y-103378000D01*
D26*
X147828000Y-112014000D02*
X147828000Y-112003000D01*
X154250000Y-113500000D02*
X152870000Y-113500000D01*
X155735000Y-111900000D02*
X156210000Y-112375000D01*
X147828000Y-112003000D02*
X151373000Y-112003000D01*
X145750000Y-112700000D02*
X147142000Y-112700000D01*
X156210000Y-112375000D02*
X157714000Y-112375000D01*
X151498000Y-111900000D02*
X151384000Y-112014000D01*
X146914000Y-111100000D02*
X147828000Y-112014000D01*
X154250000Y-111900000D02*
X155735000Y-111900000D01*
X145415000Y-118825000D02*
X145415000Y-118745000D01*
D27*
X139400000Y-102060000D02*
X141300000Y-102060000D01*
D26*
X151373000Y-112003000D02*
X151384000Y-112014000D01*
D27*
X141300000Y-102060000D02*
X141750000Y-101610000D01*
X141750000Y-101610000D02*
X141750000Y-103360000D01*
D26*
X145750000Y-111100000D02*
X146914000Y-111100000D01*
X157714000Y-112375000D02*
X157734000Y-112395000D01*
X154250000Y-111900000D02*
X151498000Y-111900000D01*
X147142000Y-112700000D02*
X147828000Y-112014000D01*
%TO.N,GND*%
X155760000Y-111100000D02*
X156210000Y-110650000D01*
X144575000Y-111900000D02*
X145750000Y-111900000D01*
D27*
X138425000Y-100335000D02*
X137922000Y-100838000D01*
X141597500Y-112387500D02*
X141478000Y-112268000D01*
D26*
X144018000Y-111343000D02*
X144575000Y-111900000D01*
X145750000Y-110300000D02*
X144716000Y-110300000D01*
X144018000Y-111369500D02*
X143000000Y-112387500D01*
X156812000Y-110650000D02*
X157861000Y-109601000D01*
D27*
X143000000Y-112387500D02*
X141597500Y-112387500D01*
D26*
X148946000Y-111100000D02*
X148146000Y-110300000D01*
D27*
X143000000Y-105666000D02*
X143000000Y-108500000D01*
D26*
X144018000Y-111343000D02*
X144018000Y-111369500D01*
X148146000Y-110300000D02*
X145750000Y-110300000D01*
X154250000Y-111100000D02*
X148946000Y-111100000D01*
X144018000Y-110998000D02*
X144018000Y-111343000D01*
D27*
X137922000Y-100838000D02*
X137922000Y-103632000D01*
D26*
X144716000Y-110300000D02*
X144018000Y-110998000D01*
X154250000Y-111100000D02*
X155760000Y-111100000D01*
D27*
X139400000Y-100335000D02*
X138425000Y-100335000D01*
D26*
X156210000Y-110650000D02*
X156812000Y-110650000D01*
D28*
%TO.N,XTAL1*%
X145750000Y-113500000D02*
X144394150Y-113500000D01*
X139250000Y-108300000D02*
X141175000Y-110225000D01*
X143475000Y-110225000D02*
X143000000Y-110225000D01*
X144018000Y-113123850D02*
X144394150Y-113500000D01*
X141175000Y-110225000D02*
X143250000Y-110225000D01*
X144018000Y-113030000D02*
X144018000Y-113123850D01*
%TO.N,XTAL2*%
X140182500Y-114112500D02*
X139250000Y-113180000D01*
X145750000Y-114300000D02*
X143437500Y-114300000D01*
X143437500Y-114300000D02*
X143250000Y-114112500D01*
X143250000Y-114112500D02*
X140182500Y-114112500D01*
D26*
%TO.N,Net-(D1-Pad1)*%
X142875000Y-120972500D02*
X142875000Y-122085000D01*
X142875000Y-122085000D02*
X143980000Y-123190000D01*
%TO.N,led_pin*%
X143342500Y-117530000D02*
X142875000Y-117997500D01*
X148000000Y-116795000D02*
X147265000Y-117530000D01*
X142875000Y-117997500D02*
X140447500Y-117997500D01*
X140447500Y-117997500D02*
X140335000Y-118110000D01*
X148000000Y-115750000D02*
X148000000Y-116795000D01*
X147265000Y-117530000D02*
X143342500Y-117530000D01*
D28*
%TO.N,MISO*%
X153525000Y-116475000D02*
X152800000Y-115750000D01*
X153525000Y-119725000D02*
X153525000Y-116475000D01*
%TO.N,SCK*%
X154500000Y-115750000D02*
X154500000Y-114550000D01*
X154500000Y-114550000D02*
X154250000Y-114300000D01*
%TO.N,MOSI*%
X150985000Y-122265000D02*
X152325000Y-120925000D01*
X152000000Y-116575000D02*
X152000000Y-115750000D01*
X152325000Y-120925000D02*
X152325000Y-116900000D01*
X152325000Y-116900000D02*
X152000000Y-116575000D01*
D26*
%TO.N,RST*%
X147520000Y-120650000D02*
X148445000Y-119725000D01*
D28*
X149500000Y-110000000D02*
X149500000Y-107350000D01*
X149500000Y-107350000D02*
X149600000Y-107250000D01*
D26*
X145415000Y-120650000D02*
X147520000Y-120650000D01*
%TO.N,button_pin*%
X160020000Y-104660000D02*
X159960000Y-104600000D01*
X154250000Y-109500000D02*
X156565000Y-109500000D01*
X158115000Y-107950000D02*
X160020000Y-107950000D01*
X156565000Y-109500000D02*
X158115000Y-107950000D01*
X160020000Y-107950000D02*
X160020000Y-104660000D01*
X159960000Y-104600000D02*
X159960000Y-98100000D01*
%TO.N,USART_TX*%
X148000000Y-107250000D02*
X148000000Y-104745000D01*
X148000000Y-104745000D02*
X151765000Y-100980000D01*
%TO.N,USART_RX*%
X148800000Y-105200000D02*
X150480000Y-103520000D01*
X150480000Y-103520000D02*
X151765000Y-103520000D01*
X148800000Y-107250000D02*
X148800000Y-105200000D01*
D27*
%TO.N,Net-(C4-Pad1)*%
X141325000Y-96585000D02*
X141750000Y-97010000D01*
X139400000Y-96585000D02*
X141325000Y-96585000D01*
%TD*%
%TA.AperFunction,Conductor*%
%TO.N,GND*%
G36*
X159900000Y-85810000D02*
G01*
X159900000Y-91810000D01*
X158150000Y-93560000D01*
X150900000Y-93560000D01*
X150150000Y-94310000D01*
X150150000Y-100810000D01*
X149150000Y-101810000D01*
X144400000Y-101810000D01*
X143824674Y-101234674D01*
X146799500Y-101234674D01*
X146814034Y-101307740D01*
X146869399Y-101390601D01*
X146952260Y-101445966D01*
X147025326Y-101460500D01*
X149074674Y-101460500D01*
X149147740Y-101445966D01*
X149230601Y-101390601D01*
X149285966Y-101307740D01*
X149300500Y-101234674D01*
X149300500Y-97385326D01*
X149285966Y-97312260D01*
X149273244Y-97293219D01*
X149237493Y-97239714D01*
X149230601Y-97229399D01*
X149147740Y-97174034D01*
X149074674Y-97159500D01*
X147025326Y-97159500D01*
X146952260Y-97174034D01*
X146869399Y-97229399D01*
X146862507Y-97239714D01*
X146826757Y-97293219D01*
X146814034Y-97312260D01*
X146799500Y-97385326D01*
X146799500Y-101234674D01*
X143824674Y-101234674D01*
X142650000Y-100060000D01*
X141900000Y-100060000D01*
X141900000Y-98560000D01*
X143400000Y-98560000D01*
X143900000Y-98060000D01*
X143900000Y-95310000D01*
X150150000Y-89060000D01*
X150150000Y-85560000D01*
X151650000Y-84060000D01*
X158150000Y-84060000D01*
X159900000Y-85810000D01*
G37*
%TD.AperFunction*%
%TD*%
%TA.AperFunction,Conductor*%
%TO.N,GND*%
G36*
X140150173Y-97883637D02*
G01*
X140326363Y-98059827D01*
X140327616Y-98060953D01*
X140327626Y-98060962D01*
X140346088Y-98077545D01*
X140358646Y-98088826D01*
X140379620Y-98105729D01*
X140405188Y-98124727D01*
X140410780Y-98127378D01*
X140515350Y-98176951D01*
X140515354Y-98176953D01*
X140518393Y-98178393D01*
X140900000Y-98560000D01*
X141900000Y-98560000D01*
X141900000Y-100060000D01*
X140900000Y-100060000D01*
X140150000Y-100810000D01*
X138650000Y-100810000D01*
X138650000Y-97810000D01*
X140095049Y-97810000D01*
X140150173Y-97883637D01*
G37*
%TD.AperFunction*%
%TD*%
%TA.AperFunction,Conductor*%
%TO.N,GND*%
G36*
X157458274Y-81682051D02*
G01*
X157480000Y-81685492D01*
X157492174Y-81683564D01*
X157517379Y-81682132D01*
X157882350Y-81698067D01*
X157893298Y-81699025D01*
X158287144Y-81750875D01*
X158297949Y-81752781D01*
X158685779Y-81838761D01*
X158696389Y-81841604D01*
X159075240Y-81961055D01*
X159085553Y-81964808D01*
X159452575Y-82116834D01*
X159462519Y-82121472D01*
X159814867Y-82304892D01*
X159824387Y-82310388D01*
X160159406Y-82523819D01*
X160168410Y-82530123D01*
X160483566Y-82771950D01*
X160491986Y-82779016D01*
X160784850Y-83047377D01*
X160792623Y-83055150D01*
X161060984Y-83348014D01*
X161068050Y-83356434D01*
X161309877Y-83671590D01*
X161316181Y-83680594D01*
X161529612Y-84015613D01*
X161535108Y-84025133D01*
X161718524Y-84377472D01*
X161723170Y-84387434D01*
X161875189Y-84754439D01*
X161878948Y-84764768D01*
X161998396Y-85143610D01*
X162001239Y-85154221D01*
X162087219Y-85542051D01*
X162089125Y-85552856D01*
X162097528Y-85616686D01*
X162140975Y-85946701D01*
X162141933Y-85957650D01*
X162155672Y-86272316D01*
X162157868Y-86322617D01*
X162156436Y-86347826D01*
X162154508Y-86360000D01*
X162156059Y-86369793D01*
X162157949Y-86381726D01*
X162159500Y-86401436D01*
X162159500Y-119338564D01*
X162157949Y-119358274D01*
X162154508Y-119380000D01*
X162156059Y-119389793D01*
X162156436Y-119392173D01*
X162157868Y-119417379D01*
X162155608Y-119469143D01*
X162141933Y-119782349D01*
X162140975Y-119793298D01*
X162093607Y-120153101D01*
X162089126Y-120187136D01*
X162087219Y-120197949D01*
X162012326Y-120535772D01*
X162001241Y-120585773D01*
X161998396Y-120596389D01*
X161881576Y-120966898D01*
X161878948Y-120975232D01*
X161875192Y-120985553D01*
X161729450Y-121337405D01*
X161723170Y-121352566D01*
X161718528Y-121362519D01*
X161545243Y-121695397D01*
X161535108Y-121714867D01*
X161529612Y-121724387D01*
X161316181Y-122059406D01*
X161309877Y-122068410D01*
X161289944Y-122094387D01*
X161086051Y-122360107D01*
X161068050Y-122383566D01*
X161060987Y-122391983D01*
X160803886Y-122672559D01*
X160792623Y-122684850D01*
X160784854Y-122692619D01*
X160519251Y-122936000D01*
X160491986Y-122960984D01*
X160483566Y-122968050D01*
X160168410Y-123209877D01*
X160159406Y-123216181D01*
X159824387Y-123429612D01*
X159814868Y-123435107D01*
X159462519Y-123618528D01*
X159452575Y-123623166D01*
X159085553Y-123775192D01*
X159075240Y-123778945D01*
X158696390Y-123898396D01*
X158685779Y-123901239D01*
X158297949Y-123987219D01*
X158287144Y-123989125D01*
X157904518Y-124039498D01*
X157893299Y-124040975D01*
X157882350Y-124041933D01*
X157517379Y-124057868D01*
X157492174Y-124056436D01*
X157480000Y-124054508D01*
X157470207Y-124056059D01*
X157458274Y-124057949D01*
X157438564Y-124059500D01*
X146766893Y-124059500D01*
X146698772Y-124039498D01*
X146652279Y-123985842D01*
X146642175Y-123915568D01*
X146659633Y-123867384D01*
X146731412Y-123750937D01*
X146737556Y-123737759D01*
X146787815Y-123586234D01*
X146790681Y-123572868D01*
X146800172Y-123480230D01*
X146800500Y-123473815D01*
X146800500Y-123462115D01*
X146796025Y-123446876D01*
X146794635Y-123445671D01*
X146786952Y-123444000D01*
X145677000Y-123444000D01*
X145608879Y-123423998D01*
X145562386Y-123370342D01*
X145551000Y-123318000D01*
X145551000Y-122917885D01*
X146059000Y-122917885D01*
X146063475Y-122933124D01*
X146064865Y-122934329D01*
X146072548Y-122936000D01*
X146782385Y-122936000D01*
X146797624Y-122931525D01*
X146798829Y-122930135D01*
X146800500Y-122922452D01*
X146800500Y-122906234D01*
X146800163Y-122899718D01*
X146790425Y-122805868D01*
X146787532Y-122792472D01*
X146737012Y-122641047D01*
X146730847Y-122627885D01*
X146672110Y-122532966D01*
X147113257Y-122532966D01*
X147143565Y-122667446D01*
X147146645Y-122677275D01*
X147226770Y-122874603D01*
X147231413Y-122883794D01*
X147342694Y-123065388D01*
X147348777Y-123073699D01*
X147488213Y-123234667D01*
X147495580Y-123241883D01*
X147659434Y-123377916D01*
X147667881Y-123383831D01*
X147851756Y-123491279D01*
X147861042Y-123495729D01*
X148060001Y-123571703D01*
X148069899Y-123574579D01*
X148173250Y-123595606D01*
X148187299Y-123594410D01*
X148191000Y-123584065D01*
X148191000Y-122537115D01*
X148186525Y-122521876D01*
X148185135Y-122520671D01*
X148177452Y-122519000D01*
X147128225Y-122519000D01*
X147114694Y-122522973D01*
X147113257Y-122532966D01*
X146672110Y-122532966D01*
X146647074Y-122492508D01*
X146638040Y-122481110D01*
X146525371Y-122368637D01*
X146513960Y-122359625D01*
X146378437Y-122276088D01*
X146365259Y-122269944D01*
X146213734Y-122219685D01*
X146200368Y-122216819D01*
X146107730Y-122207328D01*
X146101315Y-122207000D01*
X146077115Y-122207000D01*
X146061876Y-122211475D01*
X146060671Y-122212865D01*
X146059000Y-122220548D01*
X146059000Y-122917885D01*
X145551000Y-122917885D01*
X145551000Y-122225115D01*
X145546525Y-122209876D01*
X145545135Y-122208671D01*
X145537452Y-122207000D01*
X145508734Y-122207000D01*
X145502218Y-122207337D01*
X145408368Y-122217075D01*
X145394972Y-122219968D01*
X145243547Y-122270488D01*
X145230385Y-122276653D01*
X145095008Y-122360426D01*
X145083610Y-122369460D01*
X144971137Y-122482129D01*
X144962127Y-122493537D01*
X144935516Y-122536710D01*
X144882744Y-122584204D01*
X144812673Y-122595628D01*
X144747549Y-122567355D01*
X144738502Y-122557981D01*
X144738126Y-122558357D01*
X144624143Y-122444374D01*
X144617327Y-122440343D01*
X144617323Y-122440340D01*
X144492217Y-122366354D01*
X144485394Y-122362319D01*
X144477782Y-122360108D01*
X144477781Y-122360107D01*
X144336774Y-122319140D01*
X144336771Y-122319139D01*
X144330598Y-122317346D01*
X144308920Y-122315640D01*
X144296892Y-122314693D01*
X144296883Y-122314693D01*
X144294435Y-122314500D01*
X144076636Y-122314500D01*
X144008515Y-122294498D01*
X143987541Y-122277595D01*
X143866645Y-122156699D01*
X143832619Y-122094387D01*
X143837684Y-122023572D01*
X143880231Y-121966736D01*
X143891605Y-121959148D01*
X143895043Y-121957115D01*
X143901864Y-121953081D01*
X144018081Y-121836864D01*
X144082236Y-121728383D01*
X144097709Y-121702220D01*
X144097709Y-121702219D01*
X144101744Y-121695397D01*
X144114170Y-121652629D01*
X144145801Y-121543753D01*
X144147598Y-121537569D01*
X144148633Y-121524416D01*
X144150307Y-121503153D01*
X144150308Y-121503140D01*
X144150500Y-121500694D01*
X144150500Y-120444306D01*
X144150308Y-120441860D01*
X144150307Y-120441847D01*
X144148103Y-120413850D01*
X144147598Y-120407431D01*
X144101744Y-120249603D01*
X144018081Y-120108136D01*
X143901864Y-119991919D01*
X143760397Y-119908256D01*
X143752785Y-119906045D01*
X143752784Y-119906044D01*
X143690126Y-119887840D01*
X143602569Y-119862402D01*
X143589416Y-119861367D01*
X143568153Y-119859693D01*
X143568140Y-119859692D01*
X143565694Y-119859500D01*
X142184306Y-119859500D01*
X142181860Y-119859692D01*
X142181847Y-119859693D01*
X142160584Y-119861367D01*
X142147431Y-119862402D01*
X142059874Y-119887840D01*
X141997216Y-119906044D01*
X141997215Y-119906045D01*
X141989603Y-119908256D01*
X141848136Y-119991919D01*
X141731919Y-120108136D01*
X141648256Y-120249603D01*
X141602402Y-120407431D01*
X141601897Y-120413850D01*
X141599693Y-120441847D01*
X141599692Y-120441860D01*
X141599500Y-120444306D01*
X141599500Y-121500694D01*
X141599692Y-121503140D01*
X141599693Y-121503153D01*
X141601367Y-121524416D01*
X141602402Y-121537569D01*
X141604199Y-121543753D01*
X141635831Y-121652629D01*
X141648256Y-121695397D01*
X141652291Y-121702219D01*
X141652291Y-121702220D01*
X141667764Y-121728383D01*
X141731919Y-121836864D01*
X141848136Y-121953081D01*
X141854957Y-121957115D01*
X141926091Y-121999183D01*
X141989603Y-122036744D01*
X141997215Y-122038955D01*
X141997216Y-122038956D01*
X142138100Y-122079887D01*
X142197936Y-122118100D01*
X142227188Y-122180728D01*
X142227403Y-122187569D01*
X142229616Y-122195184D01*
X142229616Y-122195187D01*
X142233278Y-122207792D01*
X142237289Y-122227156D01*
X142239929Y-122248058D01*
X142242848Y-122255429D01*
X142242848Y-122255431D01*
X142256702Y-122290420D01*
X142260541Y-122301631D01*
X142273256Y-122345398D01*
X142283263Y-122362319D01*
X142283981Y-122363533D01*
X142292676Y-122381281D01*
X142300432Y-122400871D01*
X142327218Y-122437738D01*
X142333725Y-122447646D01*
X142352883Y-122480042D01*
X142352887Y-122480047D01*
X142356919Y-122486865D01*
X142371812Y-122501758D01*
X142384653Y-122516792D01*
X142397037Y-122533837D01*
X142403145Y-122538890D01*
X142432143Y-122562879D01*
X142440923Y-122570869D01*
X143055096Y-123185042D01*
X143089122Y-123247354D01*
X143092001Y-123274137D01*
X143092001Y-123491934D01*
X143094846Y-123528098D01*
X143096642Y-123534279D01*
X143096642Y-123534280D01*
X143121118Y-123618524D01*
X143139819Y-123682894D01*
X143143854Y-123689717D01*
X143217840Y-123814823D01*
X143217843Y-123814827D01*
X143221874Y-123821643D01*
X143244636Y-123844405D01*
X143278662Y-123906717D01*
X143273597Y-123977532D01*
X143231050Y-124034368D01*
X143164530Y-124059179D01*
X143155541Y-124059500D01*
X139741436Y-124059500D01*
X139721726Y-124057949D01*
X139709793Y-124056059D01*
X139700000Y-124054508D01*
X139687826Y-124056436D01*
X139662621Y-124057868D01*
X139297650Y-124041933D01*
X139286701Y-124040975D01*
X139275482Y-124039498D01*
X138892856Y-123989125D01*
X138882051Y-123987219D01*
X138494221Y-123901239D01*
X138483610Y-123898396D01*
X138104760Y-123778945D01*
X138094447Y-123775192D01*
X137727425Y-123623166D01*
X137717481Y-123618528D01*
X137365132Y-123435107D01*
X137355613Y-123429612D01*
X137020594Y-123216181D01*
X137011590Y-123209877D01*
X136696434Y-122968050D01*
X136688014Y-122960984D01*
X136660749Y-122936000D01*
X136395146Y-122692619D01*
X136387377Y-122684850D01*
X136376115Y-122672559D01*
X136119013Y-122391983D01*
X136111950Y-122383566D01*
X136093950Y-122360107D01*
X135890056Y-122094387D01*
X135870123Y-122068410D01*
X135863819Y-122059406D01*
X135650388Y-121724387D01*
X135644892Y-121714867D01*
X135634757Y-121695397D01*
X135461472Y-121362519D01*
X135456830Y-121352566D01*
X135450551Y-121337405D01*
X135304808Y-120985553D01*
X135301052Y-120975232D01*
X135298425Y-120966898D01*
X135181604Y-120596389D01*
X135178759Y-120585773D01*
X135167674Y-120535772D01*
X135092781Y-120197949D01*
X135090874Y-120187136D01*
X135086394Y-120153101D01*
X135039025Y-119793298D01*
X135038067Y-119782349D01*
X135024392Y-119469143D01*
X135022132Y-119417379D01*
X135023564Y-119392173D01*
X135023941Y-119389793D01*
X135025492Y-119380000D01*
X135022051Y-119358274D01*
X135020500Y-119338564D01*
X135020500Y-113149754D01*
X138094967Y-113149754D01*
X138108796Y-113360749D01*
X138110217Y-113366345D01*
X138110218Y-113366350D01*
X138138565Y-113477965D01*
X138160845Y-113565690D01*
X138249369Y-113757714D01*
X138371405Y-113930391D01*
X138375539Y-113934418D01*
X138478037Y-114034267D01*
X138522865Y-114077937D01*
X138527661Y-114081142D01*
X138527664Y-114081144D01*
X138661398Y-114170502D01*
X138698677Y-114195411D01*
X138703985Y-114197692D01*
X138703986Y-114197692D01*
X138887650Y-114276600D01*
X138887653Y-114276601D01*
X138892953Y-114278878D01*
X138898582Y-114280152D01*
X138898583Y-114280152D01*
X139093550Y-114324269D01*
X139093553Y-114324269D01*
X139099186Y-114325544D01*
X139104957Y-114325771D01*
X139104959Y-114325771D01*
X139166989Y-114328208D01*
X139310470Y-114333846D01*
X139316179Y-114333018D01*
X139316183Y-114333018D01*
X139519730Y-114303504D01*
X139520005Y-114305402D01*
X139582271Y-114308519D01*
X139629868Y-114338393D01*
X139782631Y-114491155D01*
X139786283Y-114494964D01*
X139828299Y-114540656D01*
X139835599Y-114545182D01*
X139835600Y-114545183D01*
X139865283Y-114563587D01*
X139875053Y-114570301D01*
X139909716Y-114596612D01*
X139923701Y-114602149D01*
X139943709Y-114612213D01*
X139956486Y-114620135D01*
X139964732Y-114622531D01*
X139964735Y-114622532D01*
X139998265Y-114632273D01*
X140009485Y-114636113D01*
X140049953Y-114652136D01*
X140058494Y-114653034D01*
X140058495Y-114653034D01*
X140064908Y-114653708D01*
X140086883Y-114658020D01*
X140101325Y-114662215D01*
X140108808Y-114662765D01*
X140109708Y-114662831D01*
X140109719Y-114662831D01*
X140112015Y-114663000D01*
X140146717Y-114663000D01*
X140159887Y-114663690D01*
X140199954Y-114667901D01*
X140208419Y-114666469D01*
X140208428Y-114666469D01*
X140218500Y-114664765D01*
X140239513Y-114663000D01*
X142097555Y-114663000D01*
X142165676Y-114683002D01*
X142206009Y-114724862D01*
X142254374Y-114806643D01*
X142368357Y-114920626D01*
X142375173Y-114924657D01*
X142375177Y-114924660D01*
X142480398Y-114986886D01*
X142507106Y-115002681D01*
X142514718Y-115004892D01*
X142514719Y-115004893D01*
X142655726Y-115045860D01*
X142655729Y-115045861D01*
X142661902Y-115047654D01*
X142683580Y-115049360D01*
X142695608Y-115050307D01*
X142695617Y-115050307D01*
X142698065Y-115050500D01*
X142999755Y-115050500D01*
X143301934Y-115050499D01*
X143321142Y-115048988D01*
X143331680Y-115048159D01*
X143331681Y-115048159D01*
X143338098Y-115047654D01*
X143344280Y-115045858D01*
X143485281Y-115004893D01*
X143485282Y-115004892D01*
X143492894Y-115002681D01*
X143519602Y-114986886D01*
X143624823Y-114924660D01*
X143624827Y-114924657D01*
X143631643Y-114920626D01*
X143664864Y-114887405D01*
X143727176Y-114853379D01*
X143753959Y-114850500D01*
X144606918Y-114850500D01*
X144675039Y-114870502D01*
X144696013Y-114887405D01*
X144711658Y-114903050D01*
X144824696Y-114960646D01*
X144834485Y-114962196D01*
X144834487Y-114962197D01*
X144861849Y-114966530D01*
X144918481Y-114975500D01*
X144979225Y-114975500D01*
X146398500Y-114975499D01*
X146466621Y-114995501D01*
X146513114Y-115049157D01*
X146524500Y-115101499D01*
X146524501Y-116581518D01*
X146539354Y-116675304D01*
X146550050Y-116696297D01*
X146563155Y-116766071D01*
X146536456Y-116831857D01*
X146478430Y-116872764D01*
X146437784Y-116879500D01*
X143423500Y-116879500D01*
X143411860Y-116878951D01*
X143404204Y-116877240D01*
X143396281Y-116877489D01*
X143334270Y-116879438D01*
X143330312Y-116879500D01*
X143301575Y-116879500D01*
X143297304Y-116880039D01*
X143285476Y-116880971D01*
X143239931Y-116882403D01*
X143236275Y-116883465D01*
X143223124Y-116884500D01*
X142184306Y-116884500D01*
X142181860Y-116884692D01*
X142181847Y-116884693D01*
X142160584Y-116886367D01*
X142147431Y-116887402D01*
X142046521Y-116916719D01*
X141997216Y-116931044D01*
X141997215Y-116931045D01*
X141989603Y-116933256D01*
X141982781Y-116937291D01*
X141982780Y-116937291D01*
X141854957Y-117012885D01*
X141848136Y-117016919D01*
X141731919Y-117133136D01*
X141727885Y-117139957D01*
X141690088Y-117203869D01*
X141648256Y-117274603D01*
X141648027Y-117274468D01*
X141605472Y-117325613D01*
X141535243Y-117347000D01*
X141190582Y-117347000D01*
X141122461Y-117326998D01*
X141101487Y-117310095D01*
X141073342Y-117281950D01*
X140960304Y-117224354D01*
X140950515Y-117222804D01*
X140950513Y-117222803D01*
X140919769Y-117217934D01*
X140866519Y-117209500D01*
X140335108Y-117209500D01*
X139803482Y-117209501D01*
X139798589Y-117210276D01*
X139798588Y-117210276D01*
X139719494Y-117222802D01*
X139719492Y-117222803D01*
X139709696Y-117224354D01*
X139596658Y-117281950D01*
X139506950Y-117371658D01*
X139449354Y-117484696D01*
X139434500Y-117578481D01*
X139434501Y-118641518D01*
X139435276Y-118646411D01*
X139435276Y-118646412D01*
X139447558Y-118723962D01*
X139449354Y-118735304D01*
X139506950Y-118848342D01*
X139596658Y-118938050D01*
X139709696Y-118995646D01*
X139719485Y-118997196D01*
X139719487Y-118997197D01*
X139746849Y-119001530D01*
X139803481Y-119010500D01*
X140334892Y-119010500D01*
X140866518Y-119010499D01*
X140871412Y-119009724D01*
X140950506Y-118997198D01*
X140950508Y-118997197D01*
X140960304Y-118995646D01*
X141073342Y-118938050D01*
X141163050Y-118848342D01*
X141220646Y-118735304D01*
X141221164Y-118732036D01*
X141259165Y-118676459D01*
X141324561Y-118648822D01*
X141338926Y-118648000D01*
X141535243Y-118648000D01*
X141603364Y-118668002D01*
X141647988Y-118720555D01*
X141648256Y-118720397D01*
X141731919Y-118861864D01*
X141848136Y-118978081D01*
X141854957Y-118982115D01*
X141901642Y-119009724D01*
X141989603Y-119061744D01*
X141997215Y-119063955D01*
X141997216Y-119063956D01*
X142046521Y-119078281D01*
X142147431Y-119107598D01*
X142160584Y-119108633D01*
X142181847Y-119110307D01*
X142181860Y-119110308D01*
X142184306Y-119110500D01*
X143565694Y-119110500D01*
X143568140Y-119110308D01*
X143568153Y-119110307D01*
X143589416Y-119108633D01*
X143602569Y-119107598D01*
X143703479Y-119078281D01*
X143752784Y-119063956D01*
X143752785Y-119063955D01*
X143760397Y-119061744D01*
X143848359Y-119009724D01*
X143895043Y-118982115D01*
X143901864Y-118978081D01*
X144018081Y-118861864D01*
X144087701Y-118744142D01*
X144097709Y-118727220D01*
X144097710Y-118727218D01*
X144101744Y-118720397D01*
X144147598Y-118562569D01*
X144149059Y-118544002D01*
X144150307Y-118528153D01*
X144150308Y-118528140D01*
X144150500Y-118525694D01*
X144150500Y-118306500D01*
X144170502Y-118238379D01*
X144224158Y-118191886D01*
X144276500Y-118180500D01*
X144459917Y-118180500D01*
X144528038Y-118200502D01*
X144574531Y-118254158D01*
X144584635Y-118324432D01*
X144580916Y-118341646D01*
X144542346Y-118474402D01*
X144540815Y-118493855D01*
X144539694Y-118508102D01*
X144539500Y-118510565D01*
X144539501Y-119139434D01*
X144542346Y-119175598D01*
X144544142Y-119181779D01*
X144544142Y-119181780D01*
X144577231Y-119295670D01*
X144587319Y-119330394D01*
X144591354Y-119337217D01*
X144665340Y-119462323D01*
X144665343Y-119462327D01*
X144669374Y-119469143D01*
X144783357Y-119583126D01*
X144790177Y-119587160D01*
X144790178Y-119587160D01*
X144861004Y-119629046D01*
X144909457Y-119680939D01*
X144922162Y-119750790D01*
X144895087Y-119816421D01*
X144861004Y-119845954D01*
X144834046Y-119861897D01*
X144783357Y-119891874D01*
X144669374Y-120005857D01*
X144665343Y-120012673D01*
X144665340Y-120012677D01*
X144612202Y-120102530D01*
X144587319Y-120144606D01*
X144542346Y-120299402D01*
X144539500Y-120335565D01*
X144539501Y-120964434D01*
X144542346Y-121000598D01*
X144544142Y-121006779D01*
X144544142Y-121006780D01*
X144560755Y-121063960D01*
X144587319Y-121155394D01*
X144591354Y-121162217D01*
X144665340Y-121287323D01*
X144665343Y-121287327D01*
X144669374Y-121294143D01*
X144783357Y-121408126D01*
X144790173Y-121412157D01*
X144790177Y-121412160D01*
X144915283Y-121486146D01*
X144922106Y-121490181D01*
X144929718Y-121492392D01*
X144929719Y-121492393D01*
X145070726Y-121533360D01*
X145070729Y-121533361D01*
X145076902Y-121535154D01*
X145098580Y-121536860D01*
X145110608Y-121537807D01*
X145110617Y-121537807D01*
X145113065Y-121538000D01*
X145414755Y-121538000D01*
X145716934Y-121537999D01*
X145736142Y-121536488D01*
X145746680Y-121535659D01*
X145746681Y-121535659D01*
X145753098Y-121535154D01*
X145880214Y-121498223D01*
X145900281Y-121492393D01*
X145900282Y-121492392D01*
X145907894Y-121490181D01*
X145914717Y-121486146D01*
X146039823Y-121412160D01*
X146039827Y-121412157D01*
X146046643Y-121408126D01*
X146117364Y-121337405D01*
X146179676Y-121303379D01*
X146206459Y-121300500D01*
X147220503Y-121300500D01*
X147288624Y-121320502D01*
X147335117Y-121374158D01*
X147345221Y-121444432D01*
X147324591Y-121497505D01*
X147263095Y-121587655D01*
X147258000Y-121596623D01*
X147168338Y-121789783D01*
X147164775Y-121799470D01*
X147109389Y-121999183D01*
X147110912Y-122007607D01*
X147123292Y-122011000D01*
X148573000Y-122011000D01*
X148641121Y-122031002D01*
X148687614Y-122084658D01*
X148699000Y-122137000D01*
X148699000Y-123583517D01*
X148703064Y-123597359D01*
X148716478Y-123599393D01*
X148723184Y-123598534D01*
X148733262Y-123596392D01*
X148937255Y-123535191D01*
X148946842Y-123531433D01*
X149138095Y-123437739D01*
X149146945Y-123432464D01*
X149320328Y-123308792D01*
X149328200Y-123302139D01*
X149479052Y-123151812D01*
X149485730Y-123143965D01*
X149610003Y-122971020D01*
X149615310Y-122962188D01*
X149661140Y-122869460D01*
X149709254Y-122817254D01*
X149777956Y-122799347D01*
X149845432Y-122821426D01*
X149888292Y-122872038D01*
X149897898Y-122892638D01*
X150023402Y-123071877D01*
X150178123Y-123226598D01*
X150182631Y-123229755D01*
X150182634Y-123229757D01*
X150295508Y-123308792D01*
X150357361Y-123352102D01*
X150362343Y-123354425D01*
X150362348Y-123354428D01*
X150535368Y-123435108D01*
X150555670Y-123444575D01*
X150560978Y-123445997D01*
X150560980Y-123445998D01*
X150564257Y-123446876D01*
X150767023Y-123501207D01*
X150985000Y-123520277D01*
X151202977Y-123501207D01*
X151405743Y-123446876D01*
X151409020Y-123445998D01*
X151409022Y-123445997D01*
X151414330Y-123444575D01*
X151434632Y-123435108D01*
X151607652Y-123354428D01*
X151607657Y-123354425D01*
X151612639Y-123352102D01*
X151674492Y-123308792D01*
X151787366Y-123229757D01*
X151787369Y-123229755D01*
X151791877Y-123226598D01*
X151946598Y-123071877D01*
X152072102Y-122892638D01*
X152107255Y-122817254D01*
X152140805Y-122745305D01*
X152187723Y-122692020D01*
X152256000Y-122672559D01*
X152323960Y-122693101D01*
X152369195Y-122745305D01*
X152402746Y-122817254D01*
X152437898Y-122892638D01*
X152563402Y-123071877D01*
X152718123Y-123226598D01*
X152722631Y-123229755D01*
X152722634Y-123229757D01*
X152835508Y-123308792D01*
X152897361Y-123352102D01*
X152902343Y-123354425D01*
X152902348Y-123354428D01*
X153075368Y-123435108D01*
X153095670Y-123444575D01*
X153100978Y-123445997D01*
X153100980Y-123445998D01*
X153104257Y-123446876D01*
X153307023Y-123501207D01*
X153525000Y-123520277D01*
X153742977Y-123501207D01*
X153945743Y-123446876D01*
X153949020Y-123445998D01*
X153949022Y-123445997D01*
X153954330Y-123444575D01*
X153974632Y-123435108D01*
X154147652Y-123354428D01*
X154147657Y-123354425D01*
X154152639Y-123352102D01*
X154214492Y-123308792D01*
X154327366Y-123229757D01*
X154327369Y-123229755D01*
X154331877Y-123226598D01*
X154486598Y-123071877D01*
X154612102Y-122892638D01*
X154647255Y-122817254D01*
X154702252Y-122699312D01*
X154702253Y-122699310D01*
X154704575Y-122694330D01*
X154706029Y-122688906D01*
X154746225Y-122538890D01*
X154761207Y-122482977D01*
X154780277Y-122265000D01*
X154761207Y-122047023D01*
X154704575Y-121835670D01*
X154687695Y-121799470D01*
X154614425Y-121642343D01*
X154614423Y-121642340D01*
X154612102Y-121637362D01*
X154486598Y-121458123D01*
X154331877Y-121303402D01*
X154327369Y-121300245D01*
X154327366Y-121300243D01*
X154235579Y-121235973D01*
X154190933Y-121204712D01*
X154146605Y-121149255D01*
X154139296Y-121078636D01*
X154171327Y-121015275D01*
X154232528Y-120979290D01*
X154263203Y-120975499D01*
X154406518Y-120975499D01*
X154411412Y-120974724D01*
X154490506Y-120962198D01*
X154490508Y-120962197D01*
X154500304Y-120960646D01*
X154613342Y-120903050D01*
X154703050Y-120813342D01*
X154760646Y-120700304D01*
X154762317Y-120689757D01*
X154766530Y-120663151D01*
X154775500Y-120606519D01*
X154775499Y-118843482D01*
X154763434Y-118767299D01*
X154762198Y-118759494D01*
X154762197Y-118759492D01*
X154760646Y-118749696D01*
X154703050Y-118636658D01*
X154613342Y-118546950D01*
X154500304Y-118489354D01*
X154490515Y-118487804D01*
X154490513Y-118487803D01*
X154463151Y-118483470D01*
X154406519Y-118474500D01*
X154201500Y-118474500D01*
X154133379Y-118454498D01*
X154086886Y-118400842D01*
X154075500Y-118348500D01*
X154075500Y-116627533D01*
X154095502Y-116559412D01*
X154149158Y-116512919D01*
X154219432Y-116502815D01*
X154245421Y-116509436D01*
X154298511Y-116529180D01*
X154298514Y-116529181D01*
X154305116Y-116531636D01*
X154312097Y-116532567D01*
X154312099Y-116532568D01*
X154476149Y-116554457D01*
X154476153Y-116554457D01*
X154483130Y-116555388D01*
X154490142Y-116554750D01*
X154490146Y-116554750D01*
X154654960Y-116539751D01*
X154654961Y-116539751D01*
X154661981Y-116539112D01*
X154832782Y-116483615D01*
X154921901Y-116430490D01*
X154980992Y-116395265D01*
X154980994Y-116395264D01*
X154987044Y-116391657D01*
X155117099Y-116267807D01*
X155216483Y-116118222D01*
X155231168Y-116079564D01*
X155277757Y-115956919D01*
X155277758Y-115956914D01*
X155280257Y-115950336D01*
X155305251Y-115772493D01*
X155305565Y-115750000D01*
X155285546Y-115571528D01*
X155226485Y-115401927D01*
X155131316Y-115249625D01*
X155122611Y-115240859D01*
X155087094Y-115205093D01*
X155053287Y-115142662D01*
X155050500Y-115116309D01*
X155050500Y-115088027D01*
X155070502Y-115019906D01*
X155124158Y-114973413D01*
X155156789Y-114963578D01*
X155175304Y-114960646D01*
X155288342Y-114903050D01*
X155378050Y-114813342D01*
X155435646Y-114700304D01*
X155438387Y-114683002D01*
X155446421Y-114632273D01*
X155450500Y-114606519D01*
X155450499Y-113993482D01*
X155440507Y-113930391D01*
X155438816Y-113919711D01*
X155438816Y-113880292D01*
X155449725Y-113811412D01*
X155450500Y-113806519D01*
X155450499Y-113328412D01*
X155470501Y-113260292D01*
X155524156Y-113213799D01*
X155594430Y-113203695D01*
X155640637Y-113219959D01*
X155710279Y-113261144D01*
X155710282Y-113261145D01*
X155717106Y-113265181D01*
X155724718Y-113267392D01*
X155724719Y-113267393D01*
X155865726Y-113308360D01*
X155865729Y-113308361D01*
X155871902Y-113310154D01*
X155893580Y-113311860D01*
X155905608Y-113312807D01*
X155905617Y-113312807D01*
X155908065Y-113313000D01*
X156209755Y-113313000D01*
X156511934Y-113312999D01*
X156531142Y-113311488D01*
X156541680Y-113310659D01*
X156541681Y-113310659D01*
X156548098Y-113310154D01*
X156586070Y-113299122D01*
X156695281Y-113267393D01*
X156695282Y-113267392D01*
X156702894Y-113265181D01*
X156738473Y-113244140D01*
X156834823Y-113187160D01*
X156834827Y-113187157D01*
X156841643Y-113183126D01*
X156955626Y-113069143D01*
X156956408Y-113069925D01*
X157007950Y-113032705D01*
X157049948Y-113025500D01*
X157197930Y-113025500D01*
X157266923Y-113046068D01*
X157370789Y-113114036D01*
X157539116Y-113176636D01*
X157546097Y-113177567D01*
X157546099Y-113177568D01*
X157710149Y-113199457D01*
X157710153Y-113199457D01*
X157717130Y-113200388D01*
X157724142Y-113199750D01*
X157724146Y-113199750D01*
X157888960Y-113184751D01*
X157888961Y-113184751D01*
X157895981Y-113184112D01*
X158066782Y-113128615D01*
X158097714Y-113110176D01*
X158214992Y-113040265D01*
X158214994Y-113040264D01*
X158221044Y-113036657D01*
X158351099Y-112912807D01*
X158450483Y-112763222D01*
X158478144Y-112690405D01*
X158511757Y-112601919D01*
X158511758Y-112601914D01*
X158514257Y-112595336D01*
X158515237Y-112588364D01*
X158538700Y-112421416D01*
X158538700Y-112421411D01*
X158539251Y-112417493D01*
X158539565Y-112395000D01*
X158519546Y-112216528D01*
X158515507Y-112204928D01*
X158462803Y-112053584D01*
X158460485Y-112046927D01*
X158452889Y-112034770D01*
X158369049Y-111900599D01*
X158365316Y-111894625D01*
X158249237Y-111777733D01*
X158243733Y-111772190D01*
X158243729Y-111772187D01*
X158238770Y-111767193D01*
X158221362Y-111756145D01*
X158171497Y-111724500D01*
X158087136Y-111670963D01*
X158017032Y-111646000D01*
X157924586Y-111613081D01*
X157924581Y-111613080D01*
X157917951Y-111610719D01*
X157910965Y-111609886D01*
X157910961Y-111609885D01*
X157783177Y-111594648D01*
X157739624Y-111589455D01*
X157732621Y-111590191D01*
X157732620Y-111590191D01*
X157568025Y-111607490D01*
X157568021Y-111607491D01*
X157561017Y-111608227D01*
X157554346Y-111610498D01*
X157397677Y-111663832D01*
X157397674Y-111663833D01*
X157391007Y-111666103D01*
X157385009Y-111669793D01*
X157385007Y-111669794D01*
X157326451Y-111705818D01*
X157260429Y-111724500D01*
X157049948Y-111724500D01*
X156981827Y-111704498D01*
X156955802Y-111680681D01*
X156955626Y-111680857D01*
X156952416Y-111677647D01*
X156952346Y-111677520D01*
X156951671Y-111676902D01*
X156950018Y-111675249D01*
X156945165Y-111668993D01*
X156946939Y-111667617D01*
X156918390Y-111615335D01*
X156923455Y-111544520D01*
X156952338Y-111499534D01*
X157031363Y-111420371D01*
X157040375Y-111408960D01*
X157123912Y-111273437D01*
X157130056Y-111260259D01*
X157180315Y-111108734D01*
X157183181Y-111095368D01*
X157192672Y-111002730D01*
X157193000Y-110996315D01*
X157193000Y-110922115D01*
X157188525Y-110906876D01*
X157187135Y-110905671D01*
X157179452Y-110904000D01*
X156082000Y-110904000D01*
X156013879Y-110883998D01*
X155967386Y-110830342D01*
X155956000Y-110778000D01*
X155956000Y-110522000D01*
X155976002Y-110453879D01*
X156029658Y-110407386D01*
X156082000Y-110396000D01*
X157174885Y-110396000D01*
X157190124Y-110391525D01*
X157191329Y-110390135D01*
X157193000Y-110382452D01*
X157193000Y-110303734D01*
X157192663Y-110297218D01*
X157182925Y-110203368D01*
X157180032Y-110189972D01*
X157129515Y-110038555D01*
X157123342Y-110025379D01*
X157113240Y-110009053D01*
X157094403Y-109940601D01*
X157115565Y-109872832D01*
X157131290Y-109853656D01*
X158347541Y-108637405D01*
X158409853Y-108603379D01*
X158436636Y-108600500D01*
X159069979Y-108600500D01*
X159138100Y-108620502D01*
X159182246Y-108669297D01*
X159191950Y-108688342D01*
X159281658Y-108778050D01*
X159394696Y-108835646D01*
X159404485Y-108837196D01*
X159404487Y-108837197D01*
X159431849Y-108841530D01*
X159488481Y-108850500D01*
X160019892Y-108850500D01*
X160551518Y-108850499D01*
X160557826Y-108849500D01*
X160635506Y-108837198D01*
X160635508Y-108837197D01*
X160645304Y-108835646D01*
X160758342Y-108778050D01*
X160848050Y-108688342D01*
X160905646Y-108575304D01*
X160920500Y-108481519D01*
X160920499Y-107418482D01*
X160909377Y-107348256D01*
X160907198Y-107334494D01*
X160907197Y-107334492D01*
X160905646Y-107324696D01*
X160900670Y-107314929D01*
X160872722Y-107260079D01*
X160848050Y-107211658D01*
X160758342Y-107121950D01*
X160739297Y-107112246D01*
X160687682Y-107063497D01*
X160670500Y-106999979D01*
X160670500Y-105878463D01*
X160690502Y-105810342D01*
X160723332Y-105775884D01*
X160762636Y-105747849D01*
X160867062Y-105673363D01*
X161030190Y-105510803D01*
X161065920Y-105461080D01*
X161161559Y-105327983D01*
X161164577Y-105323783D01*
X161266615Y-105117325D01*
X161311744Y-104968790D01*
X161332059Y-104901927D01*
X161332060Y-104901921D01*
X161333563Y-104896975D01*
X161349532Y-104775678D01*
X161363185Y-104671971D01*
X161363185Y-104671965D01*
X161363622Y-104668649D01*
X161365070Y-104609428D01*
X161365218Y-104603364D01*
X161365218Y-104603360D01*
X161365300Y-104600000D01*
X161346430Y-104370478D01*
X161290326Y-104147120D01*
X161209320Y-103960817D01*
X161200556Y-103940661D01*
X161200554Y-103940658D01*
X161198496Y-103935924D01*
X161073405Y-103742563D01*
X161069151Y-103737887D01*
X160921890Y-103576051D01*
X160921889Y-103576050D01*
X160918412Y-103572229D01*
X160914361Y-103569030D01*
X160914357Y-103569026D01*
X160741739Y-103432701D01*
X160737681Y-103429496D01*
X160675605Y-103395228D01*
X160625636Y-103344797D01*
X160610500Y-103284921D01*
X160610500Y-99419356D01*
X160630502Y-99351235D01*
X160671988Y-99311124D01*
X160674924Y-99309374D01*
X160679574Y-99307096D01*
X160867062Y-99173363D01*
X161030190Y-99010803D01*
X161065920Y-98961080D01*
X161161559Y-98827983D01*
X161164577Y-98823783D01*
X161191145Y-98770028D01*
X161264321Y-98621966D01*
X161266615Y-98617325D01*
X161296111Y-98520242D01*
X161332059Y-98401927D01*
X161332060Y-98401921D01*
X161333563Y-98396975D01*
X161358139Y-98210298D01*
X161363185Y-98171971D01*
X161363185Y-98171965D01*
X161363622Y-98168649D01*
X161364575Y-98129658D01*
X161365218Y-98103364D01*
X161365218Y-98103360D01*
X161365300Y-98100000D01*
X161346430Y-97870478D01*
X161290326Y-97647120D01*
X161215565Y-97475181D01*
X161200556Y-97440661D01*
X161200554Y-97440658D01*
X161198496Y-97435924D01*
X161073405Y-97242563D01*
X161069151Y-97237887D01*
X160921890Y-97076051D01*
X160921889Y-97076050D01*
X160918412Y-97072229D01*
X160914361Y-97069030D01*
X160914357Y-97069026D01*
X160741735Y-96932697D01*
X160741730Y-96932693D01*
X160737681Y-96929496D01*
X160733165Y-96927003D01*
X160733162Y-96927001D01*
X160540589Y-96820695D01*
X160540585Y-96820693D01*
X160536065Y-96818198D01*
X160531196Y-96816474D01*
X160531192Y-96816472D01*
X160323853Y-96743049D01*
X160323849Y-96743048D01*
X160318978Y-96741323D01*
X160313885Y-96740416D01*
X160313882Y-96740415D01*
X160217707Y-96723284D01*
X160092250Y-96700937D01*
X160005802Y-96699881D01*
X159867141Y-96698186D01*
X159867139Y-96698186D01*
X159861971Y-96698123D01*
X159634325Y-96732958D01*
X159415424Y-96804506D01*
X159211149Y-96910845D01*
X159026984Y-97049119D01*
X158867877Y-97215616D01*
X158864963Y-97219888D01*
X158864962Y-97219889D01*
X158849495Y-97242563D01*
X158738099Y-97405863D01*
X158735923Y-97410552D01*
X158735919Y-97410558D01*
X158658227Y-97577932D01*
X158641136Y-97614752D01*
X158579592Y-97836673D01*
X158579043Y-97841810D01*
X158555743Y-98059827D01*
X158555119Y-98065665D01*
X158555416Y-98070817D01*
X158555416Y-98070821D01*
X158566355Y-98260532D01*
X158568376Y-98295580D01*
X158569513Y-98300626D01*
X158569514Y-98300632D01*
X158591226Y-98396975D01*
X158619006Y-98520242D01*
X158620948Y-98525024D01*
X158620949Y-98525028D01*
X158703705Y-98728831D01*
X158705649Y-98733618D01*
X158825979Y-98929978D01*
X158976763Y-99104048D01*
X159153953Y-99251154D01*
X159182898Y-99268068D01*
X159247070Y-99305567D01*
X159295794Y-99357205D01*
X159309500Y-99414355D01*
X159309500Y-103283189D01*
X159289498Y-103351310D01*
X159241681Y-103394951D01*
X159211149Y-103410845D01*
X159026984Y-103549119D01*
X158867877Y-103715616D01*
X158864963Y-103719888D01*
X158864962Y-103719889D01*
X158849495Y-103742563D01*
X158738099Y-103905863D01*
X158735923Y-103910552D01*
X158735919Y-103910558D01*
X158643315Y-104110057D01*
X158641136Y-104114752D01*
X158607997Y-104234247D01*
X158582309Y-104326877D01*
X158579592Y-104336673D01*
X158579043Y-104341810D01*
X158560928Y-104511312D01*
X158555119Y-104565665D01*
X158555416Y-104570817D01*
X158555416Y-104570821D01*
X158562706Y-104697252D01*
X158568376Y-104795580D01*
X158569513Y-104800626D01*
X158569514Y-104800632D01*
X158591226Y-104896975D01*
X158619006Y-105020242D01*
X158620948Y-105025024D01*
X158620949Y-105025028D01*
X158658427Y-105117325D01*
X158705649Y-105233618D01*
X158825979Y-105429978D01*
X158976763Y-105604048D01*
X159153953Y-105751154D01*
X159307071Y-105840629D01*
X159355794Y-105892266D01*
X159369500Y-105949416D01*
X159369500Y-106999979D01*
X159349498Y-107068100D01*
X159300703Y-107112246D01*
X159281658Y-107121950D01*
X159191950Y-107211658D01*
X159182472Y-107230259D01*
X159182246Y-107230703D01*
X159133497Y-107282318D01*
X159069979Y-107299500D01*
X158196000Y-107299500D01*
X158184360Y-107298951D01*
X158176704Y-107297240D01*
X158168781Y-107297489D01*
X158106770Y-107299438D01*
X158102812Y-107299500D01*
X158074075Y-107299500D01*
X158069804Y-107300039D01*
X158057976Y-107300971D01*
X158012431Y-107302403D01*
X158004817Y-107304615D01*
X158004812Y-107304616D01*
X157992208Y-107308278D01*
X157972844Y-107312289D01*
X157951942Y-107314929D01*
X157944571Y-107317848D01*
X157944569Y-107317848D01*
X157909580Y-107331702D01*
X157898369Y-107335541D01*
X157854602Y-107348256D01*
X157836467Y-107358981D01*
X157818719Y-107367676D01*
X157799129Y-107375432D01*
X157762262Y-107402218D01*
X157752354Y-107408725D01*
X157719958Y-107427883D01*
X157719953Y-107427887D01*
X157713135Y-107431919D01*
X157698242Y-107446812D01*
X157683208Y-107459653D01*
X157666163Y-107472037D01*
X157661110Y-107478145D01*
X157637121Y-107507143D01*
X157629131Y-107515923D01*
X156332459Y-108812595D01*
X156270147Y-108846621D01*
X156243364Y-108849500D01*
X155576500Y-108849500D01*
X155508379Y-108829498D01*
X155461886Y-108775842D01*
X155450500Y-108723500D01*
X155450499Y-108398437D01*
X155450499Y-108393482D01*
X155435646Y-108299696D01*
X155378050Y-108186658D01*
X155288342Y-108096950D01*
X155175304Y-108039354D01*
X155165515Y-108037804D01*
X155165513Y-108037803D01*
X155138151Y-108033470D01*
X155081519Y-108024500D01*
X155020775Y-108024500D01*
X153601500Y-108024501D01*
X153533379Y-108004499D01*
X153486886Y-107950843D01*
X153475500Y-107898501D01*
X153475499Y-106423437D01*
X153475499Y-106418482D01*
X153460646Y-106324696D01*
X153403050Y-106211658D01*
X153313342Y-106121950D01*
X153200304Y-106064354D01*
X153190515Y-106062804D01*
X153190513Y-106062803D01*
X153163151Y-106058470D01*
X153106519Y-106049500D01*
X152800062Y-106049500D01*
X152493482Y-106049501D01*
X152488589Y-106050276D01*
X152488588Y-106050276D01*
X152419711Y-106061184D01*
X152380292Y-106061184D01*
X152311412Y-106050275D01*
X152306519Y-106049500D01*
X152000062Y-106049500D01*
X151693482Y-106049501D01*
X151688589Y-106050276D01*
X151688588Y-106050276D01*
X151619711Y-106061184D01*
X151580292Y-106061184D01*
X151511412Y-106050275D01*
X151506519Y-106049500D01*
X151200062Y-106049500D01*
X150893482Y-106049501D01*
X150888589Y-106050276D01*
X150888588Y-106050276D01*
X150819711Y-106061184D01*
X150780292Y-106061184D01*
X150711412Y-106050275D01*
X150706519Y-106049500D01*
X150400062Y-106049500D01*
X150093482Y-106049501D01*
X150088589Y-106050276D01*
X150088588Y-106050276D01*
X150019711Y-106061184D01*
X149980292Y-106061184D01*
X149911412Y-106050275D01*
X149906519Y-106049500D01*
X149889271Y-106049500D01*
X149576499Y-106049501D01*
X149508380Y-106029499D01*
X149461887Y-105975844D01*
X149450500Y-105923501D01*
X149450500Y-105832670D01*
X154592160Y-105832670D01*
X154597887Y-105840320D01*
X154769042Y-105945205D01*
X154777837Y-105949687D01*
X154987988Y-106036734D01*
X154997373Y-106039783D01*
X155218554Y-106092885D01*
X155228301Y-106094428D01*
X155455070Y-106112275D01*
X155464930Y-106112275D01*
X155691699Y-106094428D01*
X155701446Y-106092885D01*
X155922627Y-106039783D01*
X155932012Y-106036734D01*
X156142163Y-105949687D01*
X156150958Y-105945205D01*
X156318445Y-105842568D01*
X156327907Y-105832110D01*
X156324124Y-105823334D01*
X155472812Y-104972022D01*
X155458868Y-104964408D01*
X155457035Y-104964539D01*
X155450420Y-104968790D01*
X154598920Y-105820290D01*
X154592160Y-105832670D01*
X149450500Y-105832670D01*
X149450500Y-105521636D01*
X149470502Y-105453515D01*
X149487405Y-105432541D01*
X150028100Y-104891846D01*
X150610599Y-104309346D01*
X150672911Y-104275321D01*
X150743726Y-104280385D01*
X150794729Y-104319818D01*
X150796710Y-104318155D01*
X150800243Y-104322365D01*
X150803402Y-104326877D01*
X150958123Y-104481598D01*
X150962631Y-104484755D01*
X150962634Y-104484757D01*
X151132852Y-104603945D01*
X151137361Y-104607102D01*
X151142343Y-104609425D01*
X151142348Y-104609428D01*
X151323294Y-104693804D01*
X151335670Y-104699575D01*
X151340978Y-104700997D01*
X151340980Y-104700998D01*
X151399122Y-104716577D01*
X151547023Y-104756207D01*
X151765000Y-104775277D01*
X151982977Y-104756207D01*
X152130878Y-104716577D01*
X152189020Y-104700998D01*
X152189022Y-104700997D01*
X152194330Y-104699575D01*
X152206706Y-104693804D01*
X152387652Y-104609428D01*
X152387657Y-104609425D01*
X152392639Y-104607102D01*
X152395741Y-104604930D01*
X153947725Y-104604930D01*
X153965572Y-104831699D01*
X153967115Y-104841446D01*
X154020217Y-105062627D01*
X154023266Y-105072012D01*
X154110313Y-105282163D01*
X154114795Y-105290958D01*
X154217432Y-105458445D01*
X154227890Y-105467907D01*
X154236666Y-105464124D01*
X155087978Y-104612812D01*
X155094356Y-104601132D01*
X155824408Y-104601132D01*
X155824539Y-104602965D01*
X155828790Y-104609580D01*
X156680290Y-105461080D01*
X156692670Y-105467840D01*
X156700320Y-105462113D01*
X156805205Y-105290958D01*
X156809687Y-105282163D01*
X156896734Y-105072012D01*
X156899783Y-105062627D01*
X156952885Y-104841446D01*
X156954428Y-104831699D01*
X156972275Y-104604930D01*
X156972275Y-104595070D01*
X156954428Y-104368301D01*
X156952885Y-104358554D01*
X156899783Y-104137373D01*
X156896734Y-104127988D01*
X156809687Y-103917837D01*
X156805205Y-103909042D01*
X156702568Y-103741555D01*
X156692110Y-103732093D01*
X156683334Y-103735876D01*
X155832022Y-104587188D01*
X155824408Y-104601132D01*
X155094356Y-104601132D01*
X155095592Y-104598868D01*
X155095461Y-104597035D01*
X155091210Y-104590420D01*
X154239710Y-103738920D01*
X154227330Y-103732160D01*
X154219680Y-103737887D01*
X154114795Y-103909042D01*
X154110313Y-103917837D01*
X154023266Y-104127988D01*
X154020217Y-104137373D01*
X153967115Y-104358554D01*
X153965572Y-104368301D01*
X153947725Y-104595070D01*
X153947725Y-104604930D01*
X152395741Y-104604930D01*
X152397148Y-104603945D01*
X152567366Y-104484757D01*
X152567369Y-104484755D01*
X152571877Y-104481598D01*
X152726598Y-104326877D01*
X152852102Y-104147638D01*
X152854554Y-104142381D01*
X152942252Y-103954312D01*
X152942253Y-103954310D01*
X152944575Y-103949330D01*
X152946463Y-103942286D01*
X152971924Y-103847261D01*
X153001207Y-103737977D01*
X153020277Y-103520000D01*
X153006969Y-103367890D01*
X154592093Y-103367890D01*
X154595876Y-103376666D01*
X155447188Y-104227978D01*
X155461132Y-104235592D01*
X155462965Y-104235461D01*
X155469580Y-104231210D01*
X156321080Y-103379710D01*
X156327840Y-103367330D01*
X156322113Y-103359680D01*
X156150958Y-103254795D01*
X156142163Y-103250313D01*
X155932012Y-103163266D01*
X155922627Y-103160217D01*
X155701446Y-103107115D01*
X155691699Y-103105572D01*
X155464930Y-103087725D01*
X155455070Y-103087725D01*
X155228301Y-103105572D01*
X155218554Y-103107115D01*
X154997373Y-103160217D01*
X154987988Y-103163266D01*
X154777837Y-103250313D01*
X154769042Y-103254795D01*
X154601555Y-103357432D01*
X154592093Y-103367890D01*
X153006969Y-103367890D01*
X153001207Y-103302023D01*
X152963210Y-103160217D01*
X152945998Y-103095980D01*
X152945997Y-103095978D01*
X152944575Y-103090670D01*
X152901271Y-102997805D01*
X152854425Y-102897343D01*
X152854423Y-102897340D01*
X152852102Y-102892362D01*
X152726598Y-102713123D01*
X152571877Y-102558402D01*
X152567369Y-102555245D01*
X152567366Y-102555243D01*
X152397148Y-102436055D01*
X152397146Y-102436054D01*
X152392639Y-102432898D01*
X152387657Y-102430575D01*
X152387652Y-102430572D01*
X152245305Y-102364195D01*
X152192020Y-102317278D01*
X152172559Y-102249000D01*
X152193101Y-102181040D01*
X152245305Y-102135805D01*
X152387652Y-102069428D01*
X152387657Y-102069425D01*
X152392639Y-102067102D01*
X152547173Y-101958896D01*
X152567366Y-101944757D01*
X152567369Y-101944755D01*
X152571877Y-101941598D01*
X152726598Y-101786877D01*
X152852102Y-101607638D01*
X152856971Y-101597198D01*
X152942252Y-101414312D01*
X152942253Y-101414310D01*
X152944575Y-101409330D01*
X153001207Y-101197977D01*
X153020277Y-100980000D01*
X153001207Y-100762023D01*
X152944575Y-100550670D01*
X152935459Y-100531121D01*
X152854425Y-100357343D01*
X152854423Y-100357340D01*
X152852102Y-100352362D01*
X152726598Y-100173123D01*
X152571877Y-100018402D01*
X152572098Y-100018181D01*
X152534327Y-99961403D01*
X152533205Y-99890415D01*
X152570640Y-99830090D01*
X152634747Y-99799580D01*
X152654647Y-99797999D01*
X152659669Y-99797999D01*
X152666490Y-99797629D01*
X152717352Y-99792105D01*
X152732604Y-99788479D01*
X152853054Y-99743324D01*
X152868649Y-99734786D01*
X152970724Y-99658285D01*
X152983285Y-99645724D01*
X153059786Y-99543649D01*
X153068324Y-99528054D01*
X153113478Y-99407606D01*
X153117105Y-99392351D01*
X153122631Y-99341486D01*
X153123000Y-99334672D01*
X153123000Y-99332670D01*
X154592160Y-99332670D01*
X154597887Y-99340320D01*
X154769042Y-99445205D01*
X154777837Y-99449687D01*
X154987988Y-99536734D01*
X154997373Y-99539783D01*
X155218554Y-99592885D01*
X155228301Y-99594428D01*
X155455070Y-99612275D01*
X155464930Y-99612275D01*
X155691699Y-99594428D01*
X155701446Y-99592885D01*
X155922627Y-99539783D01*
X155932012Y-99536734D01*
X156142163Y-99449687D01*
X156150958Y-99445205D01*
X156318445Y-99342568D01*
X156327907Y-99332110D01*
X156324124Y-99323334D01*
X155472812Y-98472022D01*
X155458868Y-98464408D01*
X155457035Y-98464539D01*
X155450420Y-98468790D01*
X154598920Y-99320290D01*
X154592160Y-99332670D01*
X153123000Y-99332670D01*
X153123000Y-98712115D01*
X153118525Y-98696876D01*
X153117135Y-98695671D01*
X153109452Y-98694000D01*
X150425116Y-98694000D01*
X150409877Y-98698475D01*
X150408672Y-98699865D01*
X150407001Y-98707548D01*
X150407001Y-99334669D01*
X150407371Y-99341490D01*
X150412895Y-99392352D01*
X150416521Y-99407604D01*
X150461676Y-99528054D01*
X150470214Y-99543649D01*
X150546715Y-99645724D01*
X150559276Y-99658285D01*
X150661351Y-99734786D01*
X150676946Y-99743324D01*
X150797394Y-99788478D01*
X150812649Y-99792105D01*
X150863514Y-99797631D01*
X150870328Y-99798000D01*
X150875353Y-99798000D01*
X150943474Y-99818002D01*
X150989967Y-99871658D01*
X151000071Y-99941932D01*
X150970577Y-100006512D01*
X150959421Y-100017493D01*
X150958123Y-100018402D01*
X150803402Y-100173123D01*
X150677898Y-100352362D01*
X150675577Y-100357340D01*
X150675575Y-100357343D01*
X150594541Y-100531121D01*
X150585425Y-100550670D01*
X150528793Y-100762023D01*
X150509723Y-100980000D01*
X150528793Y-101197977D01*
X150530216Y-101203286D01*
X150530217Y-101203294D01*
X150530735Y-101205226D01*
X150530714Y-101206110D01*
X150531172Y-101208708D01*
X150530650Y-101208800D01*
X150529045Y-101276203D01*
X150498123Y-101326931D01*
X147597302Y-104227752D01*
X147588685Y-104235593D01*
X147582060Y-104239798D01*
X147576633Y-104245577D01*
X147576632Y-104245578D01*
X147534151Y-104290816D01*
X147531396Y-104293658D01*
X147511089Y-104313965D01*
X147508660Y-104317096D01*
X147508655Y-104317102D01*
X147508442Y-104317377D01*
X147500745Y-104326390D01*
X147469552Y-104359607D01*
X147465733Y-104366554D01*
X147459404Y-104378066D01*
X147448550Y-104394590D01*
X147435638Y-104411236D01*
X147417546Y-104453045D01*
X147412330Y-104463693D01*
X147390373Y-104503632D01*
X147388402Y-104511311D01*
X147388401Y-104511312D01*
X147385133Y-104524041D01*
X147378727Y-104542750D01*
X147373512Y-104554800D01*
X147373510Y-104554805D01*
X147370365Y-104562074D01*
X147364537Y-104598868D01*
X147363239Y-104607065D01*
X147360831Y-104618690D01*
X147351472Y-104655140D01*
X147351471Y-104655145D01*
X147349500Y-104662823D01*
X147349500Y-104683884D01*
X147347949Y-104703596D01*
X147344653Y-104724405D01*
X147345399Y-104732296D01*
X147348941Y-104769765D01*
X147349500Y-104781623D01*
X147349500Y-105923500D01*
X147329498Y-105991621D01*
X147275842Y-106038114D01*
X147223500Y-106049500D01*
X146910737Y-106049501D01*
X146893482Y-106049501D01*
X146888589Y-106050276D01*
X146888588Y-106050276D01*
X146809494Y-106062802D01*
X146809492Y-106062803D01*
X146799696Y-106064354D01*
X146686658Y-106121950D01*
X146596950Y-106211658D01*
X146539354Y-106324696D01*
X146524500Y-106418481D01*
X146524501Y-107220491D01*
X146524501Y-107898500D01*
X146504499Y-107966621D01*
X146450843Y-108013114D01*
X146398501Y-108024500D01*
X144979250Y-108024501D01*
X144918482Y-108024501D01*
X144913589Y-108025276D01*
X144913588Y-108025276D01*
X144834494Y-108037802D01*
X144834492Y-108037803D01*
X144824696Y-108039354D01*
X144711658Y-108096950D01*
X144621950Y-108186658D01*
X144564354Y-108299696D01*
X144549500Y-108393481D01*
X144549501Y-109006518D01*
X144550276Y-109011411D01*
X144550276Y-109011412D01*
X144561184Y-109080289D01*
X144561184Y-109119708D01*
X144560407Y-109124615D01*
X144549500Y-109193481D01*
X144549501Y-109499625D01*
X144549501Y-109670284D01*
X144529499Y-109738405D01*
X144524327Y-109745849D01*
X144505214Y-109771351D01*
X144496676Y-109786946D01*
X144451522Y-109907394D01*
X144447895Y-109922649D01*
X144442369Y-109973514D01*
X144442000Y-109980328D01*
X144442000Y-110027885D01*
X144446475Y-110043124D01*
X144447865Y-110044329D01*
X144455548Y-110046000D01*
X144602418Y-110046000D01*
X144670539Y-110066002D01*
X144691513Y-110082905D01*
X144711658Y-110103050D01*
X144824696Y-110160646D01*
X144834485Y-110162196D01*
X144834487Y-110162197D01*
X144918481Y-110175500D01*
X144918127Y-110177733D01*
X144975710Y-110199717D01*
X145017817Y-110256879D01*
X145022337Y-110327732D01*
X144987833Y-110389780D01*
X144925260Y-110423324D01*
X144918450Y-110424299D01*
X144918482Y-110424501D01*
X144834494Y-110437802D01*
X144834492Y-110437803D01*
X144824696Y-110439354D01*
X144815859Y-110443857D01*
X144815858Y-110443857D01*
X144804783Y-110449500D01*
X144711658Y-110496950D01*
X144691513Y-110517095D01*
X144629201Y-110551121D01*
X144602418Y-110554000D01*
X144460116Y-110554000D01*
X144444877Y-110558475D01*
X144443672Y-110559865D01*
X144442001Y-110567548D01*
X144442001Y-110619669D01*
X144442371Y-110626490D01*
X144447895Y-110677352D01*
X144451521Y-110692604D01*
X144496677Y-110813058D01*
X144505211Y-110828645D01*
X144524326Y-110854150D01*
X144549174Y-110920657D01*
X144549500Y-110929715D01*
X144549501Y-111270284D01*
X144529499Y-111338404D01*
X144524327Y-111345849D01*
X144505214Y-111371351D01*
X144496676Y-111386946D01*
X144451522Y-111507394D01*
X144447895Y-111522649D01*
X144442369Y-111573514D01*
X144442000Y-111580328D01*
X144442000Y-111627885D01*
X144446475Y-111643124D01*
X144447865Y-111644329D01*
X144455548Y-111646000D01*
X144602418Y-111646000D01*
X144670539Y-111666002D01*
X144691513Y-111682905D01*
X144711658Y-111703050D01*
X144824696Y-111760646D01*
X144834485Y-111762196D01*
X144834487Y-111762197D01*
X144918481Y-111775500D01*
X144918127Y-111777733D01*
X144975710Y-111799717D01*
X145017817Y-111856879D01*
X145022337Y-111927732D01*
X144987833Y-111989780D01*
X144925260Y-112023324D01*
X144918450Y-112024299D01*
X144918482Y-112024501D01*
X144834494Y-112037802D01*
X144834492Y-112037803D01*
X144824696Y-112039354D01*
X144711658Y-112096950D01*
X144691513Y-112117095D01*
X144629201Y-112151121D01*
X144602418Y-112154000D01*
X144460116Y-112154000D01*
X144444877Y-112158475D01*
X144443672Y-112159865D01*
X144439409Y-112179464D01*
X144405385Y-112241777D01*
X144343073Y-112275803D01*
X144274021Y-112271382D01*
X144208585Y-112248081D01*
X144208583Y-112248081D01*
X144201951Y-112245719D01*
X144194963Y-112244886D01*
X144194960Y-112244885D01*
X144094081Y-112232856D01*
X144028808Y-112204928D01*
X143988995Y-112146145D01*
X143983000Y-112107742D01*
X143983000Y-112041234D01*
X143982663Y-112034718D01*
X143972925Y-111940868D01*
X143970032Y-111927472D01*
X143919512Y-111776047D01*
X143913347Y-111762885D01*
X143829574Y-111627508D01*
X143820540Y-111616110D01*
X143707871Y-111503637D01*
X143696460Y-111494625D01*
X143560937Y-111411088D01*
X143547760Y-111404944D01*
X143441005Y-111369535D01*
X143382645Y-111329105D01*
X143355408Y-111263540D01*
X143367941Y-111193659D01*
X143416266Y-111141647D01*
X143445517Y-111128946D01*
X143492894Y-111115181D01*
X143499717Y-111111146D01*
X143624823Y-111037160D01*
X143624827Y-111037157D01*
X143631643Y-111033126D01*
X143745626Y-110919143D01*
X143749657Y-110912327D01*
X143749660Y-110912323D01*
X143823646Y-110787217D01*
X143827681Y-110780394D01*
X143844458Y-110722649D01*
X143871513Y-110629526D01*
X143889804Y-110591689D01*
X143962466Y-110489444D01*
X143967442Y-110482442D01*
X144018533Y-110340532D01*
X144021236Y-110303734D01*
X144026890Y-110226741D01*
X144029580Y-110190109D01*
X144027085Y-110177733D01*
X144001464Y-110050675D01*
X143999767Y-110042257D01*
X143931293Y-109907868D01*
X143924058Y-109900000D01*
X143900967Y-109874887D01*
X143875382Y-109823609D01*
X143872654Y-109824402D01*
X143829893Y-109677219D01*
X143829892Y-109677218D01*
X143827681Y-109669606D01*
X143749662Y-109537681D01*
X143749660Y-109537677D01*
X143749657Y-109537673D01*
X143745626Y-109530857D01*
X143740021Y-109525252D01*
X143735164Y-109518991D01*
X143736938Y-109517615D01*
X143708390Y-109465335D01*
X143713455Y-109394520D01*
X143742338Y-109349534D01*
X143821363Y-109270371D01*
X143830375Y-109258960D01*
X143913912Y-109123437D01*
X143920056Y-109110259D01*
X143970315Y-108958734D01*
X143973181Y-108945368D01*
X143982672Y-108852730D01*
X143983000Y-108846315D01*
X143983000Y-108772115D01*
X143978525Y-108756876D01*
X143977135Y-108755671D01*
X143969452Y-108754000D01*
X142035115Y-108754000D01*
X142019876Y-108758475D01*
X142018671Y-108759865D01*
X142017000Y-108767548D01*
X142017000Y-108846266D01*
X142017337Y-108852782D01*
X142027075Y-108946632D01*
X142029968Y-108960028D01*
X142080488Y-109111453D01*
X142086653Y-109124615D01*
X142170426Y-109259992D01*
X142179460Y-109271390D01*
X142257546Y-109349340D01*
X142291625Y-109411622D01*
X142286622Y-109482443D01*
X142263714Y-109518121D01*
X142264836Y-109518991D01*
X142259980Y-109525251D01*
X142254374Y-109530857D01*
X142250341Y-109537677D01*
X142250338Y-109537681D01*
X142206009Y-109612638D01*
X142154116Y-109661091D01*
X142097555Y-109674500D01*
X141808988Y-109674500D01*
X141740867Y-109654498D01*
X141719586Y-109637287D01*
X141679770Y-109597193D01*
X141528136Y-109500963D01*
X141476126Y-109482443D01*
X141365586Y-109443081D01*
X141365581Y-109443080D01*
X141358951Y-109440719D01*
X141351963Y-109439886D01*
X141351960Y-109439885D01*
X141186883Y-109420201D01*
X141121610Y-109392273D01*
X141112706Y-109384182D01*
X140408393Y-108679868D01*
X140374368Y-108617556D01*
X140374877Y-108569929D01*
X140373504Y-108569730D01*
X140403314Y-108364140D01*
X140403314Y-108364138D01*
X140403846Y-108360470D01*
X140405429Y-108300000D01*
X140398802Y-108227885D01*
X142017000Y-108227885D01*
X142021475Y-108243124D01*
X142022865Y-108244329D01*
X142030548Y-108246000D01*
X142727885Y-108246000D01*
X142743124Y-108241525D01*
X142744329Y-108240135D01*
X142746000Y-108232452D01*
X142746000Y-108227885D01*
X143254000Y-108227885D01*
X143258475Y-108243124D01*
X143259865Y-108244329D01*
X143267548Y-108246000D01*
X143964885Y-108246000D01*
X143980124Y-108241525D01*
X143981329Y-108240135D01*
X143983000Y-108232452D01*
X143983000Y-108153734D01*
X143982663Y-108147218D01*
X143972925Y-108053368D01*
X143970032Y-108039972D01*
X143919512Y-107888547D01*
X143913347Y-107875385D01*
X143829574Y-107740008D01*
X143820540Y-107728610D01*
X143707871Y-107616137D01*
X143696460Y-107607125D01*
X143560937Y-107523588D01*
X143547759Y-107517444D01*
X143396234Y-107467185D01*
X143382868Y-107464319D01*
X143290230Y-107454828D01*
X143283815Y-107454500D01*
X143272115Y-107454500D01*
X143256876Y-107458975D01*
X143255671Y-107460365D01*
X143254000Y-107468048D01*
X143254000Y-108227885D01*
X142746000Y-108227885D01*
X142746000Y-107472615D01*
X142741525Y-107457376D01*
X142740135Y-107456171D01*
X142732452Y-107454500D01*
X142716234Y-107454500D01*
X142709718Y-107454837D01*
X142615868Y-107464575D01*
X142602472Y-107467468D01*
X142451047Y-107517988D01*
X142437885Y-107524153D01*
X142302508Y-107607926D01*
X142291110Y-107616960D01*
X142178637Y-107729629D01*
X142169625Y-107741040D01*
X142086088Y-107876563D01*
X142079944Y-107889741D01*
X142029685Y-108041266D01*
X142026819Y-108054632D01*
X142017328Y-108147270D01*
X142017000Y-108153685D01*
X142017000Y-108227885D01*
X140398802Y-108227885D01*
X140386081Y-108089440D01*
X140328686Y-107885931D01*
X140324067Y-107876563D01*
X140237719Y-107701469D01*
X140235165Y-107696290D01*
X140108651Y-107526867D01*
X139991401Y-107418482D01*
X139957622Y-107387257D01*
X139957620Y-107387255D01*
X139953381Y-107383337D01*
X139846434Y-107315858D01*
X139779434Y-107273584D01*
X139779433Y-107273584D01*
X139774554Y-107270505D01*
X139578160Y-107192152D01*
X139572503Y-107191027D01*
X139572497Y-107191025D01*
X139376442Y-107152028D01*
X139376440Y-107152028D01*
X139370775Y-107150901D01*
X139365000Y-107150825D01*
X139364996Y-107150825D01*
X139258976Y-107149437D01*
X139159346Y-107148133D01*
X139153649Y-107149112D01*
X139153648Y-107149112D01*
X138956650Y-107182962D01*
X138956649Y-107182962D01*
X138950953Y-107183941D01*
X138752575Y-107257127D01*
X138747614Y-107260079D01*
X138747613Y-107260079D01*
X138653857Y-107315858D01*
X138570856Y-107365238D01*
X138411881Y-107504655D01*
X138280976Y-107670708D01*
X138278287Y-107675819D01*
X138278285Y-107675822D01*
X138264792Y-107701469D01*
X138182523Y-107857836D01*
X138119820Y-108059773D01*
X138094967Y-108269754D01*
X138108796Y-108480749D01*
X138110217Y-108486345D01*
X138110218Y-108486350D01*
X138139209Y-108600500D01*
X138160845Y-108685690D01*
X138163262Y-108690933D01*
X138203423Y-108778050D01*
X138249369Y-108877714D01*
X138371405Y-109050391D01*
X138522865Y-109197937D01*
X138527661Y-109201142D01*
X138527664Y-109201144D01*
X138631270Y-109270371D01*
X138698677Y-109315411D01*
X138703985Y-109317692D01*
X138703986Y-109317692D01*
X138887650Y-109396600D01*
X138887653Y-109396601D01*
X138892953Y-109398878D01*
X138898582Y-109400152D01*
X138898583Y-109400152D01*
X139093550Y-109444269D01*
X139093553Y-109444269D01*
X139099186Y-109445544D01*
X139104957Y-109445771D01*
X139104959Y-109445771D01*
X139166989Y-109448208D01*
X139310470Y-109453846D01*
X139316179Y-109453018D01*
X139316183Y-109453018D01*
X139519730Y-109423504D01*
X139520005Y-109425402D01*
X139582271Y-109428519D01*
X139629868Y-109458393D01*
X140335904Y-110164428D01*
X140369929Y-110226741D01*
X140372208Y-110241227D01*
X140387039Y-110392486D01*
X140389262Y-110399168D01*
X140389262Y-110399169D01*
X140436275Y-110540496D01*
X140443726Y-110562896D01*
X140447373Y-110568918D01*
X140521192Y-110690807D01*
X140536759Y-110716512D01*
X140541648Y-110721575D01*
X140541649Y-110721576D01*
X140597278Y-110779181D01*
X140661514Y-110845699D01*
X140811789Y-110944036D01*
X140980116Y-111006636D01*
X140987097Y-111007567D01*
X140987099Y-111007568D01*
X141151149Y-111029457D01*
X141151153Y-111029457D01*
X141158130Y-111030388D01*
X141165142Y-111029750D01*
X141165146Y-111029750D01*
X141329960Y-111014751D01*
X141329961Y-111014751D01*
X141336981Y-111014112D01*
X141507782Y-110958615D01*
X141571458Y-110920657D01*
X141655992Y-110870265D01*
X141655994Y-110870264D01*
X141662044Y-110866657D01*
X141721273Y-110810254D01*
X141784398Y-110777762D01*
X141808165Y-110775500D01*
X142097555Y-110775500D01*
X142165676Y-110795502D01*
X142206009Y-110837362D01*
X142247119Y-110906876D01*
X142254374Y-110919143D01*
X142368357Y-111033126D01*
X142375173Y-111037157D01*
X142375177Y-111037160D01*
X142500283Y-111111146D01*
X142507106Y-111115181D01*
X142554382Y-111128916D01*
X142614217Y-111167130D01*
X142643894Y-111231626D01*
X142633990Y-111301929D01*
X142587650Y-111355716D01*
X142559104Y-111369437D01*
X142451047Y-111405488D01*
X142437885Y-111411653D01*
X142302508Y-111495426D01*
X142291110Y-111504460D01*
X142178637Y-111617129D01*
X142169625Y-111628540D01*
X142086088Y-111764063D01*
X142079944Y-111777241D01*
X142029685Y-111928766D01*
X142026819Y-111942132D01*
X142017328Y-112034770D01*
X142017000Y-112041185D01*
X142017000Y-112115385D01*
X142021475Y-112130624D01*
X142022865Y-112131829D01*
X142030548Y-112133500D01*
X143128000Y-112133500D01*
X143196121Y-112153502D01*
X143242614Y-112207158D01*
X143254000Y-112259500D01*
X143254000Y-112515500D01*
X143233998Y-112583621D01*
X143180342Y-112630114D01*
X143128000Y-112641500D01*
X142035115Y-112641500D01*
X142019876Y-112645975D01*
X142018671Y-112647365D01*
X142017000Y-112655048D01*
X142017000Y-112733766D01*
X142017337Y-112740282D01*
X142027075Y-112834132D01*
X142029968Y-112847528D01*
X142080488Y-112998953D01*
X142086653Y-113012115D01*
X142170426Y-113147492D01*
X142179460Y-113158890D01*
X142257546Y-113236840D01*
X142291625Y-113299122D01*
X142286622Y-113369943D01*
X142263714Y-113405621D01*
X142264836Y-113406491D01*
X142259980Y-113412751D01*
X142254374Y-113418357D01*
X142250339Y-113425179D01*
X142250338Y-113425181D01*
X142206009Y-113500138D01*
X142154116Y-113548591D01*
X142097555Y-113562000D01*
X140502812Y-113562000D01*
X140434691Y-113541998D01*
X140388198Y-113488342D01*
X140378116Y-113417919D01*
X140379774Y-113406491D01*
X140403846Y-113240470D01*
X140405429Y-113180000D01*
X140386081Y-112969440D01*
X140328686Y-112765931D01*
X140317553Y-112743354D01*
X140237719Y-112581469D01*
X140235165Y-112576290D01*
X140108651Y-112406867D01*
X139953381Y-112263337D01*
X139924696Y-112245238D01*
X139779434Y-112153584D01*
X139779433Y-112153584D01*
X139774554Y-112150505D01*
X139578160Y-112072152D01*
X139572503Y-112071027D01*
X139572497Y-112071025D01*
X139376442Y-112032028D01*
X139376440Y-112032028D01*
X139370775Y-112030901D01*
X139365000Y-112030825D01*
X139364996Y-112030825D01*
X139258976Y-112029437D01*
X139159346Y-112028133D01*
X139153649Y-112029112D01*
X139153648Y-112029112D01*
X138956650Y-112062962D01*
X138956649Y-112062962D01*
X138950953Y-112063941D01*
X138752575Y-112137127D01*
X138747614Y-112140079D01*
X138747613Y-112140079D01*
X138669321Y-112186658D01*
X138570856Y-112245238D01*
X138411881Y-112384655D01*
X138280976Y-112550708D01*
X138278287Y-112555819D01*
X138278285Y-112555822D01*
X138230122Y-112647365D01*
X138182523Y-112737836D01*
X138119820Y-112939773D01*
X138094967Y-113149754D01*
X135020500Y-113149754D01*
X135020500Y-100681266D01*
X138417000Y-100681266D01*
X138417337Y-100687782D01*
X138427075Y-100781632D01*
X138429968Y-100795028D01*
X138480488Y-100946453D01*
X138486653Y-100959615D01*
X138570426Y-101094992D01*
X138579460Y-101106390D01*
X138657546Y-101184340D01*
X138691625Y-101246622D01*
X138686622Y-101317443D01*
X138663714Y-101353121D01*
X138664836Y-101353991D01*
X138659979Y-101360252D01*
X138654374Y-101365857D01*
X138650343Y-101372673D01*
X138650340Y-101372677D01*
X138605593Y-101448342D01*
X138572319Y-101504606D01*
X138570108Y-101512218D01*
X138570107Y-101512219D01*
X138541554Y-101610500D01*
X138527346Y-101659402D01*
X138524500Y-101695565D01*
X138524500Y-101834492D01*
X138521747Y-101860688D01*
X138499500Y-101965354D01*
X138499500Y-102154646D01*
X138500872Y-102161099D01*
X138500872Y-102161103D01*
X138521748Y-102259314D01*
X138524501Y-102285511D01*
X138524501Y-102424434D01*
X138527346Y-102460598D01*
X138529142Y-102466779D01*
X138529142Y-102466780D01*
X138564799Y-102589509D01*
X138572319Y-102615394D01*
X138576354Y-102622217D01*
X138650340Y-102747323D01*
X138650343Y-102747327D01*
X138654374Y-102754143D01*
X138768357Y-102868126D01*
X138775173Y-102872157D01*
X138775177Y-102872160D01*
X138900283Y-102946146D01*
X138907106Y-102950181D01*
X138914718Y-102952392D01*
X138914719Y-102952393D01*
X139055726Y-102993360D01*
X139055729Y-102993361D01*
X139061902Y-102995154D01*
X139083580Y-102996860D01*
X139095608Y-102997807D01*
X139095617Y-102997807D01*
X139098065Y-102998000D01*
X139399755Y-102998000D01*
X139701934Y-102997999D01*
X139721142Y-102996488D01*
X139731680Y-102995659D01*
X139731681Y-102995659D01*
X139738098Y-102995154D01*
X139840156Y-102965503D01*
X139875309Y-102960500D01*
X140723500Y-102960500D01*
X140791621Y-102980502D01*
X140838114Y-103034158D01*
X140849500Y-103086500D01*
X140849500Y-103175677D01*
X140845207Y-103208288D01*
X140837687Y-103236354D01*
X140834524Y-103296710D01*
X140828735Y-103407192D01*
X140827781Y-103425388D01*
X140828813Y-103431903D01*
X140828813Y-103431905D01*
X140850531Y-103569026D01*
X140857393Y-103612350D01*
X140859759Y-103618515D01*
X140859760Y-103618517D01*
X140885084Y-103684488D01*
X140925229Y-103789070D01*
X141028326Y-103947825D01*
X141162175Y-104081674D01*
X141320930Y-104184771D01*
X141327099Y-104187139D01*
X141491483Y-104250240D01*
X141491485Y-104250241D01*
X141497650Y-104252607D01*
X141504169Y-104253640D01*
X141504171Y-104253640D01*
X141678095Y-104281187D01*
X141678097Y-104281187D01*
X141684612Y-104282219D01*
X141691200Y-104281874D01*
X141691204Y-104281874D01*
X141774212Y-104277524D01*
X141873646Y-104272313D01*
X141973421Y-104245578D01*
X142050119Y-104225027D01*
X142050123Y-104225026D01*
X142056488Y-104223320D01*
X142062361Y-104220327D01*
X142062365Y-104220326D01*
X142139208Y-104181172D01*
X142225149Y-104137383D01*
X142289502Y-104085271D01*
X142335380Y-104048119D01*
X142335456Y-104048213D01*
X142341364Y-104043428D01*
X142350525Y-104036772D01*
X142355871Y-104032888D01*
X142401214Y-103982529D01*
X142405756Y-103977743D01*
X142417786Y-103965714D01*
X142420120Y-103963380D01*
X142432908Y-103947589D01*
X142437188Y-103942579D01*
X142478113Y-103897126D01*
X142478117Y-103897121D01*
X142482533Y-103892216D01*
X142489462Y-103880214D01*
X142500663Y-103863917D01*
X142505226Y-103858282D01*
X142509383Y-103853149D01*
X142515296Y-103841544D01*
X142540151Y-103792766D01*
X142543297Y-103786971D01*
X142573879Y-103734000D01*
X142573879Y-103733999D01*
X142577179Y-103728284D01*
X142581464Y-103715097D01*
X142589027Y-103696840D01*
X142592323Y-103690371D01*
X142592324Y-103690367D01*
X142595320Y-103684488D01*
X142612860Y-103619028D01*
X142614734Y-103612702D01*
X142623397Y-103586038D01*
X142635674Y-103548256D01*
X142637122Y-103534477D01*
X142640726Y-103515030D01*
X142644313Y-103501645D01*
X142647859Y-103433980D01*
X142648376Y-103427405D01*
X142650156Y-103410466D01*
X142650156Y-103410463D01*
X142650500Y-103407192D01*
X142650500Y-103386873D01*
X142650673Y-103380279D01*
X142653874Y-103319204D01*
X142653874Y-103319200D01*
X142654219Y-103312612D01*
X142652051Y-103298923D01*
X142650500Y-103279213D01*
X142650500Y-102886499D01*
X142670502Y-102818378D01*
X142724158Y-102771885D01*
X142771685Y-102761546D01*
X142771633Y-102760887D01*
X142776464Y-102760507D01*
X142776500Y-102760499D01*
X142781518Y-102760499D01*
X142786412Y-102759724D01*
X142865506Y-102747198D01*
X142865508Y-102747197D01*
X142875304Y-102745646D01*
X142988342Y-102688050D01*
X143078050Y-102598342D01*
X143135646Y-102485304D01*
X143150500Y-102391519D01*
X143150499Y-100828482D01*
X143139974Y-100762023D01*
X143137198Y-100744494D01*
X143137197Y-100744492D01*
X143135646Y-100734696D01*
X143078050Y-100621658D01*
X143071039Y-100614647D01*
X143068573Y-100611253D01*
X143044714Y-100544386D01*
X143060793Y-100475234D01*
X143062870Y-100472870D01*
X144400000Y-101810000D01*
X149150000Y-101810000D01*
X150150000Y-100810000D01*
X150150000Y-98167885D01*
X150407000Y-98167885D01*
X150411475Y-98183124D01*
X150412865Y-98184329D01*
X150420548Y-98186000D01*
X151492885Y-98186000D01*
X151508124Y-98181525D01*
X151509329Y-98180135D01*
X151511000Y-98172452D01*
X151511000Y-98167885D01*
X152019000Y-98167885D01*
X152023475Y-98183124D01*
X152024865Y-98184329D01*
X152032548Y-98186000D01*
X153104884Y-98186000D01*
X153120123Y-98181525D01*
X153121328Y-98180135D01*
X153122999Y-98172452D01*
X153122999Y-98104930D01*
X153947725Y-98104930D01*
X153965572Y-98331699D01*
X153967115Y-98341446D01*
X154020217Y-98562627D01*
X154023266Y-98572012D01*
X154110313Y-98782163D01*
X154114795Y-98790958D01*
X154217432Y-98958445D01*
X154227890Y-98967907D01*
X154236666Y-98964124D01*
X155087978Y-98112812D01*
X155094356Y-98101132D01*
X155824408Y-98101132D01*
X155824539Y-98102965D01*
X155828790Y-98109580D01*
X156680290Y-98961080D01*
X156692670Y-98967840D01*
X156700320Y-98962113D01*
X156805205Y-98790958D01*
X156809687Y-98782163D01*
X156896734Y-98572012D01*
X156899783Y-98562627D01*
X156952885Y-98341446D01*
X156954428Y-98331699D01*
X156972275Y-98104930D01*
X156972275Y-98095070D01*
X156954428Y-97868301D01*
X156952885Y-97858554D01*
X156899783Y-97637373D01*
X156896734Y-97627988D01*
X156809687Y-97417837D01*
X156805205Y-97409042D01*
X156702568Y-97241555D01*
X156692110Y-97232093D01*
X156683334Y-97235876D01*
X155832022Y-98087188D01*
X155824408Y-98101132D01*
X155094356Y-98101132D01*
X155095592Y-98098868D01*
X155095461Y-98097035D01*
X155091210Y-98090420D01*
X154239710Y-97238920D01*
X154227330Y-97232160D01*
X154219680Y-97237887D01*
X154114795Y-97409042D01*
X154110313Y-97417837D01*
X154023266Y-97627988D01*
X154020217Y-97637373D01*
X153967115Y-97858554D01*
X153965572Y-97868301D01*
X153947725Y-98095070D01*
X153947725Y-98104930D01*
X153122999Y-98104930D01*
X153122999Y-97545331D01*
X153122629Y-97538510D01*
X153117105Y-97487648D01*
X153113479Y-97472396D01*
X153068324Y-97351946D01*
X153059786Y-97336351D01*
X152983285Y-97234276D01*
X152970724Y-97221715D01*
X152868649Y-97145214D01*
X152853054Y-97136676D01*
X152732606Y-97091522D01*
X152717351Y-97087895D01*
X152666486Y-97082369D01*
X152659672Y-97082000D01*
X152037115Y-97082000D01*
X152021876Y-97086475D01*
X152020671Y-97087865D01*
X152019000Y-97095548D01*
X152019000Y-98167885D01*
X151511000Y-98167885D01*
X151511000Y-97100116D01*
X151506525Y-97084877D01*
X151505135Y-97083672D01*
X151497452Y-97082001D01*
X150870331Y-97082001D01*
X150863510Y-97082371D01*
X150812648Y-97087895D01*
X150797396Y-97091521D01*
X150676946Y-97136676D01*
X150661351Y-97145214D01*
X150559276Y-97221715D01*
X150546715Y-97234276D01*
X150470214Y-97336351D01*
X150461676Y-97351946D01*
X150416522Y-97472394D01*
X150412895Y-97487649D01*
X150407369Y-97538514D01*
X150407000Y-97545328D01*
X150407000Y-98167885D01*
X150150000Y-98167885D01*
X150150000Y-96867890D01*
X154592093Y-96867890D01*
X154595876Y-96876666D01*
X155447188Y-97727978D01*
X155461132Y-97735592D01*
X155462965Y-97735461D01*
X155469580Y-97731210D01*
X156321080Y-96879710D01*
X156327840Y-96867330D01*
X156322113Y-96859680D01*
X156150958Y-96754795D01*
X156142163Y-96750313D01*
X155932012Y-96663266D01*
X155922627Y-96660217D01*
X155701446Y-96607115D01*
X155691699Y-96605572D01*
X155464930Y-96587725D01*
X155455070Y-96587725D01*
X155228301Y-96605572D01*
X155218554Y-96607115D01*
X154997373Y-96660217D01*
X154987988Y-96663266D01*
X154777837Y-96750313D01*
X154769042Y-96754795D01*
X154601555Y-96857432D01*
X154592093Y-96867890D01*
X150150000Y-96867890D01*
X150150000Y-94310000D01*
X150900000Y-93560000D01*
X158150000Y-93560000D01*
X159900000Y-91810000D01*
X159900000Y-85810000D01*
X158150000Y-84060000D01*
X151650000Y-84060000D01*
X150150000Y-85560000D01*
X150150000Y-89060000D01*
X143900000Y-95310000D01*
X143900000Y-98060000D01*
X143400000Y-98560000D01*
X143257999Y-98560000D01*
X143257999Y-98515331D01*
X143257629Y-98508510D01*
X143252105Y-98457648D01*
X143248479Y-98442396D01*
X143203324Y-98321946D01*
X143194786Y-98306352D01*
X143162405Y-98263146D01*
X143137557Y-98196640D01*
X143152610Y-98127258D01*
X143187720Y-98086714D01*
X143223637Y-98059827D01*
X143399827Y-97883637D01*
X143407012Y-97875639D01*
X143427684Y-97852625D01*
X143428826Y-97851354D01*
X143445729Y-97830380D01*
X143464727Y-97804812D01*
X143499619Y-97731210D01*
X143516951Y-97694650D01*
X143516953Y-97694646D01*
X143519073Y-97690173D01*
X143531715Y-97647120D01*
X143537806Y-97626375D01*
X143537807Y-97626371D01*
X143539075Y-97622052D01*
X143540888Y-97609444D01*
X143554861Y-97512258D01*
X143554861Y-97512251D01*
X143555500Y-97507810D01*
X143555500Y-94780154D01*
X143575502Y-94712033D01*
X143592405Y-94691059D01*
X147649827Y-90633637D01*
X147678826Y-90601354D01*
X147695729Y-90580380D01*
X147714727Y-90554812D01*
X147743390Y-90494349D01*
X147766951Y-90444650D01*
X147766953Y-90444646D01*
X147769073Y-90440173D01*
X147778084Y-90409486D01*
X147787806Y-90376375D01*
X147787807Y-90376371D01*
X147789075Y-90372052D01*
X147789716Y-90367597D01*
X147804861Y-90262258D01*
X147804861Y-90262251D01*
X147805500Y-90257810D01*
X147805500Y-85612190D01*
X147803177Y-85568851D01*
X147801739Y-85555468D01*
X147800430Y-85543297D01*
X147800298Y-85542068D01*
X147795653Y-85510556D01*
X147753017Y-85391067D01*
X147718991Y-85328755D01*
X147649827Y-85236363D01*
X146223637Y-83810173D01*
X146222384Y-83809047D01*
X146222374Y-83809038D01*
X146192625Y-83782316D01*
X146191354Y-83781174D01*
X146170380Y-83764271D01*
X146161596Y-83757744D01*
X146149777Y-83748962D01*
X146149776Y-83748961D01*
X146144812Y-83745273D01*
X146139220Y-83742622D01*
X146034650Y-83693049D01*
X146034646Y-83693047D01*
X146030173Y-83690927D01*
X146025425Y-83689533D01*
X146025420Y-83689531D01*
X145966375Y-83672194D01*
X145966371Y-83672193D01*
X145962052Y-83670925D01*
X145957604Y-83670285D01*
X145957597Y-83670284D01*
X145852258Y-83655139D01*
X145852251Y-83655139D01*
X145847810Y-83654500D01*
X140452190Y-83654500D01*
X140408851Y-83656823D01*
X140407180Y-83657003D01*
X140407163Y-83657004D01*
X140387978Y-83659067D01*
X140382068Y-83659702D01*
X140350556Y-83664347D01*
X140231067Y-83706983D01*
X140168755Y-83741009D01*
X140076363Y-83810173D01*
X138650173Y-85236363D01*
X138649047Y-85237616D01*
X138649038Y-85237626D01*
X138632455Y-85256088D01*
X138621174Y-85268646D01*
X138604271Y-85289620D01*
X138585273Y-85315188D01*
X138582622Y-85320780D01*
X138547092Y-85395729D01*
X138530927Y-85429827D01*
X138510925Y-85497948D01*
X138510285Y-85502396D01*
X138510284Y-85502403D01*
X138495139Y-85607742D01*
X138495139Y-85607749D01*
X138494500Y-85612190D01*
X138494500Y-92507810D01*
X138496823Y-92551149D01*
X138499702Y-92577932D01*
X138504347Y-92609444D01*
X138546983Y-92728933D01*
X138581009Y-92791245D01*
X138650173Y-92883637D01*
X139957595Y-94191059D01*
X139991621Y-94253371D01*
X139994500Y-94280154D01*
X139994500Y-95556522D01*
X139974498Y-95624643D01*
X139920842Y-95671136D01*
X139850568Y-95681240D01*
X139833352Y-95677520D01*
X139738098Y-95649846D01*
X139716420Y-95648140D01*
X139704392Y-95647193D01*
X139704383Y-95647193D01*
X139701935Y-95647000D01*
X139400245Y-95647000D01*
X139098066Y-95647001D01*
X139078858Y-95648512D01*
X139068320Y-95649341D01*
X139068319Y-95649341D01*
X139061902Y-95649846D01*
X139055721Y-95651642D01*
X139055720Y-95651642D01*
X138914719Y-95692607D01*
X138914718Y-95692608D01*
X138907106Y-95694819D01*
X138900283Y-95698854D01*
X138775177Y-95772840D01*
X138775173Y-95772843D01*
X138768357Y-95776874D01*
X138654374Y-95890857D01*
X138650343Y-95897673D01*
X138650340Y-95897677D01*
X138576354Y-96022783D01*
X138572319Y-96029606D01*
X138527346Y-96184402D01*
X138524500Y-96220565D01*
X138524500Y-96359492D01*
X138521747Y-96385688D01*
X138499500Y-96490354D01*
X138499500Y-96679646D01*
X138500872Y-96686099D01*
X138500872Y-96686103D01*
X138521748Y-96784314D01*
X138524501Y-96810511D01*
X138524501Y-96949434D01*
X138527346Y-96985598D01*
X138529142Y-96991779D01*
X138529142Y-96991780D01*
X138556190Y-97084877D01*
X138572319Y-97140394D01*
X138576354Y-97147217D01*
X138650340Y-97272323D01*
X138650343Y-97272327D01*
X138654374Y-97279143D01*
X138659979Y-97284748D01*
X138664836Y-97291009D01*
X138663062Y-97292385D01*
X138691610Y-97344665D01*
X138686545Y-97415480D01*
X138657662Y-97460466D01*
X138578637Y-97539629D01*
X138569625Y-97551040D01*
X138486088Y-97686563D01*
X138479944Y-97699741D01*
X138429685Y-97851266D01*
X138426819Y-97864632D01*
X138417328Y-97957270D01*
X138417000Y-97963685D01*
X138417000Y-98037885D01*
X138421475Y-98053124D01*
X138422865Y-98054329D01*
X138430548Y-98056000D01*
X139528000Y-98056000D01*
X139596121Y-98076002D01*
X139642614Y-98129658D01*
X139654000Y-98182000D01*
X139654000Y-100463000D01*
X139633998Y-100531121D01*
X139580342Y-100577614D01*
X139528000Y-100589000D01*
X138435115Y-100589000D01*
X138419876Y-100593475D01*
X138418671Y-100594865D01*
X138417000Y-100602548D01*
X138417000Y-100681266D01*
X135020500Y-100681266D01*
X135020500Y-100062885D01*
X138417000Y-100062885D01*
X138421475Y-100078124D01*
X138422865Y-100079329D01*
X138430548Y-100081000D01*
X139127885Y-100081000D01*
X139143124Y-100076525D01*
X139144329Y-100075135D01*
X139146000Y-100067452D01*
X139146000Y-98582115D01*
X139141525Y-98566876D01*
X139140135Y-98565671D01*
X139132452Y-98564000D01*
X138435115Y-98564000D01*
X138419876Y-98568475D01*
X138418671Y-98569865D01*
X138417000Y-98577548D01*
X138417000Y-98656266D01*
X138417337Y-98662782D01*
X138427075Y-98756632D01*
X138429968Y-98770028D01*
X138480488Y-98921453D01*
X138486653Y-98934615D01*
X138570426Y-99069992D01*
X138579460Y-99081390D01*
X138692129Y-99193863D01*
X138703543Y-99202877D01*
X138723692Y-99215297D01*
X138771186Y-99268068D01*
X138782610Y-99338140D01*
X138754337Y-99403264D01*
X138723878Y-99429702D01*
X138702511Y-99442924D01*
X138691110Y-99451960D01*
X138578637Y-99564629D01*
X138569625Y-99576040D01*
X138486088Y-99711563D01*
X138479944Y-99724741D01*
X138429685Y-99876266D01*
X138426819Y-99889632D01*
X138417328Y-99982270D01*
X138417000Y-99988685D01*
X138417000Y-100062885D01*
X135020500Y-100062885D01*
X135020500Y-86401436D01*
X135022051Y-86381726D01*
X135023941Y-86369793D01*
X135025492Y-86360000D01*
X135023564Y-86347826D01*
X135022132Y-86322617D01*
X135024329Y-86272316D01*
X135038067Y-85957650D01*
X135039025Y-85946701D01*
X135082472Y-85616686D01*
X135090875Y-85552856D01*
X135092781Y-85542051D01*
X135178761Y-85154221D01*
X135181604Y-85143610D01*
X135301052Y-84764768D01*
X135304811Y-84754439D01*
X135456830Y-84387434D01*
X135461476Y-84377472D01*
X135644892Y-84025133D01*
X135650388Y-84015613D01*
X135863819Y-83680594D01*
X135870123Y-83671590D01*
X136111950Y-83356434D01*
X136119016Y-83348014D01*
X136387377Y-83055150D01*
X136395150Y-83047377D01*
X136688014Y-82779016D01*
X136696434Y-82771950D01*
X137011590Y-82530123D01*
X137020594Y-82523819D01*
X137355613Y-82310388D01*
X137365133Y-82304892D01*
X137717481Y-82121472D01*
X137727425Y-82116834D01*
X138094447Y-81964808D01*
X138104760Y-81961055D01*
X138483611Y-81841604D01*
X138494221Y-81838761D01*
X138882051Y-81752781D01*
X138892856Y-81750875D01*
X139286702Y-81699025D01*
X139297650Y-81698067D01*
X139662621Y-81682132D01*
X139687826Y-81683564D01*
X139700000Y-81685492D01*
X139721726Y-81682051D01*
X139741436Y-81680500D01*
X157438564Y-81680500D01*
X157458274Y-81682051D01*
G37*
%TD.AperFunction*%
%TA.AperFunction,Conductor*%
G36*
X147685969Y-108449310D02*
G01*
X147693481Y-108450500D01*
X147999938Y-108450500D01*
X148306518Y-108450499D01*
X148311412Y-108449724D01*
X148380289Y-108438816D01*
X148419708Y-108438816D01*
X148485969Y-108449310D01*
X148493481Y-108450500D01*
X148510729Y-108450500D01*
X148823501Y-108450499D01*
X148891620Y-108470501D01*
X148938113Y-108524156D01*
X148949500Y-108576499D01*
X148949500Y-109365654D01*
X148929498Y-109433775D01*
X148911657Y-109455678D01*
X148908885Y-109458393D01*
X148875732Y-109490859D01*
X148778446Y-109641817D01*
X148776037Y-109648437D01*
X148776035Y-109648440D01*
X148747734Y-109726198D01*
X148717022Y-109810578D01*
X148694514Y-109988753D01*
X148695201Y-109995760D01*
X148695201Y-109995763D01*
X148702088Y-110066002D01*
X148712039Y-110167486D01*
X148714262Y-110174168D01*
X148714262Y-110174169D01*
X148741776Y-110256879D01*
X148768726Y-110337896D01*
X148772373Y-110343918D01*
X148857896Y-110485133D01*
X148861759Y-110491512D01*
X148866648Y-110496575D01*
X148866649Y-110496576D01*
X148914232Y-110545849D01*
X148986514Y-110620699D01*
X149136789Y-110719036D01*
X149305116Y-110781636D01*
X149312097Y-110782567D01*
X149312099Y-110782568D01*
X149476149Y-110804457D01*
X149476153Y-110804457D01*
X149483130Y-110805388D01*
X149490142Y-110804750D01*
X149490146Y-110804750D01*
X149654960Y-110789751D01*
X149654961Y-110789751D01*
X149661981Y-110789112D01*
X149832782Y-110733615D01*
X149863714Y-110715176D01*
X149980992Y-110645265D01*
X149980994Y-110645264D01*
X149987044Y-110641657D01*
X150117099Y-110517807D01*
X150126299Y-110503961D01*
X150169223Y-110439354D01*
X150216483Y-110368222D01*
X150252933Y-110272268D01*
X150277757Y-110206919D01*
X150277758Y-110206914D01*
X150280257Y-110200336D01*
X150281714Y-110189972D01*
X150304700Y-110026416D01*
X150304700Y-110026411D01*
X150305251Y-110022493D01*
X150305565Y-110000000D01*
X150285546Y-109821528D01*
X150279427Y-109803955D01*
X150236032Y-109679343D01*
X150226485Y-109651927D01*
X150201935Y-109612638D01*
X150135049Y-109505599D01*
X150131316Y-109499625D01*
X150122611Y-109490859D01*
X150087094Y-109455093D01*
X150053287Y-109392662D01*
X150050500Y-109366309D01*
X150050500Y-108576500D01*
X150070502Y-108508379D01*
X150124158Y-108461886D01*
X150176500Y-108450500D01*
X150671990Y-108450499D01*
X150706518Y-108450499D01*
X150711412Y-108449724D01*
X150780289Y-108438816D01*
X150819708Y-108438816D01*
X150885969Y-108449310D01*
X150893481Y-108450500D01*
X151199938Y-108450500D01*
X151506518Y-108450499D01*
X151511412Y-108449724D01*
X151580289Y-108438816D01*
X151619708Y-108438816D01*
X151685969Y-108449310D01*
X151693481Y-108450500D01*
X151999938Y-108450500D01*
X152306518Y-108450499D01*
X152311412Y-108449724D01*
X152380289Y-108438816D01*
X152419708Y-108438816D01*
X152485969Y-108449310D01*
X152493481Y-108450500D01*
X152514511Y-108450500D01*
X152923501Y-108450499D01*
X152991620Y-108470501D01*
X153038114Y-108524156D01*
X153049500Y-108576499D01*
X153049501Y-108812595D01*
X153049501Y-109006518D01*
X153050276Y-109011411D01*
X153050276Y-109011412D01*
X153061184Y-109080289D01*
X153061184Y-109119708D01*
X153060407Y-109124615D01*
X153049500Y-109193481D01*
X153049501Y-109806518D01*
X153050276Y-109811411D01*
X153050276Y-109811412D01*
X153061184Y-109880289D01*
X153061184Y-109919708D01*
X153057875Y-109940601D01*
X153049500Y-109993481D01*
X153049501Y-110297218D01*
X153049501Y-110470284D01*
X153029499Y-110538405D01*
X153024327Y-110545849D01*
X153005214Y-110571351D01*
X152996676Y-110586946D01*
X152951522Y-110707394D01*
X152947895Y-110722649D01*
X152942369Y-110773514D01*
X152942000Y-110780328D01*
X152942000Y-110827885D01*
X152946475Y-110843124D01*
X152947865Y-110844329D01*
X152955548Y-110846000D01*
X153102418Y-110846000D01*
X153170539Y-110866002D01*
X153191513Y-110882905D01*
X153211658Y-110903050D01*
X153324696Y-110960646D01*
X153334485Y-110962196D01*
X153334487Y-110962197D01*
X153418481Y-110975500D01*
X153418127Y-110977733D01*
X153475710Y-110999717D01*
X153517817Y-111056879D01*
X153522337Y-111127732D01*
X153487833Y-111189780D01*
X153425260Y-111223324D01*
X153418450Y-111224299D01*
X153418482Y-111224501D01*
X153324696Y-111239354D01*
X153316623Y-111243467D01*
X153278534Y-111249500D01*
X151645266Y-111249500D01*
X151602999Y-111242199D01*
X151574586Y-111232081D01*
X151574581Y-111232080D01*
X151567951Y-111229719D01*
X151560965Y-111228886D01*
X151560961Y-111228885D01*
X151433177Y-111213648D01*
X151389624Y-111208455D01*
X151382621Y-111209191D01*
X151382620Y-111209191D01*
X151218025Y-111226490D01*
X151218021Y-111226491D01*
X151211017Y-111227227D01*
X151204346Y-111229498D01*
X151047677Y-111282832D01*
X151047674Y-111282833D01*
X151041007Y-111285103D01*
X151035009Y-111288793D01*
X151035007Y-111288794D01*
X150961822Y-111333818D01*
X150895800Y-111352500D01*
X150376618Y-111352500D01*
X150309106Y-111332887D01*
X150224136Y-111278963D01*
X150171609Y-111260259D01*
X150061586Y-111221081D01*
X150061581Y-111221080D01*
X150054951Y-111218719D01*
X150047965Y-111217886D01*
X150047961Y-111217885D01*
X149920177Y-111202648D01*
X149876624Y-111197455D01*
X149869621Y-111198191D01*
X149869620Y-111198191D01*
X149705025Y-111215490D01*
X149705021Y-111215491D01*
X149698017Y-111216227D01*
X149528007Y-111274103D01*
X149430943Y-111333818D01*
X149364922Y-111352500D01*
X148138636Y-111352500D01*
X148070515Y-111332498D01*
X148049541Y-111315595D01*
X147431248Y-110697302D01*
X147423407Y-110688685D01*
X147419202Y-110682060D01*
X147368183Y-110634150D01*
X147365342Y-110631396D01*
X147345035Y-110611089D01*
X147341904Y-110608660D01*
X147341898Y-110608655D01*
X147341623Y-110608442D01*
X147332610Y-110600745D01*
X147299393Y-110569552D01*
X147287286Y-110562896D01*
X147280934Y-110559404D01*
X147264410Y-110548550D01*
X147254027Y-110540496D01*
X147254026Y-110540495D01*
X147247764Y-110535638D01*
X147205952Y-110517545D01*
X147195307Y-110512330D01*
X147155368Y-110490373D01*
X147147689Y-110488402D01*
X147147688Y-110488401D01*
X147134959Y-110485133D01*
X147116250Y-110478727D01*
X147104200Y-110473512D01*
X147104195Y-110473510D01*
X147096926Y-110470365D01*
X147051930Y-110463238D01*
X147040310Y-110460831D01*
X147003860Y-110451472D01*
X147003855Y-110451471D01*
X146996177Y-110449500D01*
X146975116Y-110449500D01*
X146955404Y-110447949D01*
X146954098Y-110447742D01*
X146934595Y-110444653D01*
X146926704Y-110445399D01*
X146889235Y-110448941D01*
X146877377Y-110449500D01*
X146721467Y-110449500D01*
X146683377Y-110443467D01*
X146675304Y-110439354D01*
X146581519Y-110424500D01*
X146581873Y-110422267D01*
X146524290Y-110400283D01*
X146482183Y-110343121D01*
X146477663Y-110272268D01*
X146512167Y-110210220D01*
X146574740Y-110176676D01*
X146581550Y-110175701D01*
X146581518Y-110175499D01*
X146665506Y-110162198D01*
X146665508Y-110162197D01*
X146675304Y-110160646D01*
X146697739Y-110149215D01*
X146717877Y-110138954D01*
X146788342Y-110103050D01*
X146808487Y-110082905D01*
X146870799Y-110048879D01*
X146897582Y-110046000D01*
X147039884Y-110046000D01*
X147055123Y-110041525D01*
X147056328Y-110040135D01*
X147057999Y-110032452D01*
X147057999Y-109980331D01*
X147057629Y-109973510D01*
X147052105Y-109922648D01*
X147048479Y-109907396D01*
X147003323Y-109786942D01*
X146994789Y-109771355D01*
X146975674Y-109745850D01*
X146950826Y-109679343D01*
X146950500Y-109670285D01*
X146950499Y-109198437D01*
X146950499Y-109193482D01*
X146949724Y-109188588D01*
X146938816Y-109119711D01*
X146938816Y-109080292D01*
X146949725Y-109011412D01*
X146950500Y-109006519D01*
X146950499Y-108576499D01*
X146970501Y-108508380D01*
X147024156Y-108461886D01*
X147076499Y-108450500D01*
X147485480Y-108450499D01*
X147506518Y-108450499D01*
X147511412Y-108449724D01*
X147580289Y-108438816D01*
X147619708Y-108438816D01*
X147685969Y-108449310D01*
G37*
%TD.AperFunction*%
%TA.AperFunction,Conductor*%
G36*
X141900000Y-99564000D02*
G01*
X141622000Y-99564000D01*
X141553879Y-99543998D01*
X141507386Y-99490342D01*
X141496000Y-99438000D01*
X141496000Y-99182000D01*
X141516002Y-99113879D01*
X141569658Y-99067386D01*
X141622000Y-99056000D01*
X141900000Y-99056000D01*
X141900000Y-99564000D01*
G37*
%TD.AperFunction*%
%TD*%
%TA.AperFunction,Conductor*%
%TO.N,Net-(C4-Pad1)*%
G36*
X145915931Y-84080002D02*
G01*
X145936905Y-84096905D01*
X147363095Y-85523095D01*
X147397121Y-85585407D01*
X147400000Y-85612190D01*
X147400000Y-90257810D01*
X147379998Y-90325931D01*
X147363095Y-90346905D01*
X143150000Y-94560000D01*
X143150000Y-97507810D01*
X143129998Y-97575931D01*
X143113095Y-97596905D01*
X142936905Y-97773095D01*
X142874593Y-97807121D01*
X142847810Y-97810000D01*
X140702190Y-97810000D01*
X140634069Y-97789998D01*
X140613095Y-97773095D01*
X140436905Y-97596905D01*
X140402879Y-97534593D01*
X140400000Y-97507810D01*
X140400000Y-94060000D01*
X138936905Y-92596905D01*
X138902879Y-92534593D01*
X138900000Y-92507810D01*
X138900000Y-85612190D01*
X138920002Y-85544069D01*
X138936905Y-85523095D01*
X140363095Y-84096905D01*
X140425407Y-84062879D01*
X140452190Y-84060000D01*
X145847810Y-84060000D01*
X145915931Y-84080002D01*
G37*
%TD.AperFunction*%
%TD*%
M02*
