%TF.GenerationSoftware,KiCad,Pcbnew,6.0.11+dfsg-1*%
%TF.CreationDate,2023-09-04T21:51:10-07:00*%
%TF.ProjectId,electrical_intro_project,656c6563-7472-4696-9361-6c5f696e7472,rev?*%
%TF.SameCoordinates,Original*%
%TF.FileFunction,Soldermask,Top*%
%TF.FilePolarity,Negative*%
%FSLAX46Y46*%
G04 Gerber Fmt 4.6, Leading zero omitted, Abs format (unit mm)*
G04 Created by KiCad (PCBNEW 6.0.11+dfsg-1) date 2023-09-04 21:51:10*
%MOMM*%
%LPD*%
G01*
G04 APERTURE LIST*
G04 Aperture macros list*
%AMRoundRect*
0 Rectangle with rounded corners*
0 $1 Rounding radius*
0 $2 $3 $4 $5 $6 $7 $8 $9 X,Y pos of 4 corners*
0 Add a 4 corners polygon primitive as box body*
4,1,4,$2,$3,$4,$5,$6,$7,$8,$9,$2,$3,0*
0 Add four circle primitives for the rounded corners*
1,1,$1+$1,$2,$3*
1,1,$1+$1,$4,$5*
1,1,$1+$1,$6,$7*
1,1,$1+$1,$8,$9*
0 Add four rect primitives between the rounded corners*
20,1,$1+$1,$2,$3,$4,$5,0*
20,1,$1+$1,$4,$5,$6,$7,0*
20,1,$1+$1,$6,$7,$8,$9,0*
20,1,$1+$1,$8,$9,$2,$3,0*%
G04 Aperture macros list end*
%ADD10RoundRect,0.237500X0.250000X0.237500X-0.250000X0.237500X-0.250000X-0.237500X0.250000X-0.237500X0*%
%ADD11R,1.000000X1.000000*%
%ADD12RoundRect,0.250001X0.624999X-0.462499X0.624999X0.462499X-0.624999X0.462499X-0.624999X-0.462499X0*%
%ADD13RoundRect,0.237500X0.237500X-0.250000X0.237500X0.250000X-0.237500X0.250000X-0.237500X-0.250000X0*%
%ADD14RoundRect,0.237500X-0.237500X0.300000X-0.237500X-0.300000X0.237500X-0.300000X0.237500X0.300000X0*%
%ADD15R,2.000000X1.500000*%
%ADD16R,2.000000X3.800000*%
%ADD17C,5.000000*%
%ADD18R,1.700000X1.700000*%
%ADD19O,1.700000X1.700000*%
%ADD20C,1.500000*%
%ADD21RoundRect,0.237500X0.237500X-0.300000X0.237500X0.300000X-0.237500X0.300000X-0.237500X-0.300000X0*%
%ADD22R,1.600000X0.550000*%
%ADD23R,0.550000X1.600000*%
%ADD24C,2.000000*%
G04 APERTURE END LIST*
D10*
%TO.C,R1*%
X145805000Y-123190000D03*
X143980000Y-123190000D03*
%TD*%
D11*
%TO.C,TP1*%
X160020000Y-107950000D03*
%TD*%
D12*
%TO.C,D1*%
X142875000Y-120972500D03*
X142875000Y-117997500D03*
%TD*%
D13*
%TO.C,R3*%
X145415000Y-120650000D03*
X145415000Y-118825000D03*
%TD*%
D14*
%TO.C,C4*%
X139400000Y-96585000D03*
X139400000Y-98310000D03*
%TD*%
D15*
%TO.C,U2*%
X141750000Y-97010000D03*
X141750000Y-99310000D03*
X141750000Y-101610000D03*
D16*
X148050000Y-99310000D03*
%TD*%
D17*
%TO.C,TP6*%
X155400000Y-88560000D03*
%TD*%
D18*
%TO.C,J1*%
X153525000Y-119725000D03*
D19*
X153525000Y-122265000D03*
X150985000Y-119725000D03*
X150985000Y-122265000D03*
X148445000Y-119725000D03*
X148445000Y-122265000D03*
%TD*%
D20*
%TO.C,Y1*%
X139250000Y-108300000D03*
X139250000Y-113180000D03*
%TD*%
D11*
%TO.C,TP2*%
X140335000Y-118110000D03*
%TD*%
D21*
%TO.C,C1*%
X156210000Y-112375000D03*
X156210000Y-110650000D03*
%TD*%
D22*
%TO.C,U1*%
X145750000Y-108700000D03*
X145750000Y-109500000D03*
X145750000Y-110300000D03*
X145750000Y-111100000D03*
X145750000Y-111900000D03*
X145750000Y-112700000D03*
X145750000Y-113500000D03*
X145750000Y-114300000D03*
D23*
X147200000Y-115750000D03*
X148000000Y-115750000D03*
X148800000Y-115750000D03*
X149600000Y-115750000D03*
X150400000Y-115750000D03*
X151200000Y-115750000D03*
X152000000Y-115750000D03*
X152800000Y-115750000D03*
D22*
X154250000Y-114300000D03*
X154250000Y-113500000D03*
X154250000Y-112700000D03*
X154250000Y-111900000D03*
X154250000Y-111100000D03*
X154250000Y-110300000D03*
X154250000Y-109500000D03*
X154250000Y-108700000D03*
D23*
X152800000Y-107250000D03*
X152000000Y-107250000D03*
X151200000Y-107250000D03*
X150400000Y-107250000D03*
X149600000Y-107250000D03*
X148800000Y-107250000D03*
X148000000Y-107250000D03*
X147200000Y-107250000D03*
%TD*%
D18*
%TO.C,J2*%
X151765000Y-98440000D03*
D19*
X151765000Y-100980000D03*
X151765000Y-103520000D03*
%TD*%
D14*
%TO.C,C2*%
X143000000Y-108500000D03*
X143000000Y-110225000D03*
%TD*%
D21*
%TO.C,C5*%
X139400000Y-102060000D03*
X139400000Y-100335000D03*
%TD*%
D24*
%TO.C,SW1*%
X155460000Y-98100000D03*
X155460000Y-104600000D03*
X159960000Y-104600000D03*
X159960000Y-98100000D03*
%TD*%
D21*
%TO.C,C3*%
X143000000Y-114112500D03*
X143000000Y-112387500D03*
%TD*%
D17*
%TO.C,TP5*%
X143150000Y-88560000D03*
%TD*%
M02*
