%TF.GenerationSoftware,KiCad,Pcbnew,6.0.11+dfsg-1*%
%TF.CreationDate,2023-09-04T21:51:10-07:00*%
%TF.ProjectId,electrical_intro_project,656c6563-7472-4696-9361-6c5f696e7472,rev?*%
%TF.SameCoordinates,Original*%
%TF.FileFunction,Legend,Top*%
%TF.FilePolarity,Positive*%
%FSLAX46Y46*%
G04 Gerber Fmt 4.6, Leading zero omitted, Abs format (unit mm)*
G04 Created by KiCad (PCBNEW 6.0.11+dfsg-1) date 2023-09-04 21:51:10*
%MOMM*%
%LPD*%
G01*
G04 APERTURE LIST*
%ADD10C,0.150000*%
%ADD11C,0.120000*%
G04 APERTURE END LIST*
D10*
%TO.C,R1*%
X141438333Y-123642380D02*
X141105000Y-123166190D01*
X140866904Y-123642380D02*
X140866904Y-122642380D01*
X141247857Y-122642380D01*
X141343095Y-122690000D01*
X141390714Y-122737619D01*
X141438333Y-122832857D01*
X141438333Y-122975714D01*
X141390714Y-123070952D01*
X141343095Y-123118571D01*
X141247857Y-123166190D01*
X140866904Y-123166190D01*
X142390714Y-123642380D02*
X141819285Y-123642380D01*
X142105000Y-123642380D02*
X142105000Y-122642380D01*
X142009761Y-122785238D01*
X141914523Y-122880476D01*
X141819285Y-122928095D01*
%TO.C,TP1*%
X158758095Y-109307380D02*
X159329523Y-109307380D01*
X159043809Y-110307380D02*
X159043809Y-109307380D01*
X159662857Y-110307380D02*
X159662857Y-109307380D01*
X160043809Y-109307380D01*
X160139047Y-109355000D01*
X160186666Y-109402619D01*
X160234285Y-109497857D01*
X160234285Y-109640714D01*
X160186666Y-109735952D01*
X160139047Y-109783571D01*
X160043809Y-109831190D01*
X159662857Y-109831190D01*
X161186666Y-110307380D02*
X160615238Y-110307380D01*
X160900952Y-110307380D02*
X160900952Y-109307380D01*
X160805714Y-109450238D01*
X160710476Y-109545476D01*
X160615238Y-109593095D01*
%TO.C,D1*%
X140787380Y-121493095D02*
X139787380Y-121493095D01*
X139787380Y-121255000D01*
X139835000Y-121112142D01*
X139930238Y-121016904D01*
X140025476Y-120969285D01*
X140215952Y-120921666D01*
X140358809Y-120921666D01*
X140549285Y-120969285D01*
X140644523Y-121016904D01*
X140739761Y-121112142D01*
X140787380Y-121255000D01*
X140787380Y-121493095D01*
X140787380Y-119969285D02*
X140787380Y-120540714D01*
X140787380Y-120255000D02*
X139787380Y-120255000D01*
X139930238Y-120350238D01*
X140025476Y-120445476D01*
X140073095Y-120540714D01*
%TO.C,R3*%
X145232380Y-117364166D02*
X144756190Y-117697500D01*
X145232380Y-117935595D02*
X144232380Y-117935595D01*
X144232380Y-117554642D01*
X144280000Y-117459404D01*
X144327619Y-117411785D01*
X144422857Y-117364166D01*
X144565714Y-117364166D01*
X144660952Y-117411785D01*
X144708571Y-117459404D01*
X144756190Y-117554642D01*
X144756190Y-117935595D01*
X144232380Y-117030833D02*
X144232380Y-116411785D01*
X144613333Y-116745119D01*
X144613333Y-116602261D01*
X144660952Y-116507023D01*
X144708571Y-116459404D01*
X144803809Y-116411785D01*
X145041904Y-116411785D01*
X145137142Y-116459404D01*
X145184761Y-116507023D01*
X145232380Y-116602261D01*
X145232380Y-116887976D01*
X145184761Y-116983214D01*
X145137142Y-117030833D01*
%TO.C,C4*%
X138406142Y-97702666D02*
X138453761Y-97750285D01*
X138501380Y-97893142D01*
X138501380Y-97988380D01*
X138453761Y-98131238D01*
X138358523Y-98226476D01*
X138263285Y-98274095D01*
X138072809Y-98321714D01*
X137929952Y-98321714D01*
X137739476Y-98274095D01*
X137644238Y-98226476D01*
X137549000Y-98131238D01*
X137501380Y-97988380D01*
X137501380Y-97893142D01*
X137549000Y-97750285D01*
X137596619Y-97702666D01*
X137834714Y-96845523D02*
X138501380Y-96845523D01*
X137453761Y-97083619D02*
X138168047Y-97321714D01*
X138168047Y-96702666D01*
%TO.C,U2*%
X144138095Y-94262380D02*
X144138095Y-95071904D01*
X144185714Y-95167142D01*
X144233333Y-95214761D01*
X144328571Y-95262380D01*
X144519047Y-95262380D01*
X144614285Y-95214761D01*
X144661904Y-95167142D01*
X144709523Y-95071904D01*
X144709523Y-94262380D01*
X145138095Y-94357619D02*
X145185714Y-94310000D01*
X145280952Y-94262380D01*
X145519047Y-94262380D01*
X145614285Y-94310000D01*
X145661904Y-94357619D01*
X145709523Y-94452857D01*
X145709523Y-94548095D01*
X145661904Y-94690952D01*
X145090476Y-95262380D01*
X145709523Y-95262380D01*
%TO.C,TP6*%
X152471809Y-92003571D02*
X152805142Y-92003571D01*
X152948000Y-92527380D02*
X152471809Y-92527380D01*
X152471809Y-91527380D01*
X152948000Y-91527380D01*
X153281333Y-91527380D02*
X153948000Y-92527380D01*
X153948000Y-91527380D02*
X153281333Y-92527380D01*
X154186095Y-91527380D02*
X154757523Y-91527380D01*
X154471809Y-92527380D02*
X154471809Y-91527380D01*
X154852761Y-92622619D02*
X155614666Y-92622619D01*
X156376571Y-91575000D02*
X156281333Y-91527380D01*
X156138476Y-91527380D01*
X155995619Y-91575000D01*
X155900380Y-91670238D01*
X155852761Y-91765476D01*
X155805142Y-91955952D01*
X155805142Y-92098809D01*
X155852761Y-92289285D01*
X155900380Y-92384523D01*
X155995619Y-92479761D01*
X156138476Y-92527380D01*
X156233714Y-92527380D01*
X156376571Y-92479761D01*
X156424190Y-92432142D01*
X156424190Y-92098809D01*
X156233714Y-92098809D01*
X156852761Y-92527380D02*
X156852761Y-91527380D01*
X157424190Y-92527380D01*
X157424190Y-91527380D01*
X157900380Y-92527380D02*
X157900380Y-91527380D01*
X158138476Y-91527380D01*
X158281333Y-91575000D01*
X158376571Y-91670238D01*
X158424190Y-91765476D01*
X158471809Y-91955952D01*
X158471809Y-92098809D01*
X158424190Y-92289285D01*
X158376571Y-92384523D01*
X158281333Y-92479761D01*
X158138476Y-92527380D01*
X157900380Y-92527380D01*
%TO.C,TP2*%
X136533095Y-117562380D02*
X137104523Y-117562380D01*
X136818809Y-118562380D02*
X136818809Y-117562380D01*
X137437857Y-118562380D02*
X137437857Y-117562380D01*
X137818809Y-117562380D01*
X137914047Y-117610000D01*
X137961666Y-117657619D01*
X138009285Y-117752857D01*
X138009285Y-117895714D01*
X137961666Y-117990952D01*
X137914047Y-118038571D01*
X137818809Y-118086190D01*
X137437857Y-118086190D01*
X138390238Y-117657619D02*
X138437857Y-117610000D01*
X138533095Y-117562380D01*
X138771190Y-117562380D01*
X138866428Y-117610000D01*
X138914047Y-117657619D01*
X138961666Y-117752857D01*
X138961666Y-117848095D01*
X138914047Y-117990952D01*
X138342619Y-118562380D01*
X138961666Y-118562380D01*
%TO.C,C1*%
X156567142Y-114466666D02*
X156614761Y-114514285D01*
X156662380Y-114657142D01*
X156662380Y-114752380D01*
X156614761Y-114895238D01*
X156519523Y-114990476D01*
X156424285Y-115038095D01*
X156233809Y-115085714D01*
X156090952Y-115085714D01*
X155900476Y-115038095D01*
X155805238Y-114990476D01*
X155710000Y-114895238D01*
X155662380Y-114752380D01*
X155662380Y-114657142D01*
X155710000Y-114514285D01*
X155757619Y-114466666D01*
X156662380Y-113514285D02*
X156662380Y-114085714D01*
X156662380Y-113800000D02*
X155662380Y-113800000D01*
X155805238Y-113895238D01*
X155900476Y-113990476D01*
X155948095Y-114085714D01*
%TO.C,J2*%
X151431666Y-95562380D02*
X151431666Y-96276666D01*
X151384047Y-96419523D01*
X151288809Y-96514761D01*
X151145952Y-96562380D01*
X151050714Y-96562380D01*
X151860238Y-95657619D02*
X151907857Y-95610000D01*
X152003095Y-95562380D01*
X152241190Y-95562380D01*
X152336428Y-95610000D01*
X152384047Y-95657619D01*
X152431666Y-95752857D01*
X152431666Y-95848095D01*
X152384047Y-95990952D01*
X151812619Y-96562380D01*
X152431666Y-96562380D01*
%TO.C,C2*%
X143359142Y-106846666D02*
X143406761Y-106894285D01*
X143454380Y-107037142D01*
X143454380Y-107132380D01*
X143406761Y-107275238D01*
X143311523Y-107370476D01*
X143216285Y-107418095D01*
X143025809Y-107465714D01*
X142882952Y-107465714D01*
X142692476Y-107418095D01*
X142597238Y-107370476D01*
X142502000Y-107275238D01*
X142454380Y-107132380D01*
X142454380Y-107037142D01*
X142502000Y-106894285D01*
X142549619Y-106846666D01*
X142549619Y-106465714D02*
X142502000Y-106418095D01*
X142454380Y-106322857D01*
X142454380Y-106084761D01*
X142502000Y-105989523D01*
X142549619Y-105941904D01*
X142644857Y-105894285D01*
X142740095Y-105894285D01*
X142882952Y-105941904D01*
X143454380Y-106513333D01*
X143454380Y-105894285D01*
%TO.C,C5*%
X138327142Y-101364166D02*
X138374761Y-101411785D01*
X138422380Y-101554642D01*
X138422380Y-101649880D01*
X138374761Y-101792738D01*
X138279523Y-101887976D01*
X138184285Y-101935595D01*
X137993809Y-101983214D01*
X137850952Y-101983214D01*
X137660476Y-101935595D01*
X137565238Y-101887976D01*
X137470000Y-101792738D01*
X137422380Y-101649880D01*
X137422380Y-101554642D01*
X137470000Y-101411785D01*
X137517619Y-101364166D01*
X137422380Y-100459404D02*
X137422380Y-100935595D01*
X137898571Y-100983214D01*
X137850952Y-100935595D01*
X137803333Y-100840357D01*
X137803333Y-100602261D01*
X137850952Y-100507023D01*
X137898571Y-100459404D01*
X137993809Y-100411785D01*
X138231904Y-100411785D01*
X138327142Y-100459404D01*
X138374761Y-100507023D01*
X138422380Y-100602261D01*
X138422380Y-100840357D01*
X138374761Y-100935595D01*
X138327142Y-100983214D01*
%TO.C,SW1*%
X156781666Y-96289761D02*
X156924523Y-96337380D01*
X157162619Y-96337380D01*
X157257857Y-96289761D01*
X157305476Y-96242142D01*
X157353095Y-96146904D01*
X157353095Y-96051666D01*
X157305476Y-95956428D01*
X157257857Y-95908809D01*
X157162619Y-95861190D01*
X156972142Y-95813571D01*
X156876904Y-95765952D01*
X156829285Y-95718333D01*
X156781666Y-95623095D01*
X156781666Y-95527857D01*
X156829285Y-95432619D01*
X156876904Y-95385000D01*
X156972142Y-95337380D01*
X157210238Y-95337380D01*
X157353095Y-95385000D01*
X157686428Y-95337380D02*
X157924523Y-96337380D01*
X158115000Y-95623095D01*
X158305476Y-96337380D01*
X158543571Y-95337380D01*
X159448333Y-96337380D02*
X158876904Y-96337380D01*
X159162619Y-96337380D02*
X159162619Y-95337380D01*
X159067380Y-95480238D01*
X158972142Y-95575476D01*
X158876904Y-95623095D01*
%TO.C,C3*%
X143486142Y-116117666D02*
X143533761Y-116165285D01*
X143581380Y-116308142D01*
X143581380Y-116403380D01*
X143533761Y-116546238D01*
X143438523Y-116641476D01*
X143343285Y-116689095D01*
X143152809Y-116736714D01*
X143009952Y-116736714D01*
X142819476Y-116689095D01*
X142724238Y-116641476D01*
X142629000Y-116546238D01*
X142581380Y-116403380D01*
X142581380Y-116308142D01*
X142629000Y-116165285D01*
X142676619Y-116117666D01*
X142581380Y-115784333D02*
X142581380Y-115165285D01*
X142962333Y-115498619D01*
X142962333Y-115355761D01*
X143009952Y-115260523D01*
X143057571Y-115212904D01*
X143152809Y-115165285D01*
X143390904Y-115165285D01*
X143486142Y-115212904D01*
X143533761Y-115260523D01*
X143581380Y-115355761D01*
X143581380Y-115641476D01*
X143533761Y-115736714D01*
X143486142Y-115784333D01*
%TO.C,TP5*%
X140507142Y-92038571D02*
X140840476Y-92038571D01*
X140983333Y-92562380D02*
X140507142Y-92562380D01*
X140507142Y-91562380D01*
X140983333Y-91562380D01*
X141316666Y-91562380D02*
X141983333Y-92562380D01*
X141983333Y-91562380D02*
X141316666Y-92562380D01*
X142221428Y-91562380D02*
X142792857Y-91562380D01*
X142507142Y-92562380D02*
X142507142Y-91562380D01*
X142888095Y-92657619D02*
X143650000Y-92657619D01*
X143745238Y-91562380D02*
X144078571Y-92562380D01*
X144411904Y-91562380D01*
X144745238Y-92562380D02*
X144745238Y-91562380D01*
X145221428Y-92562380D02*
X145221428Y-91562380D01*
X145792857Y-92562380D01*
X145792857Y-91562380D01*
D11*
%TO.C,R1*%
X145147224Y-122667500D02*
X144637776Y-122667500D01*
X145147224Y-123712500D02*
X144637776Y-123712500D01*
%TO.C,TP1*%
X160720000Y-108650000D02*
X159320000Y-108650000D01*
X159320000Y-107250000D02*
X160720000Y-107250000D01*
X160720000Y-107250000D02*
X160720000Y-108650000D01*
X159320000Y-108650000D02*
X159320000Y-107250000D01*
%TO.C,D1*%
X141740000Y-121945000D02*
X144010000Y-121945000D01*
X141740000Y-117885000D02*
X141740000Y-121945000D01*
X144010000Y-121945000D02*
X144010000Y-117885000D01*
%TO.C,R3*%
X144892500Y-119992224D02*
X144892500Y-119482776D01*
X145937500Y-119992224D02*
X145937500Y-119482776D01*
%TO.C,C4*%
X138890000Y-97301233D02*
X138890000Y-97593767D01*
X139910000Y-97301233D02*
X139910000Y-97593767D01*
%TO.C,U2*%
X146810000Y-95900000D02*
X146810000Y-97160000D01*
X140800000Y-95900000D02*
X146810000Y-95900000D01*
X146810000Y-102720000D02*
X146810000Y-101460000D01*
X143050000Y-102720000D02*
X146810000Y-102720000D01*
%TO.C,TP6*%
X158150000Y-88560000D02*
G75*
G03*
X158150000Y-88560000I-2750000J0D01*
G01*
%TO.C,J1*%
X152255000Y-120995000D02*
X154855000Y-120995000D01*
X152255000Y-118395000D02*
X152255000Y-120995000D01*
X154855000Y-120995000D02*
X154855000Y-123595000D01*
X152255000Y-118395000D02*
X147115000Y-118395000D01*
X153525000Y-118395000D02*
X154855000Y-118395000D01*
X154855000Y-118395000D02*
X154855000Y-119725000D01*
X154855000Y-123595000D02*
X147115000Y-123595000D01*
X147115000Y-118395000D02*
X147115000Y-123595000D01*
%TO.C,Y1*%
X141775000Y-107540000D02*
X141775000Y-113940000D01*
X136725000Y-107540000D02*
X136725000Y-113940000D01*
X141775000Y-107540000D02*
G75*
G03*
X136725000Y-107540000I-2525000J0D01*
G01*
X136725000Y-113940000D02*
G75*
G03*
X141775000Y-113940000I2525000J0D01*
G01*
%TO.C,TP2*%
X139635000Y-118810000D02*
X139635000Y-117410000D01*
X139635000Y-117410000D02*
X141035000Y-117410000D01*
X141035000Y-118810000D02*
X139635000Y-118810000D01*
X141035000Y-117410000D02*
X141035000Y-118810000D01*
%TO.C,C1*%
X156720000Y-111658767D02*
X156720000Y-111366233D01*
X155700000Y-111658767D02*
X155700000Y-111366233D01*
D10*
%TO.C,U1*%
X146375000Y-107875000D02*
X146375000Y-108100000D01*
X153625000Y-107875000D02*
X153300000Y-107875000D01*
X146375000Y-115125000D02*
X146700000Y-115125000D01*
X153625000Y-107875000D02*
X153625000Y-108200000D01*
X153625000Y-115125000D02*
X153300000Y-115125000D01*
X153625000Y-115125000D02*
X153625000Y-114800000D01*
X146375000Y-108100000D02*
X144950000Y-108100000D01*
X146375000Y-107875000D02*
X146700000Y-107875000D01*
X146375000Y-115125000D02*
X146375000Y-114800000D01*
D11*
%TO.C,J2*%
X150435000Y-97110000D02*
X151765000Y-97110000D01*
X150435000Y-104850000D02*
X153095000Y-104850000D01*
X153095000Y-99710000D02*
X153095000Y-104850000D01*
X150435000Y-99710000D02*
X153095000Y-99710000D01*
X150435000Y-98440000D02*
X150435000Y-97110000D01*
X150435000Y-99710000D02*
X150435000Y-104850000D01*
%TO.C,C2*%
X143510000Y-109216233D02*
X143510000Y-109508767D01*
X142490000Y-109216233D02*
X142490000Y-109508767D01*
%TO.C,C5*%
X139910000Y-101343767D02*
X139910000Y-101051233D01*
X138890000Y-101343767D02*
X138890000Y-101051233D01*
%TO.C,SW1*%
X154460000Y-99100000D02*
X154460000Y-103600000D01*
X158460000Y-97850000D02*
X156960000Y-97850000D01*
X156960000Y-104850000D02*
X158460000Y-104850000D01*
X160960000Y-103600000D02*
X160960000Y-99100000D01*
%TO.C,C3*%
X142490000Y-113396267D02*
X142490000Y-113103733D01*
X143510000Y-113396267D02*
X143510000Y-113103733D01*
%TO.C,TP5*%
X145900000Y-88560000D02*
G75*
G03*
X145900000Y-88560000I-2750000J0D01*
G01*
%TD*%
M02*
