M48
; DRILL file {KiCad 6.0.11+dfsg-1} date Mon 04 Sep 2023 09:51:46 PM PDT
; FORMAT={-:-/ absolute / metric / decimal}
; #@! TF.CreationDate,2023-09-04T21:51:46-07:00
; #@! TF.GenerationSoftware,Kicad,Pcbnew,6.0.11+dfsg-1
; #@! TF.FileFunction,Plated,1,2,PTH
FMAT,2
METRIC
; #@! TA.AperFunction,Plated,PTH,ViaDrill
T1C0.400
; #@! TA.AperFunction,Plated,PTH,ComponentDrill
T2C0.800
; #@! TA.AperFunction,Plated,PTH,ComponentDrill
T3C1.000
; #@! TA.AperFunction,Plated,PTH,ComponentDrill
T4C1.100
; #@! TA.AperFunction,Plated,PTH,ComponentDrill
T5C4.000
%
G90
G05
T1
X137.922Y-103.632
X141.175Y-110.225
X141.478Y-112.268
X141.732Y-103.378
X143.0Y-105.666
X144.018Y-113.03
X145.415Y-118.745
X149.5Y-110.0
X149.871Y-112.003
X151.384Y-112.014
X154.5Y-115.75
X157.734Y-112.395
X157.861Y-109.601
T2
X139.25Y-108.3
X139.25Y-113.18
T3
X148.445Y-119.725
X148.445Y-122.265
X150.985Y-119.725
X150.985Y-122.265
X151.765Y-98.44
X151.765Y-100.98
X151.765Y-103.52
X153.525Y-119.725
X153.525Y-122.265
T4
X155.46Y-98.1
X155.46Y-104.6
X159.96Y-98.1
X159.96Y-104.6
T5
X143.15Y-88.56
X155.4Y-88.56
T0
M30
