%TF.GenerationSoftware,KiCad,Pcbnew,7.0.6*%
%TF.CreationDate,2023-08-19T21:53:38-07:00*%
%TF.ProjectId,schematic_copy_,73636865-6d61-4746-9963-5f636f70795f,rev?*%
%TF.SameCoordinates,Original*%
%TF.FileFunction,Legend,Top*%
%TF.FilePolarity,Positive*%
%FSLAX46Y46*%
G04 Gerber Fmt 4.6, Leading zero omitted, Abs format (unit mm)*
G04 Created by KiCad (PCBNEW 7.0.6) date 2023-08-19 21:53:38*
%MOMM*%
%LPD*%
G01*
G04 APERTURE LIST*
%ADD10C,0.150000*%
%ADD11C,0.120000*%
G04 APERTURE END LIST*
D10*
X132576667Y-104397200D02*
X132719524Y-104444819D01*
X132719524Y-104444819D02*
X132957619Y-104444819D01*
X132957619Y-104444819D02*
X133052857Y-104397200D01*
X133052857Y-104397200D02*
X133100476Y-104349580D01*
X133100476Y-104349580D02*
X133148095Y-104254342D01*
X133148095Y-104254342D02*
X133148095Y-104159104D01*
X133148095Y-104159104D02*
X133100476Y-104063866D01*
X133100476Y-104063866D02*
X133052857Y-104016247D01*
X133052857Y-104016247D02*
X132957619Y-103968628D01*
X132957619Y-103968628D02*
X132767143Y-103921009D01*
X132767143Y-103921009D02*
X132671905Y-103873390D01*
X132671905Y-103873390D02*
X132624286Y-103825771D01*
X132624286Y-103825771D02*
X132576667Y-103730533D01*
X132576667Y-103730533D02*
X132576667Y-103635295D01*
X132576667Y-103635295D02*
X132624286Y-103540057D01*
X132624286Y-103540057D02*
X132671905Y-103492438D01*
X132671905Y-103492438D02*
X132767143Y-103444819D01*
X132767143Y-103444819D02*
X133005238Y-103444819D01*
X133005238Y-103444819D02*
X133148095Y-103492438D01*
X133481429Y-103444819D02*
X133719524Y-104444819D01*
X133719524Y-104444819D02*
X133910000Y-103730533D01*
X133910000Y-103730533D02*
X134100476Y-104444819D01*
X134100476Y-104444819D02*
X134338572Y-103444819D01*
X135243333Y-104444819D02*
X134671905Y-104444819D01*
X134957619Y-104444819D02*
X134957619Y-103444819D01*
X134957619Y-103444819D02*
X134862381Y-103587676D01*
X134862381Y-103587676D02*
X134767143Y-103682914D01*
X134767143Y-103682914D02*
X134671905Y-103730533D01*
X131096190Y-85871009D02*
X131239047Y-85918628D01*
X131239047Y-85918628D02*
X131286666Y-85966247D01*
X131286666Y-85966247D02*
X131334285Y-86061485D01*
X131334285Y-86061485D02*
X131334285Y-86204342D01*
X131334285Y-86204342D02*
X131286666Y-86299580D01*
X131286666Y-86299580D02*
X131239047Y-86347200D01*
X131239047Y-86347200D02*
X131143809Y-86394819D01*
X131143809Y-86394819D02*
X130762857Y-86394819D01*
X130762857Y-86394819D02*
X130762857Y-85394819D01*
X130762857Y-85394819D02*
X131096190Y-85394819D01*
X131096190Y-85394819D02*
X131191428Y-85442438D01*
X131191428Y-85442438D02*
X131239047Y-85490057D01*
X131239047Y-85490057D02*
X131286666Y-85585295D01*
X131286666Y-85585295D02*
X131286666Y-85680533D01*
X131286666Y-85680533D02*
X131239047Y-85775771D01*
X131239047Y-85775771D02*
X131191428Y-85823390D01*
X131191428Y-85823390D02*
X131096190Y-85871009D01*
X131096190Y-85871009D02*
X130762857Y-85871009D01*
X132239047Y-86394819D02*
X131762857Y-86394819D01*
X131762857Y-86394819D02*
X131762857Y-85394819D01*
X132572381Y-85394819D02*
X132572381Y-86204342D01*
X132572381Y-86204342D02*
X132620000Y-86299580D01*
X132620000Y-86299580D02*
X132667619Y-86347200D01*
X132667619Y-86347200D02*
X132762857Y-86394819D01*
X132762857Y-86394819D02*
X132953333Y-86394819D01*
X132953333Y-86394819D02*
X133048571Y-86347200D01*
X133048571Y-86347200D02*
X133096190Y-86299580D01*
X133096190Y-86299580D02*
X133143809Y-86204342D01*
X133143809Y-86204342D02*
X133143809Y-85394819D01*
X133620000Y-85871009D02*
X133953333Y-85871009D01*
X134096190Y-86394819D02*
X133620000Y-86394819D01*
X133620000Y-86394819D02*
X133620000Y-85394819D01*
X133620000Y-85394819D02*
X134096190Y-85394819D01*
X134286667Y-86490057D02*
X135048571Y-86490057D01*
X135762857Y-86394819D02*
X135286667Y-86394819D01*
X135286667Y-86394819D02*
X135286667Y-85394819D01*
X136096191Y-85871009D02*
X136429524Y-85871009D01*
X136572381Y-86394819D02*
X136096191Y-86394819D01*
X136096191Y-86394819D02*
X136096191Y-85394819D01*
X136096191Y-85394819D02*
X136572381Y-85394819D01*
X137000953Y-86394819D02*
X137000953Y-85394819D01*
X137000953Y-85394819D02*
X137239048Y-85394819D01*
X137239048Y-85394819D02*
X137381905Y-85442438D01*
X137381905Y-85442438D02*
X137477143Y-85537676D01*
X137477143Y-85537676D02*
X137524762Y-85632914D01*
X137524762Y-85632914D02*
X137572381Y-85823390D01*
X137572381Y-85823390D02*
X137572381Y-85966247D01*
X137572381Y-85966247D02*
X137524762Y-86156723D01*
X137524762Y-86156723D02*
X137477143Y-86251961D01*
X137477143Y-86251961D02*
X137381905Y-86347200D01*
X137381905Y-86347200D02*
X137239048Y-86394819D01*
X137239048Y-86394819D02*
X137000953Y-86394819D01*
X138524762Y-86394819D02*
X137953334Y-86394819D01*
X138239048Y-86394819D02*
X138239048Y-85394819D01*
X138239048Y-85394819D02*
X138143810Y-85537676D01*
X138143810Y-85537676D02*
X138048572Y-85632914D01*
X138048572Y-85632914D02*
X137953334Y-85680533D01*
X147875714Y-73829104D02*
X148351904Y-73829104D01*
X147780476Y-74114819D02*
X148113809Y-73114819D01*
X148113809Y-73114819D02*
X148447142Y-74114819D01*
X149304285Y-74114819D02*
X148732857Y-74114819D01*
X149018571Y-74114819D02*
X149018571Y-73114819D01*
X149018571Y-73114819D02*
X148923333Y-73257676D01*
X148923333Y-73257676D02*
X148828095Y-73352914D01*
X148828095Y-73352914D02*
X148732857Y-73400533D01*
X147328095Y-111214819D02*
X147328095Y-112024342D01*
X147328095Y-112024342D02*
X147375714Y-112119580D01*
X147375714Y-112119580D02*
X147423333Y-112167200D01*
X147423333Y-112167200D02*
X147518571Y-112214819D01*
X147518571Y-112214819D02*
X147709047Y-112214819D01*
X147709047Y-112214819D02*
X147804285Y-112167200D01*
X147804285Y-112167200D02*
X147851904Y-112119580D01*
X147851904Y-112119580D02*
X147899523Y-112024342D01*
X147899523Y-112024342D02*
X147899523Y-111214819D01*
X148328095Y-112167200D02*
X148470952Y-112214819D01*
X148470952Y-112214819D02*
X148709047Y-112214819D01*
X148709047Y-112214819D02*
X148804285Y-112167200D01*
X148804285Y-112167200D02*
X148851904Y-112119580D01*
X148851904Y-112119580D02*
X148899523Y-112024342D01*
X148899523Y-112024342D02*
X148899523Y-111929104D01*
X148899523Y-111929104D02*
X148851904Y-111833866D01*
X148851904Y-111833866D02*
X148804285Y-111786247D01*
X148804285Y-111786247D02*
X148709047Y-111738628D01*
X148709047Y-111738628D02*
X148518571Y-111691009D01*
X148518571Y-111691009D02*
X148423333Y-111643390D01*
X148423333Y-111643390D02*
X148375714Y-111595771D01*
X148375714Y-111595771D02*
X148328095Y-111500533D01*
X148328095Y-111500533D02*
X148328095Y-111405295D01*
X148328095Y-111405295D02*
X148375714Y-111310057D01*
X148375714Y-111310057D02*
X148423333Y-111262438D01*
X148423333Y-111262438D02*
X148518571Y-111214819D01*
X148518571Y-111214819D02*
X148756666Y-111214819D01*
X148756666Y-111214819D02*
X148899523Y-111262438D01*
X149661428Y-111691009D02*
X149804285Y-111738628D01*
X149804285Y-111738628D02*
X149851904Y-111786247D01*
X149851904Y-111786247D02*
X149899523Y-111881485D01*
X149899523Y-111881485D02*
X149899523Y-112024342D01*
X149899523Y-112024342D02*
X149851904Y-112119580D01*
X149851904Y-112119580D02*
X149804285Y-112167200D01*
X149804285Y-112167200D02*
X149709047Y-112214819D01*
X149709047Y-112214819D02*
X149328095Y-112214819D01*
X149328095Y-112214819D02*
X149328095Y-111214819D01*
X149328095Y-111214819D02*
X149661428Y-111214819D01*
X149661428Y-111214819D02*
X149756666Y-111262438D01*
X149756666Y-111262438D02*
X149804285Y-111310057D01*
X149804285Y-111310057D02*
X149851904Y-111405295D01*
X149851904Y-111405295D02*
X149851904Y-111500533D01*
X149851904Y-111500533D02*
X149804285Y-111595771D01*
X149804285Y-111595771D02*
X149756666Y-111643390D01*
X149756666Y-111643390D02*
X149661428Y-111691009D01*
X149661428Y-111691009D02*
X149328095Y-111691009D01*
X132405714Y-78910057D02*
X132453333Y-78862438D01*
X132453333Y-78862438D02*
X132548571Y-78814819D01*
X132548571Y-78814819D02*
X132786666Y-78814819D01*
X132786666Y-78814819D02*
X132881904Y-78862438D01*
X132881904Y-78862438D02*
X132929523Y-78910057D01*
X132929523Y-78910057D02*
X132977142Y-79005295D01*
X132977142Y-79005295D02*
X132977142Y-79100533D01*
X132977142Y-79100533D02*
X132929523Y-79243390D01*
X132929523Y-79243390D02*
X132358095Y-79814819D01*
X132358095Y-79814819D02*
X132977142Y-79814819D01*
X133358095Y-78910057D02*
X133405714Y-78862438D01*
X133405714Y-78862438D02*
X133500952Y-78814819D01*
X133500952Y-78814819D02*
X133739047Y-78814819D01*
X133739047Y-78814819D02*
X133834285Y-78862438D01*
X133834285Y-78862438D02*
X133881904Y-78910057D01*
X133881904Y-78910057D02*
X133929523Y-79005295D01*
X133929523Y-79005295D02*
X133929523Y-79100533D01*
X133929523Y-79100533D02*
X133881904Y-79243390D01*
X133881904Y-79243390D02*
X133310476Y-79814819D01*
X133310476Y-79814819D02*
X133929523Y-79814819D01*
X134548571Y-78814819D02*
X134643809Y-78814819D01*
X134643809Y-78814819D02*
X134739047Y-78862438D01*
X134739047Y-78862438D02*
X134786666Y-78910057D01*
X134786666Y-78910057D02*
X134834285Y-79005295D01*
X134834285Y-79005295D02*
X134881904Y-79195771D01*
X134881904Y-79195771D02*
X134881904Y-79433866D01*
X134881904Y-79433866D02*
X134834285Y-79624342D01*
X134834285Y-79624342D02*
X134786666Y-79719580D01*
X134786666Y-79719580D02*
X134739047Y-79767200D01*
X134739047Y-79767200D02*
X134643809Y-79814819D01*
X134643809Y-79814819D02*
X134548571Y-79814819D01*
X134548571Y-79814819D02*
X134453333Y-79767200D01*
X134453333Y-79767200D02*
X134405714Y-79719580D01*
X134405714Y-79719580D02*
X134358095Y-79624342D01*
X134358095Y-79624342D02*
X134310476Y-79433866D01*
X134310476Y-79433866D02*
X134310476Y-79195771D01*
X134310476Y-79195771D02*
X134358095Y-79005295D01*
X134358095Y-79005295D02*
X134405714Y-78910057D01*
X134405714Y-78910057D02*
X134453333Y-78862438D01*
X134453333Y-78862438D02*
X134548571Y-78814819D01*
X135881904Y-79814819D02*
X135548571Y-79338628D01*
X135310476Y-79814819D02*
X135310476Y-78814819D01*
X135310476Y-78814819D02*
X135691428Y-78814819D01*
X135691428Y-78814819D02*
X135786666Y-78862438D01*
X135786666Y-78862438D02*
X135834285Y-78910057D01*
X135834285Y-78910057D02*
X135881904Y-79005295D01*
X135881904Y-79005295D02*
X135881904Y-79148152D01*
X135881904Y-79148152D02*
X135834285Y-79243390D01*
X135834285Y-79243390D02*
X135786666Y-79291009D01*
X135786666Y-79291009D02*
X135691428Y-79338628D01*
X135691428Y-79338628D02*
X135310476Y-79338628D01*
X136834285Y-79814819D02*
X136262857Y-79814819D01*
X136548571Y-79814819D02*
X136548571Y-78814819D01*
X136548571Y-78814819D02*
X136453333Y-78957676D01*
X136453333Y-78957676D02*
X136358095Y-79052914D01*
X136358095Y-79052914D02*
X136262857Y-79100533D01*
X132953333Y-96614819D02*
X132381905Y-96614819D01*
X132667619Y-96614819D02*
X132667619Y-95614819D01*
X132667619Y-95614819D02*
X132572381Y-95757676D01*
X132572381Y-95757676D02*
X132477143Y-95852914D01*
X132477143Y-95852914D02*
X132381905Y-95900533D01*
X133572381Y-95614819D02*
X133667619Y-95614819D01*
X133667619Y-95614819D02*
X133762857Y-95662438D01*
X133762857Y-95662438D02*
X133810476Y-95710057D01*
X133810476Y-95710057D02*
X133858095Y-95805295D01*
X133858095Y-95805295D02*
X133905714Y-95995771D01*
X133905714Y-95995771D02*
X133905714Y-96233866D01*
X133905714Y-96233866D02*
X133858095Y-96424342D01*
X133858095Y-96424342D02*
X133810476Y-96519580D01*
X133810476Y-96519580D02*
X133762857Y-96567200D01*
X133762857Y-96567200D02*
X133667619Y-96614819D01*
X133667619Y-96614819D02*
X133572381Y-96614819D01*
X133572381Y-96614819D02*
X133477143Y-96567200D01*
X133477143Y-96567200D02*
X133429524Y-96519580D01*
X133429524Y-96519580D02*
X133381905Y-96424342D01*
X133381905Y-96424342D02*
X133334286Y-96233866D01*
X133334286Y-96233866D02*
X133334286Y-95995771D01*
X133334286Y-95995771D02*
X133381905Y-95805295D01*
X133381905Y-95805295D02*
X133429524Y-95710057D01*
X133429524Y-95710057D02*
X133477143Y-95662438D01*
X133477143Y-95662438D02*
X133572381Y-95614819D01*
X134334286Y-96614819D02*
X134334286Y-95614819D01*
X134905714Y-96614819D02*
X134477143Y-96043390D01*
X134905714Y-95614819D02*
X134334286Y-96186247D01*
X135905714Y-96614819D02*
X135572381Y-96138628D01*
X135334286Y-96614819D02*
X135334286Y-95614819D01*
X135334286Y-95614819D02*
X135715238Y-95614819D01*
X135715238Y-95614819D02*
X135810476Y-95662438D01*
X135810476Y-95662438D02*
X135858095Y-95710057D01*
X135858095Y-95710057D02*
X135905714Y-95805295D01*
X135905714Y-95805295D02*
X135905714Y-95948152D01*
X135905714Y-95948152D02*
X135858095Y-96043390D01*
X135858095Y-96043390D02*
X135810476Y-96091009D01*
X135810476Y-96091009D02*
X135715238Y-96138628D01*
X135715238Y-96138628D02*
X135334286Y-96138628D01*
X136286667Y-95710057D02*
X136334286Y-95662438D01*
X136334286Y-95662438D02*
X136429524Y-95614819D01*
X136429524Y-95614819D02*
X136667619Y-95614819D01*
X136667619Y-95614819D02*
X136762857Y-95662438D01*
X136762857Y-95662438D02*
X136810476Y-95710057D01*
X136810476Y-95710057D02*
X136858095Y-95805295D01*
X136858095Y-95805295D02*
X136858095Y-95900533D01*
X136858095Y-95900533D02*
X136810476Y-96043390D01*
X136810476Y-96043390D02*
X136239048Y-96614819D01*
X136239048Y-96614819D02*
X136858095Y-96614819D01*
D11*
%TO.C,SW1*%
X137410000Y-108990000D02*
X137410000Y-107490000D01*
X136160000Y-104990000D02*
X131660000Y-104990000D01*
X130410000Y-107490000D02*
X130410000Y-108990000D01*
X131660000Y-111490000D02*
X136160000Y-111490000D01*
%TO.C,BLUE_LED1*%
X133060000Y-87664000D02*
X133060000Y-87820000D01*
X133060000Y-89980000D02*
X133060000Y-90136000D01*
X135661129Y-87820164D02*
G75*
G03*
X133579040Y-87820001I-1041129J-1079836D01*
G01*
X133060001Y-90135515D02*
G75*
G03*
X136292334Y-89978608I1559999J1235515D01*
G01*
X133579040Y-89979999D02*
G75*
G03*
X135661129Y-89979836I1040960J1079999D01*
G01*
X136292334Y-87821392D02*
G75*
G03*
X133060001Y-87664485I-1672334J-1078608D01*
G01*
%TO.C,A1*%
X142240000Y-77470000D02*
X142240000Y-113030000D01*
X144650000Y-107820000D02*
X152530000Y-107820000D01*
X139570000Y-72260000D02*
X139570000Y-74930000D01*
X139570000Y-115700000D02*
X144650000Y-115700000D01*
X157610000Y-72260000D02*
X139570000Y-72260000D01*
X142240000Y-77470000D02*
X139570000Y-77470000D01*
X154940000Y-74930000D02*
X157610000Y-74930000D01*
X154940000Y-113030000D02*
X157610000Y-113030000D01*
X142240000Y-77470000D02*
X142240000Y-74930000D01*
X154940000Y-74930000D02*
X154940000Y-113030000D01*
X142240000Y-113030000D02*
X139570000Y-113030000D01*
X139570000Y-77470000D02*
X139570000Y-115700000D01*
X157610000Y-115700000D02*
X152530000Y-115700000D01*
X152530000Y-107820000D02*
X152530000Y-118240000D01*
X144650000Y-118240000D02*
X144650000Y-107820000D01*
X157610000Y-115700000D02*
X157610000Y-72260000D01*
X152530000Y-118240000D02*
X144650000Y-118240000D01*
X142240000Y-74930000D02*
X139570000Y-74930000D01*
%TO.C,220R1*%
X132700000Y-82200000D02*
X136540000Y-82200000D01*
X132700000Y-80360000D02*
X136540000Y-80360000D01*
%TO.C,10KR2*%
X132700000Y-99000000D02*
X136540000Y-99000000D01*
X132700000Y-97160000D02*
X136540000Y-97160000D01*
%TD*%
M02*
