%TF.GenerationSoftware,KiCad,Pcbnew,7.0.6*%
%TF.CreationDate,2023-08-19T21:53:38-07:00*%
%TF.ProjectId,schematic_copy_,73636865-6d61-4746-9963-5f636f70795f,rev?*%
%TF.SameCoordinates,Original*%
%TF.FileFunction,Soldermask,Top*%
%TF.FilePolarity,Negative*%
%FSLAX46Y46*%
G04 Gerber Fmt 4.6, Leading zero omitted, Abs format (unit mm)*
G04 Created by KiCad (PCBNEW 7.0.6) date 2023-08-19 21:53:38*
%MOMM*%
%LPD*%
G01*
G04 APERTURE LIST*
%ADD10C,2.000000*%
%ADD11R,1.800000X1.800000*%
%ADD12C,1.800000*%
%ADD13O,1.600000X1.600000*%
%ADD14R,1.600000X1.600000*%
%ADD15C,1.400000*%
%ADD16O,1.400000X1.400000*%
G04 APERTURE END LIST*
D10*
%TO.C,SW1*%
X137160000Y-105990000D03*
X130660000Y-105990000D03*
X137160000Y-110490000D03*
X130660000Y-110490000D03*
%TD*%
D11*
%TO.C,BLUE_LED1*%
X133350000Y-88900000D03*
D12*
X135890000Y-88900000D03*
%TD*%
D13*
%TO.C,A1*%
X156210000Y-76200000D03*
X156210000Y-78740000D03*
X156210000Y-81280000D03*
X156210000Y-83820000D03*
X156210000Y-86360000D03*
X156210000Y-88900000D03*
X156210000Y-91440000D03*
X156210000Y-93980000D03*
X156210000Y-96520000D03*
X156210000Y-99060000D03*
X156210000Y-101600000D03*
X156210000Y-104140000D03*
X156210000Y-106680000D03*
X156210000Y-109220000D03*
X156210000Y-111760000D03*
X140970000Y-111760000D03*
X140970000Y-109220000D03*
X140970000Y-106680000D03*
X140970000Y-104140000D03*
X140970000Y-101600000D03*
X140970000Y-99060000D03*
X140970000Y-96520000D03*
X140970000Y-93980000D03*
X140970000Y-91440000D03*
X140970000Y-88900000D03*
X140970000Y-86360000D03*
X140970000Y-83820000D03*
X140970000Y-81280000D03*
X140970000Y-78740000D03*
D14*
X140970000Y-76200000D03*
%TD*%
D15*
%TO.C,220R1*%
X132080000Y-81280000D03*
D16*
X137160000Y-81280000D03*
%TD*%
D15*
%TO.C,10KR2*%
X132080000Y-98080000D03*
D16*
X137160000Y-98080000D03*
%TD*%
M02*
